%TF.GenerationSoftware,KiCad,Pcbnew,(2017-10-06 revision 4905bbe50)-master*%
%TF.CreationDate,2017-10-08T14:00:52+03:00*%
%TF.ProjectId,dps5005control,64707335303035636F6E74726F6C2E6B,rev?*%
%TF.SameCoordinates,Original*%
%TF.FileFunction,Copper,L2,Bot,Signal*%
%TF.FilePolarity,Positive*%
%FSLAX46Y46*%
G04 Gerber Fmt 4.6, Leading zero omitted, Abs format (unit mm)*
G04 Created by KiCad (PCBNEW (2017-10-06 revision 4905bbe50)-master) date Sun Oct  8 14:00:52 2017*
%MOMM*%
%LPD*%
G01*
G04 APERTURE LIST*
%TA.AperFunction,ComponentPad*%
%ADD10O,1.600000X1.600000*%
%TD*%
%TA.AperFunction,ComponentPad*%
%ADD11C,1.600000*%
%TD*%
%TA.AperFunction,ComponentPad*%
%ADD12O,2.000000X1.500000*%
%TD*%
%TA.AperFunction,ComponentPad*%
%ADD13R,2.000000X1.500000*%
%TD*%
%TA.AperFunction,ComponentPad*%
%ADD14O,0.949960X1.498600*%
%TD*%
%TA.AperFunction,ComponentPad*%
%ADD15R,0.949960X1.498600*%
%TD*%
%TA.AperFunction,ComponentPad*%
%ADD16C,3.000000*%
%TD*%
%TA.AperFunction,ComponentPad*%
%ADD17C,1.800000*%
%TD*%
%TA.AperFunction,ComponentPad*%
%ADD18R,1.800000X1.800000*%
%TD*%
%TA.AperFunction,ComponentPad*%
%ADD19C,0.800000*%
%TD*%
%TA.AperFunction,ComponentPad*%
%ADD20R,1.600000X1.600000*%
%TD*%
%TA.AperFunction,ComponentPad*%
%ADD21O,1.501140X2.199640*%
%TD*%
%TA.AperFunction,ComponentPad*%
%ADD22O,1.501140X1.998980*%
%TD*%
%TA.AperFunction,ComponentPad*%
%ADD23C,3.500120*%
%TD*%
%TA.AperFunction,ComponentPad*%
%ADD24R,1.524000X2.199640*%
%TD*%
%TA.AperFunction,ComponentPad*%
%ADD25O,1.524000X2.199640*%
%TD*%
%TA.AperFunction,ComponentPad*%
%ADD26O,1.800000X1.800000*%
%TD*%
%TA.AperFunction,ComponentPad*%
%ADD27R,2.199640X1.524000*%
%TD*%
%TA.AperFunction,ComponentPad*%
%ADD28O,2.199640X1.524000*%
%TD*%
%TA.AperFunction,Conductor*%
%ADD29C,0.254000*%
%TD*%
G04 APERTURE END LIST*
D10*
%TO.P,R1,2*%
%TO.N,/RST*%
X189484000Y-68650000D03*
D11*
%TO.P,R1,1*%
%TO.N,/+3.3v*%
X179324000Y-68650000D03*
%TD*%
D12*
%TO.P,P3,9*%
%TO.N,/MISO*%
X195380000Y-79730000D03*
%TO.P,P3,10*%
%TO.N,GND*%
X198420000Y-79730000D03*
%TO.P,P3,8*%
X198420000Y-77190000D03*
%TO.P,P3,7*%
%TO.N,/SCK*%
X195380000Y-77190000D03*
D13*
%TO.P,P3,1*%
%TO.N,/MOSI*%
X195380000Y-69570000D03*
D12*
%TO.P,P3,2*%
%TO.N,/+3.3v*%
X198420000Y-69570000D03*
%TO.P,P3,3*%
%TO.N,Net-(P3-Pad3)*%
X195380000Y-72110000D03*
%TO.P,P3,4*%
%TO.N,GND*%
X198420000Y-72110000D03*
%TO.P,P3,5*%
%TO.N,/RST*%
X195380000Y-74650000D03*
%TO.P,P3,6*%
%TO.N,GND*%
X198420000Y-74650000D03*
%TD*%
D14*
%TO.P,df13-4p-125dsa,4*%
%TO.N,/+3.3v*%
X188117480Y-61214000D03*
%TO.P,df13-4p-125dsa,3*%
%TO.N,/Tx*%
X189367160Y-61214000D03*
%TO.P,df13-4p-125dsa,2*%
%TO.N,/Rx*%
X190616840Y-61214000D03*
D15*
%TO.P,df13-4p-125dsa,1*%
%TO.N,GND*%
X191866520Y-61214000D03*
%TD*%
D16*
%TO.P,P1,1*%
%TO.N,+12V*%
X156900000Y-74150000D03*
%TO.P,P1,2*%
%TO.N,GND*%
X156900000Y-79150000D03*
%TD*%
D17*
%TO.P,D1,2*%
%TO.N,Net-(D1-Pad2)*%
X180860000Y-60650000D03*
D18*
%TO.P,D1,1*%
%TO.N,GND*%
X183400000Y-60650000D03*
%TD*%
D16*
%TO.P,REF\002A\002A,1*%
%TO.N,N/C*%
X155400000Y-92150000D03*
%TD*%
%TO.P,REF\002A\002A,1*%
%TO.N,N/C*%
X199400000Y-91150000D03*
%TD*%
%TO.P,REF\002A\002A,1*%
%TO.N,N/C*%
X199400000Y-60150000D03*
%TD*%
D19*
%TO.P,REF\002A\002A,1*%
%TO.N,N/C*%
X176000000Y-96450000D03*
%TD*%
%TO.P,REF\002A\002A,1*%
%TO.N,N/C*%
X177400000Y-96450000D03*
%TD*%
%TO.P,REF\002A\002A,1*%
%TO.N,N/C*%
X178800000Y-96450000D03*
%TD*%
D11*
%TO.P,C2,2*%
%TO.N,GND*%
X157900000Y-68400000D03*
D20*
%TO.P,C2,1*%
%TO.N,/+3.3v*%
X157900000Y-65900000D03*
%TD*%
D21*
%TO.P,U2,1*%
%TO.N,/RST*%
X188830000Y-73340000D03*
%TO.P,U2,2*%
%TO.N,/Rx*%
X186290000Y-73340000D03*
%TO.P,U2,3*%
%TO.N,/Tx*%
X183750000Y-73340000D03*
%TO.P,U2,4*%
%TO.N,Net-(U2-Pad4)*%
X181210000Y-73340000D03*
%TO.P,U2,5*%
%TO.N,Net-(U2-Pad5)*%
X178670000Y-73340000D03*
%TO.P,U2,6*%
%TO.N,Net-(U2-Pad6)*%
X176130000Y-73340000D03*
%TO.P,U2,7*%
%TO.N,/CC_MODE*%
X173590000Y-73340000D03*
%TO.P,U2,8*%
%TO.N,Net-(U2-Pad8)*%
X171050000Y-73340000D03*
%TO.P,U2,9*%
%TO.N,Net-(U2-Pad9)*%
X168510000Y-73340000D03*
%TO.P,U2,10*%
%TO.N,GND*%
X165970000Y-73340000D03*
%TO.P,U2,11*%
%TO.N,/ENC1_SW*%
X165970000Y-80960000D03*
%TO.P,U2,12*%
%TO.N,/ENC1_A*%
X168510000Y-80960000D03*
%TO.P,U2,13*%
%TO.N,/ENC1_B*%
X171050000Y-80960000D03*
%TO.P,U2,14*%
%TO.N,/ENC2_SW*%
X173590000Y-80960000D03*
%TO.P,U2,15*%
%TO.N,/ENC2_A*%
X176130000Y-80960000D03*
%TO.P,U2,16*%
%TO.N,/ENC2_B*%
X178670000Y-80960000D03*
%TO.P,U2,17*%
%TO.N,/MOSI*%
X181210000Y-80960000D03*
%TO.P,U2,18*%
%TO.N,/MISO*%
X183750000Y-80960000D03*
%TO.P,U2,19*%
%TO.N,/SCK*%
X186290000Y-80960000D03*
%TO.P,U2,20*%
%TO.N,/+3.3v*%
X188830000Y-80960000D03*
%TD*%
D22*
%TO.P,ENC1,1*%
%TO.N,/_ENC1_A*%
X159900640Y-115193420D03*
%TO.P,ENC1,2*%
%TO.N,/GND*%
X162400000Y-115193420D03*
%TO.P,ENC1,3*%
%TO.N,/_ENC1_B*%
X164899360Y-115193420D03*
D23*
%TO.P,ENC1,*%
%TO.N,/GND*%
X156199860Y-107692800D03*
X168600140Y-107692800D03*
D22*
%TO.P,ENC1,5*%
%TO.N,/_ENC1_SW*%
X159900640Y-100692560D03*
%TO.P,ENC1,4*%
%TO.N,/GND*%
X164899360Y-100692560D03*
%TD*%
D24*
%TO.P,P4,1*%
%TO.N,/ENC1_SW*%
X165989000Y-87884000D03*
D25*
%TO.P,P4,2*%
%TO.N,/ENC1_A*%
X168529000Y-87884000D03*
%TO.P,P4,3*%
%TO.N,/ENC1_B*%
X171069000Y-87884000D03*
%TO.P,P4,4*%
%TO.N,/ENC2_SW*%
X173609000Y-87884000D03*
%TO.P,P4,5*%
%TO.N,/ENC2_A*%
X176149000Y-87884000D03*
%TO.P,P4,6*%
%TO.N,/ENC2_B*%
X178689000Y-87884000D03*
%TO.P,P4,7*%
%TO.N,GND*%
X181229000Y-87884000D03*
%TD*%
D20*
%TO.P,C1,1*%
%TO.N,+12V*%
X157900000Y-84900000D03*
D11*
%TO.P,C1,2*%
%TO.N,GND*%
X157900000Y-87400000D03*
%TD*%
D10*
%TO.P,R3,2*%
%TO.N,/+3.3v*%
X176784000Y-65150000D03*
D11*
%TO.P,R3,1*%
%TO.N,Net-(D2-Pad2)*%
X166624000Y-65150000D03*
%TD*%
D26*
%TO.P,U1,3*%
%TO.N,/+3.3v*%
X167480000Y-61150000D03*
%TO.P,U1,2*%
%TO.N,GND*%
X164940000Y-61150000D03*
D18*
%TO.P,U1,1*%
%TO.N,+12V*%
X162400000Y-61150000D03*
%TD*%
D16*
%TO.P,REF\002A\002A,1*%
%TO.N,N/C*%
X155400000Y-60150000D03*
%TD*%
D11*
%TO.P,R2,1*%
%TO.N,Net-(D1-Pad2)*%
X166624000Y-68650000D03*
D10*
%TO.P,R2,2*%
%TO.N,/CC_MODE*%
X176784000Y-68650000D03*
%TD*%
D17*
%TO.P,D2,2*%
%TO.N,Net-(D2-Pad2)*%
X175190000Y-60650000D03*
D18*
%TO.P,D2,1*%
%TO.N,GND*%
X172650000Y-60650000D03*
%TD*%
D22*
%TO.P,ENC2,4*%
%TO.N,/_ENC2_SW*%
X194899360Y-100692560D03*
%TO.P,ENC2,5*%
%TO.N,/GND*%
X189900640Y-100692560D03*
D23*
%TO.P,ENC2,*%
X198600140Y-107692800D03*
X186199860Y-107692800D03*
D22*
%TO.P,ENC2,3*%
%TO.N,/_ENC2_A*%
X194899360Y-115193420D03*
%TO.P,ENC2,2*%
%TO.N,/GND*%
X192400000Y-115193420D03*
%TO.P,ENC2,1*%
%TO.N,/_ENC2_B*%
X189900640Y-115193420D03*
%TD*%
D27*
%TO.P,P1,1*%
%TO.N,/GND*%
X177400000Y-115312800D03*
D28*
%TO.P,P1,2*%
%TO.N,/_ENC2_B*%
X177400000Y-112772800D03*
%TO.P,P1,3*%
%TO.N,/_ENC2_A*%
X177400000Y-110232800D03*
%TO.P,P1,4*%
%TO.N,/_ENC2_SW*%
X177400000Y-107692800D03*
%TO.P,P1,5*%
%TO.N,/_ENC1_B*%
X177400000Y-105152800D03*
%TO.P,P1,6*%
%TO.N,/_ENC1_A*%
X177400000Y-102612800D03*
%TO.P,P1,7*%
%TO.N,/_ENC1_SW*%
X177400000Y-100072800D03*
%TD*%
D29*
%TO.N,/GND*%
G36*
X179606320Y-97906770D02*
X180018337Y-98182071D01*
X180146308Y-98235078D01*
X180274278Y-98288085D01*
X180760285Y-98384757D01*
X180830213Y-98384757D01*
X180898800Y-98398400D01*
X201702600Y-98398400D01*
X201702600Y-116968200D01*
X153110000Y-116968200D01*
X153110000Y-114912478D01*
X158515070Y-114912478D01*
X158515070Y-115474362D01*
X158620540Y-116004597D01*
X158920894Y-116454108D01*
X159370405Y-116754462D01*
X159900640Y-116859932D01*
X160430875Y-116754462D01*
X160880386Y-116454108D01*
X161147277Y-116054677D01*
X161150159Y-116065253D01*
X161483676Y-116496130D01*
X161956695Y-116766577D01*
X162058725Y-116785223D01*
X162273000Y-116662569D01*
X162273000Y-115320420D01*
X162253000Y-115320420D01*
X162253000Y-115066420D01*
X162273000Y-115066420D01*
X162273000Y-113724271D01*
X162527000Y-113724271D01*
X162527000Y-115066420D01*
X162547000Y-115066420D01*
X162547000Y-115320420D01*
X162527000Y-115320420D01*
X162527000Y-116662569D01*
X162741275Y-116785223D01*
X162843305Y-116766577D01*
X163316324Y-116496130D01*
X163649841Y-116065253D01*
X163652723Y-116054677D01*
X163919614Y-116454108D01*
X164369125Y-116754462D01*
X164899360Y-116859932D01*
X165429595Y-116754462D01*
X165879106Y-116454108D01*
X166179460Y-116004597D01*
X166260227Y-115598550D01*
X175665180Y-115598550D01*
X175665180Y-116201109D01*
X175761853Y-116434498D01*
X175940481Y-116613127D01*
X176173870Y-116709800D01*
X177114250Y-116709800D01*
X177273000Y-116551050D01*
X177273000Y-115439800D01*
X177527000Y-115439800D01*
X177527000Y-116551050D01*
X177685750Y-116709800D01*
X178626130Y-116709800D01*
X178859519Y-116613127D01*
X179038147Y-116434498D01*
X179134820Y-116201109D01*
X179134820Y-115598550D01*
X178976070Y-115439800D01*
X177527000Y-115439800D01*
X177273000Y-115439800D01*
X175823930Y-115439800D01*
X175665180Y-115598550D01*
X166260227Y-115598550D01*
X166284930Y-115474362D01*
X166284930Y-114912478D01*
X166179460Y-114382243D01*
X165879106Y-113932732D01*
X165429595Y-113632378D01*
X164899360Y-113526908D01*
X164369125Y-113632378D01*
X163919614Y-113932732D01*
X163652723Y-114332163D01*
X163649841Y-114321587D01*
X163316324Y-113890710D01*
X162843305Y-113620263D01*
X162741275Y-113601617D01*
X162527000Y-113724271D01*
X162273000Y-113724271D01*
X162058725Y-113601617D01*
X161956695Y-113620263D01*
X161483676Y-113890710D01*
X161150159Y-114321587D01*
X161147277Y-114332163D01*
X160880386Y-113932732D01*
X160430875Y-113632378D01*
X159900640Y-113526908D01*
X159370405Y-113632378D01*
X158920894Y-113932732D01*
X158620540Y-114382243D01*
X158515070Y-114912478D01*
X153110000Y-114912478D01*
X153110000Y-109387371D01*
X154684894Y-109387371D01*
X154875188Y-109732119D01*
X155756436Y-110083815D01*
X156705192Y-110071501D01*
X157524532Y-109732119D01*
X157714826Y-109387371D01*
X167085174Y-109387371D01*
X167275468Y-109732119D01*
X168156716Y-110083815D01*
X169105472Y-110071501D01*
X169924812Y-109732119D01*
X170115106Y-109387371D01*
X168600140Y-107872405D01*
X167085174Y-109387371D01*
X157714826Y-109387371D01*
X156199860Y-107872405D01*
X154684894Y-109387371D01*
X153110000Y-109387371D01*
X153110000Y-107249376D01*
X153808845Y-107249376D01*
X153821159Y-108198132D01*
X154160541Y-109017472D01*
X154505289Y-109207766D01*
X156020255Y-107692800D01*
X156379465Y-107692800D01*
X157894431Y-109207766D01*
X158239179Y-109017472D01*
X158590875Y-108136224D01*
X158579365Y-107249376D01*
X166209125Y-107249376D01*
X166221439Y-108198132D01*
X166560821Y-109017472D01*
X166905569Y-109207766D01*
X168420535Y-107692800D01*
X168779745Y-107692800D01*
X170294711Y-109207766D01*
X170639459Y-109017472D01*
X170991155Y-108136224D01*
X170978841Y-107187468D01*
X170639459Y-106368128D01*
X170294711Y-106177834D01*
X168779745Y-107692800D01*
X168420535Y-107692800D01*
X166905569Y-106177834D01*
X166560821Y-106368128D01*
X166209125Y-107249376D01*
X158579365Y-107249376D01*
X158578561Y-107187468D01*
X158239179Y-106368128D01*
X157894431Y-106177834D01*
X156379465Y-107692800D01*
X156020255Y-107692800D01*
X154505289Y-106177834D01*
X154160541Y-106368128D01*
X153808845Y-107249376D01*
X153110000Y-107249376D01*
X153110000Y-105998229D01*
X154684894Y-105998229D01*
X156199860Y-107513195D01*
X157714826Y-105998229D01*
X167085174Y-105998229D01*
X168600140Y-107513195D01*
X170115106Y-105998229D01*
X169924812Y-105653481D01*
X169043564Y-105301785D01*
X168094808Y-105314099D01*
X167275468Y-105653481D01*
X167085174Y-105998229D01*
X157714826Y-105998229D01*
X157524532Y-105653481D01*
X156643284Y-105301785D01*
X155694528Y-105314099D01*
X154875188Y-105653481D01*
X154684894Y-105998229D01*
X153110000Y-105998229D01*
X153110000Y-100411618D01*
X158515070Y-100411618D01*
X158515070Y-100973502D01*
X158620540Y-101503737D01*
X158920894Y-101953248D01*
X159370405Y-102253602D01*
X159900640Y-102359072D01*
X160430875Y-102253602D01*
X160880386Y-101953248D01*
X161180740Y-101503737D01*
X161273244Y-101038683D01*
X163506279Y-101038683D01*
X163649519Y-101564393D01*
X163983036Y-101995270D01*
X164456055Y-102265717D01*
X164558085Y-102284363D01*
X164772360Y-102161709D01*
X164772360Y-100819560D01*
X165026360Y-100819560D01*
X165026360Y-102161709D01*
X165240635Y-102284363D01*
X165342665Y-102265717D01*
X165815684Y-101995270D01*
X166149201Y-101564393D01*
X166292441Y-101038683D01*
X166131746Y-100819560D01*
X165026360Y-100819560D01*
X164772360Y-100819560D01*
X163666974Y-100819560D01*
X163506279Y-101038683D01*
X161273244Y-101038683D01*
X161286210Y-100973502D01*
X161286210Y-100411618D01*
X161273245Y-100346437D01*
X163506279Y-100346437D01*
X163666974Y-100565560D01*
X164772360Y-100565560D01*
X164772360Y-99223411D01*
X165026360Y-99223411D01*
X165026360Y-100565560D01*
X166131746Y-100565560D01*
X166292441Y-100346437D01*
X166217884Y-100072800D01*
X175631193Y-100072800D01*
X175737533Y-100607409D01*
X176040365Y-101060628D01*
X176462664Y-101342800D01*
X176040365Y-101624972D01*
X175737533Y-102078191D01*
X175631193Y-102612800D01*
X175737533Y-103147409D01*
X176040365Y-103600628D01*
X176462664Y-103882800D01*
X176040365Y-104164972D01*
X175737533Y-104618191D01*
X175631193Y-105152800D01*
X175737533Y-105687409D01*
X176040365Y-106140628D01*
X176462664Y-106422800D01*
X176040365Y-106704972D01*
X175737533Y-107158191D01*
X175631193Y-107692800D01*
X175737533Y-108227409D01*
X176040365Y-108680628D01*
X176462664Y-108962800D01*
X176040365Y-109244972D01*
X175737533Y-109698191D01*
X175631193Y-110232800D01*
X175737533Y-110767409D01*
X176040365Y-111220628D01*
X176462664Y-111502800D01*
X176040365Y-111784972D01*
X175737533Y-112238191D01*
X175631193Y-112772800D01*
X175737533Y-113307409D01*
X176040365Y-113760628D01*
X176272596Y-113915800D01*
X176173870Y-113915800D01*
X175940481Y-114012473D01*
X175761853Y-114191102D01*
X175665180Y-114424491D01*
X175665180Y-115027050D01*
X175823930Y-115185800D01*
X177273000Y-115185800D01*
X177273000Y-115165800D01*
X177527000Y-115165800D01*
X177527000Y-115185800D01*
X178976070Y-115185800D01*
X179134820Y-115027050D01*
X179134820Y-114912478D01*
X188515070Y-114912478D01*
X188515070Y-115474362D01*
X188620540Y-116004597D01*
X188920894Y-116454108D01*
X189370405Y-116754462D01*
X189900640Y-116859932D01*
X190430875Y-116754462D01*
X190880386Y-116454108D01*
X191147277Y-116054677D01*
X191150159Y-116065253D01*
X191483676Y-116496130D01*
X191956695Y-116766577D01*
X192058725Y-116785223D01*
X192273000Y-116662569D01*
X192273000Y-115320420D01*
X192253000Y-115320420D01*
X192253000Y-115066420D01*
X192273000Y-115066420D01*
X192273000Y-113724271D01*
X192527000Y-113724271D01*
X192527000Y-115066420D01*
X192547000Y-115066420D01*
X192547000Y-115320420D01*
X192527000Y-115320420D01*
X192527000Y-116662569D01*
X192741275Y-116785223D01*
X192843305Y-116766577D01*
X193316324Y-116496130D01*
X193649841Y-116065253D01*
X193652723Y-116054677D01*
X193919614Y-116454108D01*
X194369125Y-116754462D01*
X194899360Y-116859932D01*
X195429595Y-116754462D01*
X195879106Y-116454108D01*
X196179460Y-116004597D01*
X196284930Y-115474362D01*
X196284930Y-114912478D01*
X196179460Y-114382243D01*
X195879106Y-113932732D01*
X195429595Y-113632378D01*
X194899360Y-113526908D01*
X194369125Y-113632378D01*
X193919614Y-113932732D01*
X193652723Y-114332163D01*
X193649841Y-114321587D01*
X193316324Y-113890710D01*
X192843305Y-113620263D01*
X192741275Y-113601617D01*
X192527000Y-113724271D01*
X192273000Y-113724271D01*
X192058725Y-113601617D01*
X191956695Y-113620263D01*
X191483676Y-113890710D01*
X191150159Y-114321587D01*
X191147277Y-114332163D01*
X190880386Y-113932732D01*
X190430875Y-113632378D01*
X189900640Y-113526908D01*
X189370405Y-113632378D01*
X188920894Y-113932732D01*
X188620540Y-114382243D01*
X188515070Y-114912478D01*
X179134820Y-114912478D01*
X179134820Y-114424491D01*
X179038147Y-114191102D01*
X178859519Y-114012473D01*
X178626130Y-113915800D01*
X178527404Y-113915800D01*
X178759635Y-113760628D01*
X179062467Y-113307409D01*
X179168807Y-112772800D01*
X179062467Y-112238191D01*
X178759635Y-111784972D01*
X178337336Y-111502800D01*
X178759635Y-111220628D01*
X179062467Y-110767409D01*
X179168807Y-110232800D01*
X179062467Y-109698191D01*
X178854784Y-109387371D01*
X184684894Y-109387371D01*
X184875188Y-109732119D01*
X185756436Y-110083815D01*
X186705192Y-110071501D01*
X187524532Y-109732119D01*
X187714826Y-109387371D01*
X197085174Y-109387371D01*
X197275468Y-109732119D01*
X198156716Y-110083815D01*
X199105472Y-110071501D01*
X199924812Y-109732119D01*
X200115106Y-109387371D01*
X198600140Y-107872405D01*
X197085174Y-109387371D01*
X187714826Y-109387371D01*
X186199860Y-107872405D01*
X184684894Y-109387371D01*
X178854784Y-109387371D01*
X178759635Y-109244972D01*
X178337336Y-108962800D01*
X178759635Y-108680628D01*
X179062467Y-108227409D01*
X179168807Y-107692800D01*
X179080605Y-107249376D01*
X183808845Y-107249376D01*
X183821159Y-108198132D01*
X184160541Y-109017472D01*
X184505289Y-109207766D01*
X186020255Y-107692800D01*
X186379465Y-107692800D01*
X187894431Y-109207766D01*
X188239179Y-109017472D01*
X188590875Y-108136224D01*
X188579365Y-107249376D01*
X196209125Y-107249376D01*
X196221439Y-108198132D01*
X196560821Y-109017472D01*
X196905569Y-109207766D01*
X198420535Y-107692800D01*
X198779745Y-107692800D01*
X200294711Y-109207766D01*
X200639459Y-109017472D01*
X200991155Y-108136224D01*
X200978841Y-107187468D01*
X200639459Y-106368128D01*
X200294711Y-106177834D01*
X198779745Y-107692800D01*
X198420535Y-107692800D01*
X196905569Y-106177834D01*
X196560821Y-106368128D01*
X196209125Y-107249376D01*
X188579365Y-107249376D01*
X188578561Y-107187468D01*
X188239179Y-106368128D01*
X187894431Y-106177834D01*
X186379465Y-107692800D01*
X186020255Y-107692800D01*
X184505289Y-106177834D01*
X184160541Y-106368128D01*
X183808845Y-107249376D01*
X179080605Y-107249376D01*
X179062467Y-107158191D01*
X178759635Y-106704972D01*
X178337336Y-106422800D01*
X178759635Y-106140628D01*
X178854783Y-105998229D01*
X184684894Y-105998229D01*
X186199860Y-107513195D01*
X187714826Y-105998229D01*
X197085174Y-105998229D01*
X198600140Y-107513195D01*
X200115106Y-105998229D01*
X199924812Y-105653481D01*
X199043564Y-105301785D01*
X198094808Y-105314099D01*
X197275468Y-105653481D01*
X197085174Y-105998229D01*
X187714826Y-105998229D01*
X187524532Y-105653481D01*
X186643284Y-105301785D01*
X185694528Y-105314099D01*
X184875188Y-105653481D01*
X184684894Y-105998229D01*
X178854783Y-105998229D01*
X179062467Y-105687409D01*
X179168807Y-105152800D01*
X179062467Y-104618191D01*
X178759635Y-104164972D01*
X178337336Y-103882800D01*
X178759635Y-103600628D01*
X179062467Y-103147409D01*
X179168807Y-102612800D01*
X179062467Y-102078191D01*
X178759635Y-101624972D01*
X178337336Y-101342800D01*
X178759635Y-101060628D01*
X178774298Y-101038683D01*
X188507559Y-101038683D01*
X188650799Y-101564393D01*
X188984316Y-101995270D01*
X189457335Y-102265717D01*
X189559365Y-102284363D01*
X189773640Y-102161709D01*
X189773640Y-100819560D01*
X190027640Y-100819560D01*
X190027640Y-102161709D01*
X190241915Y-102284363D01*
X190343945Y-102265717D01*
X190816964Y-101995270D01*
X191150481Y-101564393D01*
X191293721Y-101038683D01*
X191133026Y-100819560D01*
X190027640Y-100819560D01*
X189773640Y-100819560D01*
X188668254Y-100819560D01*
X188507559Y-101038683D01*
X178774298Y-101038683D01*
X179062467Y-100607409D01*
X179114377Y-100346437D01*
X188507559Y-100346437D01*
X188668254Y-100565560D01*
X189773640Y-100565560D01*
X189773640Y-99223411D01*
X190027640Y-99223411D01*
X190027640Y-100565560D01*
X191133026Y-100565560D01*
X191245920Y-100411618D01*
X193513790Y-100411618D01*
X193513790Y-100973502D01*
X193619260Y-101503737D01*
X193919614Y-101953248D01*
X194369125Y-102253602D01*
X194899360Y-102359072D01*
X195429595Y-102253602D01*
X195879106Y-101953248D01*
X196179460Y-101503737D01*
X196284930Y-100973502D01*
X196284930Y-100411618D01*
X196179460Y-99881383D01*
X195879106Y-99431872D01*
X195429595Y-99131518D01*
X194899360Y-99026048D01*
X194369125Y-99131518D01*
X193919614Y-99431872D01*
X193619260Y-99881383D01*
X193513790Y-100411618D01*
X191245920Y-100411618D01*
X191293721Y-100346437D01*
X191150481Y-99820727D01*
X190816964Y-99389850D01*
X190343945Y-99119403D01*
X190241915Y-99100757D01*
X190027640Y-99223411D01*
X189773640Y-99223411D01*
X189559365Y-99100757D01*
X189457335Y-99119403D01*
X188984316Y-99389850D01*
X188650799Y-99820727D01*
X188507559Y-100346437D01*
X179114377Y-100346437D01*
X179168807Y-100072800D01*
X179062467Y-99538191D01*
X178759635Y-99084972D01*
X178306416Y-98782140D01*
X177771807Y-98675800D01*
X177028193Y-98675800D01*
X176493584Y-98782140D01*
X176040365Y-99084972D01*
X175737533Y-99538191D01*
X175631193Y-100072800D01*
X166217884Y-100072800D01*
X166149201Y-99820727D01*
X165815684Y-99389850D01*
X165342665Y-99119403D01*
X165240635Y-99100757D01*
X165026360Y-99223411D01*
X164772360Y-99223411D01*
X164558085Y-99100757D01*
X164456055Y-99119403D01*
X163983036Y-99389850D01*
X163649519Y-99820727D01*
X163506279Y-100346437D01*
X161273245Y-100346437D01*
X161180740Y-99881383D01*
X160880386Y-99431872D01*
X160430875Y-99131518D01*
X159900640Y-99026048D01*
X159370405Y-99131518D01*
X158920894Y-99431872D01*
X158620540Y-99881383D01*
X158515070Y-100411618D01*
X153110000Y-100411618D01*
X153110000Y-98398400D01*
X173888400Y-98398400D01*
X173956984Y-98384758D01*
X174026914Y-98384758D01*
X174512922Y-98288085D01*
X174662848Y-98225983D01*
X174768862Y-98182071D01*
X175180880Y-97906770D01*
X175267850Y-97819800D01*
X179519350Y-97819800D01*
X179606320Y-97906770D01*
X179606320Y-97906770D01*
G37*
X179606320Y-97906770D02*
X180018337Y-98182071D01*
X180146308Y-98235078D01*
X180274278Y-98288085D01*
X180760285Y-98384757D01*
X180830213Y-98384757D01*
X180898800Y-98398400D01*
X201702600Y-98398400D01*
X201702600Y-116968200D01*
X153110000Y-116968200D01*
X153110000Y-114912478D01*
X158515070Y-114912478D01*
X158515070Y-115474362D01*
X158620540Y-116004597D01*
X158920894Y-116454108D01*
X159370405Y-116754462D01*
X159900640Y-116859932D01*
X160430875Y-116754462D01*
X160880386Y-116454108D01*
X161147277Y-116054677D01*
X161150159Y-116065253D01*
X161483676Y-116496130D01*
X161956695Y-116766577D01*
X162058725Y-116785223D01*
X162273000Y-116662569D01*
X162273000Y-115320420D01*
X162253000Y-115320420D01*
X162253000Y-115066420D01*
X162273000Y-115066420D01*
X162273000Y-113724271D01*
X162527000Y-113724271D01*
X162527000Y-115066420D01*
X162547000Y-115066420D01*
X162547000Y-115320420D01*
X162527000Y-115320420D01*
X162527000Y-116662569D01*
X162741275Y-116785223D01*
X162843305Y-116766577D01*
X163316324Y-116496130D01*
X163649841Y-116065253D01*
X163652723Y-116054677D01*
X163919614Y-116454108D01*
X164369125Y-116754462D01*
X164899360Y-116859932D01*
X165429595Y-116754462D01*
X165879106Y-116454108D01*
X166179460Y-116004597D01*
X166260227Y-115598550D01*
X175665180Y-115598550D01*
X175665180Y-116201109D01*
X175761853Y-116434498D01*
X175940481Y-116613127D01*
X176173870Y-116709800D01*
X177114250Y-116709800D01*
X177273000Y-116551050D01*
X177273000Y-115439800D01*
X177527000Y-115439800D01*
X177527000Y-116551050D01*
X177685750Y-116709800D01*
X178626130Y-116709800D01*
X178859519Y-116613127D01*
X179038147Y-116434498D01*
X179134820Y-116201109D01*
X179134820Y-115598550D01*
X178976070Y-115439800D01*
X177527000Y-115439800D01*
X177273000Y-115439800D01*
X175823930Y-115439800D01*
X175665180Y-115598550D01*
X166260227Y-115598550D01*
X166284930Y-115474362D01*
X166284930Y-114912478D01*
X166179460Y-114382243D01*
X165879106Y-113932732D01*
X165429595Y-113632378D01*
X164899360Y-113526908D01*
X164369125Y-113632378D01*
X163919614Y-113932732D01*
X163652723Y-114332163D01*
X163649841Y-114321587D01*
X163316324Y-113890710D01*
X162843305Y-113620263D01*
X162741275Y-113601617D01*
X162527000Y-113724271D01*
X162273000Y-113724271D01*
X162058725Y-113601617D01*
X161956695Y-113620263D01*
X161483676Y-113890710D01*
X161150159Y-114321587D01*
X161147277Y-114332163D01*
X160880386Y-113932732D01*
X160430875Y-113632378D01*
X159900640Y-113526908D01*
X159370405Y-113632378D01*
X158920894Y-113932732D01*
X158620540Y-114382243D01*
X158515070Y-114912478D01*
X153110000Y-114912478D01*
X153110000Y-109387371D01*
X154684894Y-109387371D01*
X154875188Y-109732119D01*
X155756436Y-110083815D01*
X156705192Y-110071501D01*
X157524532Y-109732119D01*
X157714826Y-109387371D01*
X167085174Y-109387371D01*
X167275468Y-109732119D01*
X168156716Y-110083815D01*
X169105472Y-110071501D01*
X169924812Y-109732119D01*
X170115106Y-109387371D01*
X168600140Y-107872405D01*
X167085174Y-109387371D01*
X157714826Y-109387371D01*
X156199860Y-107872405D01*
X154684894Y-109387371D01*
X153110000Y-109387371D01*
X153110000Y-107249376D01*
X153808845Y-107249376D01*
X153821159Y-108198132D01*
X154160541Y-109017472D01*
X154505289Y-109207766D01*
X156020255Y-107692800D01*
X156379465Y-107692800D01*
X157894431Y-109207766D01*
X158239179Y-109017472D01*
X158590875Y-108136224D01*
X158579365Y-107249376D01*
X166209125Y-107249376D01*
X166221439Y-108198132D01*
X166560821Y-109017472D01*
X166905569Y-109207766D01*
X168420535Y-107692800D01*
X168779745Y-107692800D01*
X170294711Y-109207766D01*
X170639459Y-109017472D01*
X170991155Y-108136224D01*
X170978841Y-107187468D01*
X170639459Y-106368128D01*
X170294711Y-106177834D01*
X168779745Y-107692800D01*
X168420535Y-107692800D01*
X166905569Y-106177834D01*
X166560821Y-106368128D01*
X166209125Y-107249376D01*
X158579365Y-107249376D01*
X158578561Y-107187468D01*
X158239179Y-106368128D01*
X157894431Y-106177834D01*
X156379465Y-107692800D01*
X156020255Y-107692800D01*
X154505289Y-106177834D01*
X154160541Y-106368128D01*
X153808845Y-107249376D01*
X153110000Y-107249376D01*
X153110000Y-105998229D01*
X154684894Y-105998229D01*
X156199860Y-107513195D01*
X157714826Y-105998229D01*
X167085174Y-105998229D01*
X168600140Y-107513195D01*
X170115106Y-105998229D01*
X169924812Y-105653481D01*
X169043564Y-105301785D01*
X168094808Y-105314099D01*
X167275468Y-105653481D01*
X167085174Y-105998229D01*
X157714826Y-105998229D01*
X157524532Y-105653481D01*
X156643284Y-105301785D01*
X155694528Y-105314099D01*
X154875188Y-105653481D01*
X154684894Y-105998229D01*
X153110000Y-105998229D01*
X153110000Y-100411618D01*
X158515070Y-100411618D01*
X158515070Y-100973502D01*
X158620540Y-101503737D01*
X158920894Y-101953248D01*
X159370405Y-102253602D01*
X159900640Y-102359072D01*
X160430875Y-102253602D01*
X160880386Y-101953248D01*
X161180740Y-101503737D01*
X161273244Y-101038683D01*
X163506279Y-101038683D01*
X163649519Y-101564393D01*
X163983036Y-101995270D01*
X164456055Y-102265717D01*
X164558085Y-102284363D01*
X164772360Y-102161709D01*
X164772360Y-100819560D01*
X165026360Y-100819560D01*
X165026360Y-102161709D01*
X165240635Y-102284363D01*
X165342665Y-102265717D01*
X165815684Y-101995270D01*
X166149201Y-101564393D01*
X166292441Y-101038683D01*
X166131746Y-100819560D01*
X165026360Y-100819560D01*
X164772360Y-100819560D01*
X163666974Y-100819560D01*
X163506279Y-101038683D01*
X161273244Y-101038683D01*
X161286210Y-100973502D01*
X161286210Y-100411618D01*
X161273245Y-100346437D01*
X163506279Y-100346437D01*
X163666974Y-100565560D01*
X164772360Y-100565560D01*
X164772360Y-99223411D01*
X165026360Y-99223411D01*
X165026360Y-100565560D01*
X166131746Y-100565560D01*
X166292441Y-100346437D01*
X166217884Y-100072800D01*
X175631193Y-100072800D01*
X175737533Y-100607409D01*
X176040365Y-101060628D01*
X176462664Y-101342800D01*
X176040365Y-101624972D01*
X175737533Y-102078191D01*
X175631193Y-102612800D01*
X175737533Y-103147409D01*
X176040365Y-103600628D01*
X176462664Y-103882800D01*
X176040365Y-104164972D01*
X175737533Y-104618191D01*
X175631193Y-105152800D01*
X175737533Y-105687409D01*
X176040365Y-106140628D01*
X176462664Y-106422800D01*
X176040365Y-106704972D01*
X175737533Y-107158191D01*
X175631193Y-107692800D01*
X175737533Y-108227409D01*
X176040365Y-108680628D01*
X176462664Y-108962800D01*
X176040365Y-109244972D01*
X175737533Y-109698191D01*
X175631193Y-110232800D01*
X175737533Y-110767409D01*
X176040365Y-111220628D01*
X176462664Y-111502800D01*
X176040365Y-111784972D01*
X175737533Y-112238191D01*
X175631193Y-112772800D01*
X175737533Y-113307409D01*
X176040365Y-113760628D01*
X176272596Y-113915800D01*
X176173870Y-113915800D01*
X175940481Y-114012473D01*
X175761853Y-114191102D01*
X175665180Y-114424491D01*
X175665180Y-115027050D01*
X175823930Y-115185800D01*
X177273000Y-115185800D01*
X177273000Y-115165800D01*
X177527000Y-115165800D01*
X177527000Y-115185800D01*
X178976070Y-115185800D01*
X179134820Y-115027050D01*
X179134820Y-114912478D01*
X188515070Y-114912478D01*
X188515070Y-115474362D01*
X188620540Y-116004597D01*
X188920894Y-116454108D01*
X189370405Y-116754462D01*
X189900640Y-116859932D01*
X190430875Y-116754462D01*
X190880386Y-116454108D01*
X191147277Y-116054677D01*
X191150159Y-116065253D01*
X191483676Y-116496130D01*
X191956695Y-116766577D01*
X192058725Y-116785223D01*
X192273000Y-116662569D01*
X192273000Y-115320420D01*
X192253000Y-115320420D01*
X192253000Y-115066420D01*
X192273000Y-115066420D01*
X192273000Y-113724271D01*
X192527000Y-113724271D01*
X192527000Y-115066420D01*
X192547000Y-115066420D01*
X192547000Y-115320420D01*
X192527000Y-115320420D01*
X192527000Y-116662569D01*
X192741275Y-116785223D01*
X192843305Y-116766577D01*
X193316324Y-116496130D01*
X193649841Y-116065253D01*
X193652723Y-116054677D01*
X193919614Y-116454108D01*
X194369125Y-116754462D01*
X194899360Y-116859932D01*
X195429595Y-116754462D01*
X195879106Y-116454108D01*
X196179460Y-116004597D01*
X196284930Y-115474362D01*
X196284930Y-114912478D01*
X196179460Y-114382243D01*
X195879106Y-113932732D01*
X195429595Y-113632378D01*
X194899360Y-113526908D01*
X194369125Y-113632378D01*
X193919614Y-113932732D01*
X193652723Y-114332163D01*
X193649841Y-114321587D01*
X193316324Y-113890710D01*
X192843305Y-113620263D01*
X192741275Y-113601617D01*
X192527000Y-113724271D01*
X192273000Y-113724271D01*
X192058725Y-113601617D01*
X191956695Y-113620263D01*
X191483676Y-113890710D01*
X191150159Y-114321587D01*
X191147277Y-114332163D01*
X190880386Y-113932732D01*
X190430875Y-113632378D01*
X189900640Y-113526908D01*
X189370405Y-113632378D01*
X188920894Y-113932732D01*
X188620540Y-114382243D01*
X188515070Y-114912478D01*
X179134820Y-114912478D01*
X179134820Y-114424491D01*
X179038147Y-114191102D01*
X178859519Y-114012473D01*
X178626130Y-113915800D01*
X178527404Y-113915800D01*
X178759635Y-113760628D01*
X179062467Y-113307409D01*
X179168807Y-112772800D01*
X179062467Y-112238191D01*
X178759635Y-111784972D01*
X178337336Y-111502800D01*
X178759635Y-111220628D01*
X179062467Y-110767409D01*
X179168807Y-110232800D01*
X179062467Y-109698191D01*
X178854784Y-109387371D01*
X184684894Y-109387371D01*
X184875188Y-109732119D01*
X185756436Y-110083815D01*
X186705192Y-110071501D01*
X187524532Y-109732119D01*
X187714826Y-109387371D01*
X197085174Y-109387371D01*
X197275468Y-109732119D01*
X198156716Y-110083815D01*
X199105472Y-110071501D01*
X199924812Y-109732119D01*
X200115106Y-109387371D01*
X198600140Y-107872405D01*
X197085174Y-109387371D01*
X187714826Y-109387371D01*
X186199860Y-107872405D01*
X184684894Y-109387371D01*
X178854784Y-109387371D01*
X178759635Y-109244972D01*
X178337336Y-108962800D01*
X178759635Y-108680628D01*
X179062467Y-108227409D01*
X179168807Y-107692800D01*
X179080605Y-107249376D01*
X183808845Y-107249376D01*
X183821159Y-108198132D01*
X184160541Y-109017472D01*
X184505289Y-109207766D01*
X186020255Y-107692800D01*
X186379465Y-107692800D01*
X187894431Y-109207766D01*
X188239179Y-109017472D01*
X188590875Y-108136224D01*
X188579365Y-107249376D01*
X196209125Y-107249376D01*
X196221439Y-108198132D01*
X196560821Y-109017472D01*
X196905569Y-109207766D01*
X198420535Y-107692800D01*
X198779745Y-107692800D01*
X200294711Y-109207766D01*
X200639459Y-109017472D01*
X200991155Y-108136224D01*
X200978841Y-107187468D01*
X200639459Y-106368128D01*
X200294711Y-106177834D01*
X198779745Y-107692800D01*
X198420535Y-107692800D01*
X196905569Y-106177834D01*
X196560821Y-106368128D01*
X196209125Y-107249376D01*
X188579365Y-107249376D01*
X188578561Y-107187468D01*
X188239179Y-106368128D01*
X187894431Y-106177834D01*
X186379465Y-107692800D01*
X186020255Y-107692800D01*
X184505289Y-106177834D01*
X184160541Y-106368128D01*
X183808845Y-107249376D01*
X179080605Y-107249376D01*
X179062467Y-107158191D01*
X178759635Y-106704972D01*
X178337336Y-106422800D01*
X178759635Y-106140628D01*
X178854783Y-105998229D01*
X184684894Y-105998229D01*
X186199860Y-107513195D01*
X187714826Y-105998229D01*
X197085174Y-105998229D01*
X198600140Y-107513195D01*
X200115106Y-105998229D01*
X199924812Y-105653481D01*
X199043564Y-105301785D01*
X198094808Y-105314099D01*
X197275468Y-105653481D01*
X197085174Y-105998229D01*
X187714826Y-105998229D01*
X187524532Y-105653481D01*
X186643284Y-105301785D01*
X185694528Y-105314099D01*
X184875188Y-105653481D01*
X184684894Y-105998229D01*
X178854783Y-105998229D01*
X179062467Y-105687409D01*
X179168807Y-105152800D01*
X179062467Y-104618191D01*
X178759635Y-104164972D01*
X178337336Y-103882800D01*
X178759635Y-103600628D01*
X179062467Y-103147409D01*
X179168807Y-102612800D01*
X179062467Y-102078191D01*
X178759635Y-101624972D01*
X178337336Y-101342800D01*
X178759635Y-101060628D01*
X178774298Y-101038683D01*
X188507559Y-101038683D01*
X188650799Y-101564393D01*
X188984316Y-101995270D01*
X189457335Y-102265717D01*
X189559365Y-102284363D01*
X189773640Y-102161709D01*
X189773640Y-100819560D01*
X190027640Y-100819560D01*
X190027640Y-102161709D01*
X190241915Y-102284363D01*
X190343945Y-102265717D01*
X190816964Y-101995270D01*
X191150481Y-101564393D01*
X191293721Y-101038683D01*
X191133026Y-100819560D01*
X190027640Y-100819560D01*
X189773640Y-100819560D01*
X188668254Y-100819560D01*
X188507559Y-101038683D01*
X178774298Y-101038683D01*
X179062467Y-100607409D01*
X179114377Y-100346437D01*
X188507559Y-100346437D01*
X188668254Y-100565560D01*
X189773640Y-100565560D01*
X189773640Y-99223411D01*
X190027640Y-99223411D01*
X190027640Y-100565560D01*
X191133026Y-100565560D01*
X191245920Y-100411618D01*
X193513790Y-100411618D01*
X193513790Y-100973502D01*
X193619260Y-101503737D01*
X193919614Y-101953248D01*
X194369125Y-102253602D01*
X194899360Y-102359072D01*
X195429595Y-102253602D01*
X195879106Y-101953248D01*
X196179460Y-101503737D01*
X196284930Y-100973502D01*
X196284930Y-100411618D01*
X196179460Y-99881383D01*
X195879106Y-99431872D01*
X195429595Y-99131518D01*
X194899360Y-99026048D01*
X194369125Y-99131518D01*
X193919614Y-99431872D01*
X193619260Y-99881383D01*
X193513790Y-100411618D01*
X191245920Y-100411618D01*
X191293721Y-100346437D01*
X191150481Y-99820727D01*
X190816964Y-99389850D01*
X190343945Y-99119403D01*
X190241915Y-99100757D01*
X190027640Y-99223411D01*
X189773640Y-99223411D01*
X189559365Y-99100757D01*
X189457335Y-99119403D01*
X188984316Y-99389850D01*
X188650799Y-99820727D01*
X188507559Y-100346437D01*
X179114377Y-100346437D01*
X179168807Y-100072800D01*
X179062467Y-99538191D01*
X178759635Y-99084972D01*
X178306416Y-98782140D01*
X177771807Y-98675800D01*
X177028193Y-98675800D01*
X176493584Y-98782140D01*
X176040365Y-99084972D01*
X175737533Y-99538191D01*
X175631193Y-100072800D01*
X166217884Y-100072800D01*
X166149201Y-99820727D01*
X165815684Y-99389850D01*
X165342665Y-99119403D01*
X165240635Y-99100757D01*
X165026360Y-99223411D01*
X164772360Y-99223411D01*
X164558085Y-99100757D01*
X164456055Y-99119403D01*
X163983036Y-99389850D01*
X163649519Y-99820727D01*
X163506279Y-100346437D01*
X161273245Y-100346437D01*
X161180740Y-99881383D01*
X160880386Y-99431872D01*
X160430875Y-99131518D01*
X159900640Y-99026048D01*
X159370405Y-99131518D01*
X158920894Y-99431872D01*
X158620540Y-99881383D01*
X158515070Y-100411618D01*
X153110000Y-100411618D01*
X153110000Y-98398400D01*
X173888400Y-98398400D01*
X173956984Y-98384758D01*
X174026914Y-98384758D01*
X174512922Y-98288085D01*
X174662848Y-98225983D01*
X174768862Y-98182071D01*
X175180880Y-97906770D01*
X175267850Y-97819800D01*
X179519350Y-97819800D01*
X179606320Y-97906770D01*
%TO.N,GND*%
G36*
X201690000Y-94440000D02*
X180900000Y-94440000D01*
X180839456Y-94452043D01*
X180760285Y-94452043D01*
X180274278Y-94548715D01*
X180146308Y-94601722D01*
X180018337Y-94654729D01*
X179606320Y-94930030D01*
X179513350Y-95023000D01*
X175273850Y-95023000D01*
X175180880Y-94930030D01*
X174768862Y-94654729D01*
X174662848Y-94610817D01*
X174512922Y-94548715D01*
X174026914Y-94452042D01*
X173956984Y-94452042D01*
X173888400Y-94438400D01*
X153110000Y-94438400D01*
X153110000Y-92572815D01*
X153264630Y-92572815D01*
X153588980Y-93357800D01*
X154189041Y-93958909D01*
X154973459Y-94284628D01*
X155822815Y-94285370D01*
X156607800Y-93961020D01*
X157208909Y-93360959D01*
X157534628Y-92576541D01*
X157535370Y-91727185D01*
X157471586Y-91572815D01*
X197264630Y-91572815D01*
X197588980Y-92357800D01*
X198189041Y-92958909D01*
X198973459Y-93284628D01*
X199822815Y-93285370D01*
X200607800Y-92961020D01*
X201208909Y-92360959D01*
X201534628Y-91576541D01*
X201535370Y-90727185D01*
X201211020Y-89942200D01*
X200610959Y-89341091D01*
X199826541Y-89015372D01*
X198977185Y-89014630D01*
X198192200Y-89338980D01*
X197591091Y-89939041D01*
X197265372Y-90723459D01*
X197264630Y-91572815D01*
X157471586Y-91572815D01*
X157211020Y-90942200D01*
X156610959Y-90341091D01*
X155826541Y-90015372D01*
X154977185Y-90014630D01*
X154192200Y-90338980D01*
X153591091Y-90939041D01*
X153265372Y-91723459D01*
X153264630Y-92572815D01*
X153110000Y-92572815D01*
X153110000Y-88407745D01*
X157071861Y-88407745D01*
X157145995Y-88653864D01*
X157683223Y-88846965D01*
X158253454Y-88819778D01*
X158654005Y-88653864D01*
X158728139Y-88407745D01*
X157900000Y-87579605D01*
X157071861Y-88407745D01*
X153110000Y-88407745D01*
X153110000Y-87183223D01*
X156453035Y-87183223D01*
X156480222Y-87753454D01*
X156646136Y-88154005D01*
X156892255Y-88228139D01*
X157720395Y-87400000D01*
X158079605Y-87400000D01*
X158907745Y-88228139D01*
X159153864Y-88154005D01*
X159346965Y-87616777D01*
X159319778Y-87046546D01*
X159211103Y-86784180D01*
X164579560Y-86784180D01*
X164579560Y-88983820D01*
X164628843Y-89231585D01*
X164769191Y-89441629D01*
X164979235Y-89581977D01*
X165227000Y-89631260D01*
X166751000Y-89631260D01*
X166998765Y-89581977D01*
X167208809Y-89441629D01*
X167349157Y-89231585D01*
X167391358Y-89019423D01*
X167541172Y-89243635D01*
X167994391Y-89546467D01*
X168529000Y-89652807D01*
X169063609Y-89546467D01*
X169516828Y-89243635D01*
X169799000Y-88821336D01*
X170081172Y-89243635D01*
X170534391Y-89546467D01*
X171069000Y-89652807D01*
X171603609Y-89546467D01*
X172056828Y-89243635D01*
X172339000Y-88821336D01*
X172621172Y-89243635D01*
X173074391Y-89546467D01*
X173609000Y-89652807D01*
X174143609Y-89546467D01*
X174596828Y-89243635D01*
X174879000Y-88821336D01*
X175161172Y-89243635D01*
X175614391Y-89546467D01*
X176149000Y-89652807D01*
X176683609Y-89546467D01*
X177136828Y-89243635D01*
X177419000Y-88821336D01*
X177701172Y-89243635D01*
X178154391Y-89546467D01*
X178689000Y-89652807D01*
X179223609Y-89546467D01*
X179676828Y-89243635D01*
X179967647Y-88808394D01*
X179986941Y-88873761D01*
X180330974Y-89299450D01*
X180811723Y-89561080D01*
X180885930Y-89576040D01*
X181102000Y-89453540D01*
X181102000Y-88011000D01*
X181356000Y-88011000D01*
X181356000Y-89453540D01*
X181572070Y-89576040D01*
X181646277Y-89561080D01*
X182127026Y-89299450D01*
X182471059Y-88873761D01*
X182626000Y-88348820D01*
X182626000Y-88011000D01*
X181356000Y-88011000D01*
X181102000Y-88011000D01*
X181082000Y-88011000D01*
X181082000Y-87757000D01*
X181102000Y-87757000D01*
X181102000Y-86314460D01*
X181356000Y-86314460D01*
X181356000Y-87757000D01*
X182626000Y-87757000D01*
X182626000Y-87419180D01*
X182471059Y-86894239D01*
X182127026Y-86468550D01*
X181646277Y-86206920D01*
X181572070Y-86191960D01*
X181356000Y-86314460D01*
X181102000Y-86314460D01*
X180885930Y-86191960D01*
X180811723Y-86206920D01*
X180330974Y-86468550D01*
X179986941Y-86894239D01*
X179967647Y-86959606D01*
X179676828Y-86524365D01*
X179223609Y-86221533D01*
X178689000Y-86115193D01*
X178154391Y-86221533D01*
X177701172Y-86524365D01*
X177419000Y-86946664D01*
X177136828Y-86524365D01*
X176683609Y-86221533D01*
X176149000Y-86115193D01*
X175614391Y-86221533D01*
X175161172Y-86524365D01*
X174879000Y-86946664D01*
X174596828Y-86524365D01*
X174143609Y-86221533D01*
X173609000Y-86115193D01*
X173074391Y-86221533D01*
X172621172Y-86524365D01*
X172339000Y-86946664D01*
X172056828Y-86524365D01*
X171603609Y-86221533D01*
X171069000Y-86115193D01*
X170534391Y-86221533D01*
X170081172Y-86524365D01*
X169799000Y-86946664D01*
X169516828Y-86524365D01*
X169063609Y-86221533D01*
X168529000Y-86115193D01*
X167994391Y-86221533D01*
X167541172Y-86524365D01*
X167391358Y-86748577D01*
X167349157Y-86536415D01*
X167208809Y-86326371D01*
X166998765Y-86186023D01*
X166751000Y-86136740D01*
X165227000Y-86136740D01*
X164979235Y-86186023D01*
X164769191Y-86326371D01*
X164628843Y-86536415D01*
X164579560Y-86784180D01*
X159211103Y-86784180D01*
X159153864Y-86645995D01*
X158907745Y-86571861D01*
X158079605Y-87400000D01*
X157720395Y-87400000D01*
X156892255Y-86571861D01*
X156646136Y-86645995D01*
X156453035Y-87183223D01*
X153110000Y-87183223D01*
X153110000Y-84100000D01*
X156452560Y-84100000D01*
X156452560Y-85700000D01*
X156501843Y-85947765D01*
X156642191Y-86157809D01*
X156852235Y-86298157D01*
X157086187Y-86344693D01*
X157071861Y-86392255D01*
X157900000Y-87220395D01*
X158728139Y-86392255D01*
X158713813Y-86344693D01*
X158947765Y-86298157D01*
X159157809Y-86157809D01*
X159298157Y-85947765D01*
X159347440Y-85700000D01*
X159347440Y-84100000D01*
X159298157Y-83852235D01*
X159157809Y-83642191D01*
X158947765Y-83501843D01*
X158700000Y-83452560D01*
X157100000Y-83452560D01*
X156852235Y-83501843D01*
X156642191Y-83642191D01*
X156501843Y-83852235D01*
X156452560Y-84100000D01*
X153110000Y-84100000D01*
X153110000Y-80663970D01*
X155565635Y-80663970D01*
X155725418Y-80982739D01*
X156516187Y-81292723D01*
X157365387Y-81276497D01*
X158074582Y-80982739D01*
X158234365Y-80663970D01*
X158147158Y-80576763D01*
X164584430Y-80576763D01*
X164584430Y-81343237D01*
X164689900Y-81873472D01*
X164990254Y-82322983D01*
X165439765Y-82623337D01*
X165970000Y-82728807D01*
X166500235Y-82623337D01*
X166949746Y-82322983D01*
X167240000Y-81888588D01*
X167530254Y-82322983D01*
X167979765Y-82623337D01*
X168510000Y-82728807D01*
X169040235Y-82623337D01*
X169489746Y-82322983D01*
X169780000Y-81888588D01*
X170070254Y-82322983D01*
X170519765Y-82623337D01*
X171050000Y-82728807D01*
X171580235Y-82623337D01*
X172029746Y-82322983D01*
X172320000Y-81888588D01*
X172610254Y-82322983D01*
X173059765Y-82623337D01*
X173590000Y-82728807D01*
X174120235Y-82623337D01*
X174569746Y-82322983D01*
X174860000Y-81888588D01*
X175150254Y-82322983D01*
X175599765Y-82623337D01*
X176130000Y-82728807D01*
X176660235Y-82623337D01*
X177109746Y-82322983D01*
X177400000Y-81888588D01*
X177690254Y-82322983D01*
X178139765Y-82623337D01*
X178670000Y-82728807D01*
X179200235Y-82623337D01*
X179649746Y-82322983D01*
X179940000Y-81888588D01*
X180230254Y-82322983D01*
X180679765Y-82623337D01*
X181210000Y-82728807D01*
X181740235Y-82623337D01*
X182189746Y-82322983D01*
X182480000Y-81888588D01*
X182770254Y-82322983D01*
X183219765Y-82623337D01*
X183750000Y-82728807D01*
X184280235Y-82623337D01*
X184729746Y-82322983D01*
X185020000Y-81888588D01*
X185310254Y-82322983D01*
X185759765Y-82623337D01*
X186290000Y-82728807D01*
X186820235Y-82623337D01*
X187269746Y-82322983D01*
X187560000Y-81888588D01*
X187850254Y-82322983D01*
X188299765Y-82623337D01*
X188830000Y-82728807D01*
X189360235Y-82623337D01*
X189809746Y-82322983D01*
X190110100Y-81873472D01*
X190215570Y-81343237D01*
X190215570Y-80576763D01*
X190110100Y-80046528D01*
X189809746Y-79597017D01*
X189360235Y-79296663D01*
X188830000Y-79191193D01*
X188299765Y-79296663D01*
X187850254Y-79597017D01*
X187560000Y-80031412D01*
X187269746Y-79597017D01*
X186820235Y-79296663D01*
X186290000Y-79191193D01*
X185759765Y-79296663D01*
X185310254Y-79597017D01*
X185020000Y-80031412D01*
X184729746Y-79597017D01*
X184280235Y-79296663D01*
X183750000Y-79191193D01*
X183219765Y-79296663D01*
X182770254Y-79597017D01*
X182480000Y-80031412D01*
X182189746Y-79597017D01*
X181740235Y-79296663D01*
X181210000Y-79191193D01*
X180679765Y-79296663D01*
X180230254Y-79597017D01*
X179940000Y-80031412D01*
X179649746Y-79597017D01*
X179200235Y-79296663D01*
X178670000Y-79191193D01*
X178139765Y-79296663D01*
X177690254Y-79597017D01*
X177400000Y-80031412D01*
X177109746Y-79597017D01*
X176660235Y-79296663D01*
X176130000Y-79191193D01*
X175599765Y-79296663D01*
X175150254Y-79597017D01*
X174860000Y-80031412D01*
X174569746Y-79597017D01*
X174120235Y-79296663D01*
X173590000Y-79191193D01*
X173059765Y-79296663D01*
X172610254Y-79597017D01*
X172320000Y-80031412D01*
X172029746Y-79597017D01*
X171580235Y-79296663D01*
X171050000Y-79191193D01*
X170519765Y-79296663D01*
X170070254Y-79597017D01*
X169780000Y-80031412D01*
X169489746Y-79597017D01*
X169040235Y-79296663D01*
X168510000Y-79191193D01*
X167979765Y-79296663D01*
X167530254Y-79597017D01*
X167240000Y-80031412D01*
X166949746Y-79597017D01*
X166500235Y-79296663D01*
X165970000Y-79191193D01*
X165439765Y-79296663D01*
X164990254Y-79597017D01*
X164689900Y-80046528D01*
X164584430Y-80576763D01*
X158147158Y-80576763D01*
X156900000Y-79329605D01*
X155565635Y-80663970D01*
X153110000Y-80663970D01*
X153110000Y-78766187D01*
X154757277Y-78766187D01*
X154773503Y-79615387D01*
X155067261Y-80324582D01*
X155386030Y-80484365D01*
X156720395Y-79150000D01*
X157079605Y-79150000D01*
X158413970Y-80484365D01*
X158732739Y-80324582D01*
X159042723Y-79533813D01*
X159026497Y-78684613D01*
X158732739Y-77975418D01*
X158413970Y-77815635D01*
X157079605Y-79150000D01*
X156720395Y-79150000D01*
X155386030Y-77815635D01*
X155067261Y-77975418D01*
X154757277Y-78766187D01*
X153110000Y-78766187D01*
X153110000Y-77636030D01*
X155565635Y-77636030D01*
X156900000Y-78970395D01*
X158234365Y-77636030D01*
X158074582Y-77317261D01*
X157283813Y-77007277D01*
X156434613Y-77023503D01*
X155725418Y-77317261D01*
X155565635Y-77636030D01*
X153110000Y-77636030D01*
X153110000Y-74572815D01*
X154764630Y-74572815D01*
X155088980Y-75357800D01*
X155689041Y-75958909D01*
X156473459Y-76284628D01*
X157322815Y-76285370D01*
X158107800Y-75961020D01*
X158708909Y-75360959D01*
X159034628Y-74576541D01*
X159035370Y-73727185D01*
X158927864Y-73467000D01*
X164584430Y-73467000D01*
X164584430Y-73816250D01*
X164738501Y-74336817D01*
X165080056Y-74758798D01*
X165557097Y-75017950D01*
X165628725Y-75032133D01*
X165843000Y-74909479D01*
X165843000Y-73467000D01*
X164584430Y-73467000D01*
X158927864Y-73467000D01*
X158711020Y-72942200D01*
X158632707Y-72863750D01*
X164584430Y-72863750D01*
X164584430Y-73213000D01*
X165843000Y-73213000D01*
X165843000Y-71770521D01*
X166097000Y-71770521D01*
X166097000Y-73213000D01*
X166117000Y-73213000D01*
X166117000Y-73467000D01*
X166097000Y-73467000D01*
X166097000Y-74909479D01*
X166311275Y-75032133D01*
X166382903Y-75017950D01*
X166859944Y-74758798D01*
X167201499Y-74336817D01*
X167228399Y-74245928D01*
X167229900Y-74253472D01*
X167530254Y-74702983D01*
X167979765Y-75003337D01*
X168510000Y-75108807D01*
X169040235Y-75003337D01*
X169489746Y-74702983D01*
X169780000Y-74268588D01*
X170070254Y-74702983D01*
X170519765Y-75003337D01*
X171050000Y-75108807D01*
X171580235Y-75003337D01*
X172029746Y-74702983D01*
X172320000Y-74268588D01*
X172610254Y-74702983D01*
X173059765Y-75003337D01*
X173590000Y-75108807D01*
X174120235Y-75003337D01*
X174569746Y-74702983D01*
X174860000Y-74268588D01*
X175150254Y-74702983D01*
X175599765Y-75003337D01*
X176130000Y-75108807D01*
X176660235Y-75003337D01*
X177109746Y-74702983D01*
X177400000Y-74268588D01*
X177690254Y-74702983D01*
X178139765Y-75003337D01*
X178670000Y-75108807D01*
X179200235Y-75003337D01*
X179649746Y-74702983D01*
X179940000Y-74268588D01*
X180230254Y-74702983D01*
X180679765Y-75003337D01*
X181210000Y-75108807D01*
X181740235Y-75003337D01*
X182189746Y-74702983D01*
X182480000Y-74268588D01*
X182770254Y-74702983D01*
X183219765Y-75003337D01*
X183750000Y-75108807D01*
X184280235Y-75003337D01*
X184729746Y-74702983D01*
X185020000Y-74268588D01*
X185310254Y-74702983D01*
X185759765Y-75003337D01*
X186290000Y-75108807D01*
X186820235Y-75003337D01*
X187269746Y-74702983D01*
X187560000Y-74268588D01*
X187850254Y-74702983D01*
X188299765Y-75003337D01*
X188830000Y-75108807D01*
X189360235Y-75003337D01*
X189809746Y-74702983D01*
X190110100Y-74253472D01*
X190215570Y-73723237D01*
X190215570Y-72956763D01*
X190110100Y-72426528D01*
X189898603Y-72110000D01*
X193712968Y-72110000D01*
X193818395Y-72640017D01*
X194118625Y-73089343D01*
X194553624Y-73380000D01*
X194118625Y-73670657D01*
X193818395Y-74119983D01*
X193712968Y-74650000D01*
X193818395Y-75180017D01*
X194118625Y-75629343D01*
X194553624Y-75920000D01*
X194118625Y-76210657D01*
X193818395Y-76659983D01*
X193712968Y-77190000D01*
X193818395Y-77720017D01*
X194118625Y-78169343D01*
X194553624Y-78460000D01*
X194118625Y-78750657D01*
X193818395Y-79199983D01*
X193712968Y-79730000D01*
X193818395Y-80260017D01*
X194118625Y-80709343D01*
X194567951Y-81009573D01*
X195097968Y-81115000D01*
X195662032Y-81115000D01*
X196192049Y-81009573D01*
X196641375Y-80709343D01*
X196916865Y-80297043D01*
X197117264Y-80646894D01*
X197548279Y-80979964D01*
X198073945Y-81122739D01*
X198293000Y-80961868D01*
X198293000Y-79857000D01*
X198547000Y-79857000D01*
X198547000Y-80961868D01*
X198766055Y-81122739D01*
X199291721Y-80979964D01*
X199722736Y-80646894D01*
X199993481Y-80174235D01*
X200012318Y-80071185D01*
X199889656Y-79857000D01*
X198547000Y-79857000D01*
X198293000Y-79857000D01*
X198273000Y-79857000D01*
X198273000Y-79603000D01*
X198293000Y-79603000D01*
X198293000Y-78498132D01*
X198241076Y-78460000D01*
X198293000Y-78421868D01*
X198293000Y-77317000D01*
X198547000Y-77317000D01*
X198547000Y-78421868D01*
X198598924Y-78460000D01*
X198547000Y-78498132D01*
X198547000Y-79603000D01*
X199889656Y-79603000D01*
X200012318Y-79388815D01*
X199993481Y-79285765D01*
X199722736Y-78813106D01*
X199291721Y-78480036D01*
X199217953Y-78460000D01*
X199291721Y-78439964D01*
X199722736Y-78106894D01*
X199993481Y-77634235D01*
X200012318Y-77531185D01*
X199889656Y-77317000D01*
X198547000Y-77317000D01*
X198293000Y-77317000D01*
X198273000Y-77317000D01*
X198273000Y-77063000D01*
X198293000Y-77063000D01*
X198293000Y-75958132D01*
X198241076Y-75920000D01*
X198293000Y-75881868D01*
X198293000Y-74777000D01*
X198547000Y-74777000D01*
X198547000Y-75881868D01*
X198598924Y-75920000D01*
X198547000Y-75958132D01*
X198547000Y-77063000D01*
X199889656Y-77063000D01*
X200012318Y-76848815D01*
X199993481Y-76745765D01*
X199722736Y-76273106D01*
X199291721Y-75940036D01*
X199217953Y-75920000D01*
X199291721Y-75899964D01*
X199722736Y-75566894D01*
X199993481Y-75094235D01*
X200012318Y-74991185D01*
X199889656Y-74777000D01*
X198547000Y-74777000D01*
X198293000Y-74777000D01*
X198273000Y-74777000D01*
X198273000Y-74523000D01*
X198293000Y-74523000D01*
X198293000Y-73418132D01*
X198241076Y-73380000D01*
X198293000Y-73341868D01*
X198293000Y-72237000D01*
X198547000Y-72237000D01*
X198547000Y-73341868D01*
X198598924Y-73380000D01*
X198547000Y-73418132D01*
X198547000Y-74523000D01*
X199889656Y-74523000D01*
X200012318Y-74308815D01*
X199993481Y-74205765D01*
X199722736Y-73733106D01*
X199291721Y-73400036D01*
X199217953Y-73380000D01*
X199291721Y-73359964D01*
X199722736Y-73026894D01*
X199993481Y-72554235D01*
X200012318Y-72451185D01*
X199889656Y-72237000D01*
X198547000Y-72237000D01*
X198293000Y-72237000D01*
X198273000Y-72237000D01*
X198273000Y-71983000D01*
X198293000Y-71983000D01*
X198293000Y-71963000D01*
X198547000Y-71963000D01*
X198547000Y-71983000D01*
X199889656Y-71983000D01*
X200012318Y-71768815D01*
X199993481Y-71665765D01*
X199722736Y-71193106D01*
X199291721Y-70860036D01*
X199238161Y-70845489D01*
X199681375Y-70549343D01*
X199981605Y-70100017D01*
X200087032Y-69570000D01*
X199981605Y-69039983D01*
X199681375Y-68590657D01*
X199232049Y-68290427D01*
X198702032Y-68185000D01*
X198137968Y-68185000D01*
X197607951Y-68290427D01*
X197158625Y-68590657D01*
X197022380Y-68794562D01*
X196978157Y-68572235D01*
X196837809Y-68362191D01*
X196627765Y-68221843D01*
X196380000Y-68172560D01*
X194380000Y-68172560D01*
X194132235Y-68221843D01*
X193922191Y-68362191D01*
X193781843Y-68572235D01*
X193732560Y-68820000D01*
X193732560Y-70320000D01*
X193781843Y-70567765D01*
X193922191Y-70777809D01*
X194132235Y-70918157D01*
X194366820Y-70964818D01*
X194118625Y-71130657D01*
X193818395Y-71579983D01*
X193712968Y-72110000D01*
X189898603Y-72110000D01*
X189809746Y-71977017D01*
X189360235Y-71676663D01*
X188830000Y-71571193D01*
X188299765Y-71676663D01*
X187850254Y-71977017D01*
X187560000Y-72411412D01*
X187269746Y-71977017D01*
X186820235Y-71676663D01*
X186290000Y-71571193D01*
X185759765Y-71676663D01*
X185310254Y-71977017D01*
X185020000Y-72411412D01*
X184729746Y-71977017D01*
X184280235Y-71676663D01*
X183750000Y-71571193D01*
X183219765Y-71676663D01*
X182770254Y-71977017D01*
X182480000Y-72411412D01*
X182189746Y-71977017D01*
X181740235Y-71676663D01*
X181210000Y-71571193D01*
X180679765Y-71676663D01*
X180230254Y-71977017D01*
X179940000Y-72411412D01*
X179649746Y-71977017D01*
X179200235Y-71676663D01*
X178670000Y-71571193D01*
X178139765Y-71676663D01*
X177690254Y-71977017D01*
X177400000Y-72411412D01*
X177109746Y-71977017D01*
X176660235Y-71676663D01*
X176130000Y-71571193D01*
X175599765Y-71676663D01*
X175150254Y-71977017D01*
X174860000Y-72411412D01*
X174569746Y-71977017D01*
X174120235Y-71676663D01*
X173590000Y-71571193D01*
X173059765Y-71676663D01*
X172610254Y-71977017D01*
X172320000Y-72411412D01*
X172029746Y-71977017D01*
X171580235Y-71676663D01*
X171050000Y-71571193D01*
X170519765Y-71676663D01*
X170070254Y-71977017D01*
X169780000Y-72411412D01*
X169489746Y-71977017D01*
X169040235Y-71676663D01*
X168510000Y-71571193D01*
X167979765Y-71676663D01*
X167530254Y-71977017D01*
X167229900Y-72426528D01*
X167228399Y-72434072D01*
X167201499Y-72343183D01*
X166859944Y-71921202D01*
X166382903Y-71662050D01*
X166311275Y-71647867D01*
X166097000Y-71770521D01*
X165843000Y-71770521D01*
X165628725Y-71647867D01*
X165557097Y-71662050D01*
X165080056Y-71921202D01*
X164738501Y-72343183D01*
X164584430Y-72863750D01*
X158632707Y-72863750D01*
X158110959Y-72341091D01*
X157326541Y-72015372D01*
X156477185Y-72014630D01*
X155692200Y-72338980D01*
X155091091Y-72939041D01*
X154765372Y-73723459D01*
X154764630Y-74572815D01*
X153110000Y-74572815D01*
X153110000Y-69407745D01*
X157071861Y-69407745D01*
X157145995Y-69653864D01*
X157683223Y-69846965D01*
X158253454Y-69819778D01*
X158654005Y-69653864D01*
X158728139Y-69407745D01*
X157900000Y-68579605D01*
X157071861Y-69407745D01*
X153110000Y-69407745D01*
X153110000Y-68183223D01*
X156453035Y-68183223D01*
X156480222Y-68753454D01*
X156646136Y-69154005D01*
X156892255Y-69228139D01*
X157720395Y-68400000D01*
X158079605Y-68400000D01*
X158907745Y-69228139D01*
X159153864Y-69154005D01*
X159232875Y-68934187D01*
X165188752Y-68934187D01*
X165406757Y-69461800D01*
X165810077Y-69865824D01*
X166337309Y-70084750D01*
X166908187Y-70085248D01*
X167435800Y-69867243D01*
X167839824Y-69463923D01*
X168058750Y-68936691D01*
X168059000Y-68650000D01*
X175320887Y-68650000D01*
X175430120Y-69199151D01*
X175741189Y-69664698D01*
X176206736Y-69975767D01*
X176755887Y-70085000D01*
X176812113Y-70085000D01*
X177361264Y-69975767D01*
X177826811Y-69664698D01*
X178051592Y-69328290D01*
X178106757Y-69461800D01*
X178510077Y-69865824D01*
X179037309Y-70084750D01*
X179608187Y-70085248D01*
X180135800Y-69867243D01*
X180539824Y-69463923D01*
X180758750Y-68936691D01*
X180759000Y-68650000D01*
X188020887Y-68650000D01*
X188130120Y-69199151D01*
X188441189Y-69664698D01*
X188906736Y-69975767D01*
X189455887Y-70085000D01*
X189512113Y-70085000D01*
X190061264Y-69975767D01*
X190526811Y-69664698D01*
X190837880Y-69199151D01*
X190947113Y-68650000D01*
X190837880Y-68100849D01*
X190526811Y-67635302D01*
X190061264Y-67324233D01*
X189512113Y-67215000D01*
X189455887Y-67215000D01*
X188906736Y-67324233D01*
X188441189Y-67635302D01*
X188130120Y-68100849D01*
X188020887Y-68650000D01*
X180759000Y-68650000D01*
X180759248Y-68365813D01*
X180541243Y-67838200D01*
X180137923Y-67434176D01*
X179610691Y-67215250D01*
X179039813Y-67214752D01*
X178512200Y-67432757D01*
X178108176Y-67836077D01*
X178051755Y-67971954D01*
X177826811Y-67635302D01*
X177361264Y-67324233D01*
X176812113Y-67215000D01*
X176755887Y-67215000D01*
X176206736Y-67324233D01*
X175741189Y-67635302D01*
X175430120Y-68100849D01*
X175320887Y-68650000D01*
X168059000Y-68650000D01*
X168059248Y-68365813D01*
X167841243Y-67838200D01*
X167437923Y-67434176D01*
X166910691Y-67215250D01*
X166339813Y-67214752D01*
X165812200Y-67432757D01*
X165408176Y-67836077D01*
X165189250Y-68363309D01*
X165188752Y-68934187D01*
X159232875Y-68934187D01*
X159346965Y-68616777D01*
X159319778Y-68046546D01*
X159153864Y-67645995D01*
X158907745Y-67571861D01*
X158079605Y-68400000D01*
X157720395Y-68400000D01*
X156892255Y-67571861D01*
X156646136Y-67645995D01*
X156453035Y-68183223D01*
X153110000Y-68183223D01*
X153110000Y-65100000D01*
X156452560Y-65100000D01*
X156452560Y-66700000D01*
X156501843Y-66947765D01*
X156642191Y-67157809D01*
X156852235Y-67298157D01*
X157086187Y-67344693D01*
X157071861Y-67392255D01*
X157900000Y-68220395D01*
X158728139Y-67392255D01*
X158713813Y-67344693D01*
X158947765Y-67298157D01*
X159157809Y-67157809D01*
X159298157Y-66947765D01*
X159347440Y-66700000D01*
X159347440Y-65434187D01*
X165188752Y-65434187D01*
X165406757Y-65961800D01*
X165810077Y-66365824D01*
X166337309Y-66584750D01*
X166908187Y-66585248D01*
X167435800Y-66367243D01*
X167839824Y-65963923D01*
X168058750Y-65436691D01*
X168059000Y-65150000D01*
X175320887Y-65150000D01*
X175430120Y-65699151D01*
X175741189Y-66164698D01*
X176206736Y-66475767D01*
X176755887Y-66585000D01*
X176812113Y-66585000D01*
X177361264Y-66475767D01*
X177826811Y-66164698D01*
X178137880Y-65699151D01*
X178247113Y-65150000D01*
X178137880Y-64600849D01*
X177826811Y-64135302D01*
X177361264Y-63824233D01*
X176812113Y-63715000D01*
X176755887Y-63715000D01*
X176206736Y-63824233D01*
X175741189Y-64135302D01*
X175430120Y-64600849D01*
X175320887Y-65150000D01*
X168059000Y-65150000D01*
X168059248Y-64865813D01*
X167841243Y-64338200D01*
X167437923Y-63934176D01*
X166910691Y-63715250D01*
X166339813Y-63714752D01*
X165812200Y-63932757D01*
X165408176Y-64336077D01*
X165189250Y-64863309D01*
X165188752Y-65434187D01*
X159347440Y-65434187D01*
X159347440Y-65100000D01*
X159298157Y-64852235D01*
X159157809Y-64642191D01*
X158947765Y-64501843D01*
X158700000Y-64452560D01*
X157100000Y-64452560D01*
X156852235Y-64501843D01*
X156642191Y-64642191D01*
X156501843Y-64852235D01*
X156452560Y-65100000D01*
X153110000Y-65100000D01*
X153110000Y-60572815D01*
X153264630Y-60572815D01*
X153588980Y-61357800D01*
X154189041Y-61958909D01*
X154973459Y-62284628D01*
X155822815Y-62285370D01*
X156607800Y-61961020D01*
X157208909Y-61360959D01*
X157534628Y-60576541D01*
X157534913Y-60250000D01*
X160852560Y-60250000D01*
X160852560Y-62050000D01*
X160901843Y-62297765D01*
X161042191Y-62507809D01*
X161252235Y-62648157D01*
X161500000Y-62697440D01*
X163300000Y-62697440D01*
X163547765Y-62648157D01*
X163757809Y-62507809D01*
X163898157Y-62297765D01*
X163907359Y-62251502D01*
X164032424Y-62387966D01*
X164575258Y-62641046D01*
X164813000Y-62520997D01*
X164813000Y-61277000D01*
X164793000Y-61277000D01*
X164793000Y-61023000D01*
X164813000Y-61023000D01*
X164813000Y-59779003D01*
X165067000Y-59779003D01*
X165067000Y-61023000D01*
X165087000Y-61023000D01*
X165087000Y-61277000D01*
X165067000Y-61277000D01*
X165067000Y-62520997D01*
X165304742Y-62641046D01*
X165847576Y-62387966D01*
X166205499Y-61997418D01*
X166364519Y-62235409D01*
X166862509Y-62568155D01*
X167449928Y-62685000D01*
X167510072Y-62685000D01*
X168097491Y-62568155D01*
X168595481Y-62235409D01*
X168928227Y-61737419D01*
X169045072Y-61150000D01*
X169002455Y-60935750D01*
X171115000Y-60935750D01*
X171115000Y-61676310D01*
X171211673Y-61909699D01*
X171390302Y-62088327D01*
X171623691Y-62185000D01*
X172364250Y-62185000D01*
X172523000Y-62026250D01*
X172523000Y-60777000D01*
X171273750Y-60777000D01*
X171115000Y-60935750D01*
X169002455Y-60935750D01*
X168928227Y-60562581D01*
X168595481Y-60064591D01*
X168097491Y-59731845D01*
X167553760Y-59623690D01*
X171115000Y-59623690D01*
X171115000Y-60364250D01*
X171273750Y-60523000D01*
X172523000Y-60523000D01*
X172523000Y-59273750D01*
X172777000Y-59273750D01*
X172777000Y-60523000D01*
X172797000Y-60523000D01*
X172797000Y-60777000D01*
X172777000Y-60777000D01*
X172777000Y-62026250D01*
X172935750Y-62185000D01*
X173676309Y-62185000D01*
X173909698Y-62088327D01*
X174088327Y-61909699D01*
X174144119Y-61775006D01*
X174319357Y-61950551D01*
X174883330Y-62184733D01*
X175493991Y-62185265D01*
X176058371Y-61952068D01*
X176490551Y-61520643D01*
X176724733Y-60956670D01*
X176724735Y-60953991D01*
X179324735Y-60953991D01*
X179557932Y-61518371D01*
X179989357Y-61950551D01*
X180553330Y-62184733D01*
X181163991Y-62185265D01*
X181728371Y-61952068D01*
X181905841Y-61774908D01*
X181961673Y-61909699D01*
X182140302Y-62088327D01*
X182373691Y-62185000D01*
X183114250Y-62185000D01*
X183273000Y-62026250D01*
X183273000Y-60777000D01*
X183527000Y-60777000D01*
X183527000Y-62026250D01*
X183685750Y-62185000D01*
X184426309Y-62185000D01*
X184659698Y-62088327D01*
X184838327Y-61909699D01*
X184935000Y-61676310D01*
X184935000Y-60935750D01*
X184911810Y-60912560D01*
X187007500Y-60912560D01*
X187007500Y-61515440D01*
X187091992Y-61940211D01*
X187332606Y-62300314D01*
X187692709Y-62540928D01*
X188117480Y-62625420D01*
X188542251Y-62540928D01*
X188742320Y-62407246D01*
X188942389Y-62540928D01*
X189367160Y-62625420D01*
X189791931Y-62540928D01*
X189992000Y-62407246D01*
X190192069Y-62540928D01*
X190616840Y-62625420D01*
X191041611Y-62540928D01*
X191074182Y-62519165D01*
X191265231Y-62598300D01*
X191580770Y-62598300D01*
X191739520Y-62439550D01*
X191739520Y-61341000D01*
X191993520Y-61341000D01*
X191993520Y-62439550D01*
X192152270Y-62598300D01*
X192467809Y-62598300D01*
X192701198Y-62501627D01*
X192879827Y-62322999D01*
X192976500Y-62089610D01*
X192976500Y-61499750D01*
X192817750Y-61341000D01*
X191993520Y-61341000D01*
X191739520Y-61341000D01*
X191726820Y-61341000D01*
X191726820Y-61087000D01*
X191739520Y-61087000D01*
X191739520Y-59988450D01*
X191993520Y-59988450D01*
X191993520Y-61087000D01*
X192817750Y-61087000D01*
X192976500Y-60928250D01*
X192976500Y-60572815D01*
X197264630Y-60572815D01*
X197588980Y-61357800D01*
X198189041Y-61958909D01*
X198973459Y-62284628D01*
X199822815Y-62285370D01*
X200607800Y-61961020D01*
X201208909Y-61360959D01*
X201534628Y-60576541D01*
X201535370Y-59727185D01*
X201211020Y-58942200D01*
X200610959Y-58341091D01*
X199826541Y-58015372D01*
X198977185Y-58014630D01*
X198192200Y-58338980D01*
X197591091Y-58939041D01*
X197265372Y-59723459D01*
X197264630Y-60572815D01*
X192976500Y-60572815D01*
X192976500Y-60338390D01*
X192879827Y-60105001D01*
X192701198Y-59926373D01*
X192467809Y-59829700D01*
X192152270Y-59829700D01*
X191993520Y-59988450D01*
X191739520Y-59988450D01*
X191580770Y-59829700D01*
X191265231Y-59829700D01*
X191074182Y-59908835D01*
X191041611Y-59887072D01*
X190616840Y-59802580D01*
X190192069Y-59887072D01*
X189992000Y-60020754D01*
X189791931Y-59887072D01*
X189367160Y-59802580D01*
X188942389Y-59887072D01*
X188742320Y-60020754D01*
X188542251Y-59887072D01*
X188117480Y-59802580D01*
X187692709Y-59887072D01*
X187332606Y-60127686D01*
X187091992Y-60487789D01*
X187007500Y-60912560D01*
X184911810Y-60912560D01*
X184776250Y-60777000D01*
X183527000Y-60777000D01*
X183273000Y-60777000D01*
X183253000Y-60777000D01*
X183253000Y-60523000D01*
X183273000Y-60523000D01*
X183273000Y-59273750D01*
X183527000Y-59273750D01*
X183527000Y-60523000D01*
X184776250Y-60523000D01*
X184935000Y-60364250D01*
X184935000Y-59623690D01*
X184838327Y-59390301D01*
X184659698Y-59211673D01*
X184426309Y-59115000D01*
X183685750Y-59115000D01*
X183527000Y-59273750D01*
X183273000Y-59273750D01*
X183114250Y-59115000D01*
X182373691Y-59115000D01*
X182140302Y-59211673D01*
X181961673Y-59390301D01*
X181905881Y-59524994D01*
X181730643Y-59349449D01*
X181166670Y-59115267D01*
X180556009Y-59114735D01*
X179991629Y-59347932D01*
X179559449Y-59779357D01*
X179325267Y-60343330D01*
X179324735Y-60953991D01*
X176724735Y-60953991D01*
X176725265Y-60346009D01*
X176492068Y-59781629D01*
X176060643Y-59349449D01*
X175496670Y-59115267D01*
X174886009Y-59114735D01*
X174321629Y-59347932D01*
X174144159Y-59525092D01*
X174088327Y-59390301D01*
X173909698Y-59211673D01*
X173676309Y-59115000D01*
X172935750Y-59115000D01*
X172777000Y-59273750D01*
X172523000Y-59273750D01*
X172364250Y-59115000D01*
X171623691Y-59115000D01*
X171390302Y-59211673D01*
X171211673Y-59390301D01*
X171115000Y-59623690D01*
X167553760Y-59623690D01*
X167510072Y-59615000D01*
X167449928Y-59615000D01*
X166862509Y-59731845D01*
X166364519Y-60064591D01*
X166205499Y-60302582D01*
X165847576Y-59912034D01*
X165304742Y-59658954D01*
X165067000Y-59779003D01*
X164813000Y-59779003D01*
X164575258Y-59658954D01*
X164032424Y-59912034D01*
X163907359Y-60048498D01*
X163898157Y-60002235D01*
X163757809Y-59792191D01*
X163547765Y-59651843D01*
X163300000Y-59602560D01*
X161500000Y-59602560D01*
X161252235Y-59651843D01*
X161042191Y-59792191D01*
X160901843Y-60002235D01*
X160852560Y-60250000D01*
X157534913Y-60250000D01*
X157535370Y-59727185D01*
X157211020Y-58942200D01*
X156610959Y-58341091D01*
X155826541Y-58015372D01*
X154977185Y-58014630D01*
X154192200Y-58338980D01*
X153591091Y-58939041D01*
X153265372Y-59723459D01*
X153264630Y-60572815D01*
X153110000Y-60572815D01*
X153110000Y-57860000D01*
X201690000Y-57860000D01*
X201690000Y-94440000D01*
X201690000Y-94440000D01*
G37*
X201690000Y-94440000D02*
X180900000Y-94440000D01*
X180839456Y-94452043D01*
X180760285Y-94452043D01*
X180274278Y-94548715D01*
X180146308Y-94601722D01*
X180018337Y-94654729D01*
X179606320Y-94930030D01*
X179513350Y-95023000D01*
X175273850Y-95023000D01*
X175180880Y-94930030D01*
X174768862Y-94654729D01*
X174662848Y-94610817D01*
X174512922Y-94548715D01*
X174026914Y-94452042D01*
X173956984Y-94452042D01*
X173888400Y-94438400D01*
X153110000Y-94438400D01*
X153110000Y-92572815D01*
X153264630Y-92572815D01*
X153588980Y-93357800D01*
X154189041Y-93958909D01*
X154973459Y-94284628D01*
X155822815Y-94285370D01*
X156607800Y-93961020D01*
X157208909Y-93360959D01*
X157534628Y-92576541D01*
X157535370Y-91727185D01*
X157471586Y-91572815D01*
X197264630Y-91572815D01*
X197588980Y-92357800D01*
X198189041Y-92958909D01*
X198973459Y-93284628D01*
X199822815Y-93285370D01*
X200607800Y-92961020D01*
X201208909Y-92360959D01*
X201534628Y-91576541D01*
X201535370Y-90727185D01*
X201211020Y-89942200D01*
X200610959Y-89341091D01*
X199826541Y-89015372D01*
X198977185Y-89014630D01*
X198192200Y-89338980D01*
X197591091Y-89939041D01*
X197265372Y-90723459D01*
X197264630Y-91572815D01*
X157471586Y-91572815D01*
X157211020Y-90942200D01*
X156610959Y-90341091D01*
X155826541Y-90015372D01*
X154977185Y-90014630D01*
X154192200Y-90338980D01*
X153591091Y-90939041D01*
X153265372Y-91723459D01*
X153264630Y-92572815D01*
X153110000Y-92572815D01*
X153110000Y-88407745D01*
X157071861Y-88407745D01*
X157145995Y-88653864D01*
X157683223Y-88846965D01*
X158253454Y-88819778D01*
X158654005Y-88653864D01*
X158728139Y-88407745D01*
X157900000Y-87579605D01*
X157071861Y-88407745D01*
X153110000Y-88407745D01*
X153110000Y-87183223D01*
X156453035Y-87183223D01*
X156480222Y-87753454D01*
X156646136Y-88154005D01*
X156892255Y-88228139D01*
X157720395Y-87400000D01*
X158079605Y-87400000D01*
X158907745Y-88228139D01*
X159153864Y-88154005D01*
X159346965Y-87616777D01*
X159319778Y-87046546D01*
X159211103Y-86784180D01*
X164579560Y-86784180D01*
X164579560Y-88983820D01*
X164628843Y-89231585D01*
X164769191Y-89441629D01*
X164979235Y-89581977D01*
X165227000Y-89631260D01*
X166751000Y-89631260D01*
X166998765Y-89581977D01*
X167208809Y-89441629D01*
X167349157Y-89231585D01*
X167391358Y-89019423D01*
X167541172Y-89243635D01*
X167994391Y-89546467D01*
X168529000Y-89652807D01*
X169063609Y-89546467D01*
X169516828Y-89243635D01*
X169799000Y-88821336D01*
X170081172Y-89243635D01*
X170534391Y-89546467D01*
X171069000Y-89652807D01*
X171603609Y-89546467D01*
X172056828Y-89243635D01*
X172339000Y-88821336D01*
X172621172Y-89243635D01*
X173074391Y-89546467D01*
X173609000Y-89652807D01*
X174143609Y-89546467D01*
X174596828Y-89243635D01*
X174879000Y-88821336D01*
X175161172Y-89243635D01*
X175614391Y-89546467D01*
X176149000Y-89652807D01*
X176683609Y-89546467D01*
X177136828Y-89243635D01*
X177419000Y-88821336D01*
X177701172Y-89243635D01*
X178154391Y-89546467D01*
X178689000Y-89652807D01*
X179223609Y-89546467D01*
X179676828Y-89243635D01*
X179967647Y-88808394D01*
X179986941Y-88873761D01*
X180330974Y-89299450D01*
X180811723Y-89561080D01*
X180885930Y-89576040D01*
X181102000Y-89453540D01*
X181102000Y-88011000D01*
X181356000Y-88011000D01*
X181356000Y-89453540D01*
X181572070Y-89576040D01*
X181646277Y-89561080D01*
X182127026Y-89299450D01*
X182471059Y-88873761D01*
X182626000Y-88348820D01*
X182626000Y-88011000D01*
X181356000Y-88011000D01*
X181102000Y-88011000D01*
X181082000Y-88011000D01*
X181082000Y-87757000D01*
X181102000Y-87757000D01*
X181102000Y-86314460D01*
X181356000Y-86314460D01*
X181356000Y-87757000D01*
X182626000Y-87757000D01*
X182626000Y-87419180D01*
X182471059Y-86894239D01*
X182127026Y-86468550D01*
X181646277Y-86206920D01*
X181572070Y-86191960D01*
X181356000Y-86314460D01*
X181102000Y-86314460D01*
X180885930Y-86191960D01*
X180811723Y-86206920D01*
X180330974Y-86468550D01*
X179986941Y-86894239D01*
X179967647Y-86959606D01*
X179676828Y-86524365D01*
X179223609Y-86221533D01*
X178689000Y-86115193D01*
X178154391Y-86221533D01*
X177701172Y-86524365D01*
X177419000Y-86946664D01*
X177136828Y-86524365D01*
X176683609Y-86221533D01*
X176149000Y-86115193D01*
X175614391Y-86221533D01*
X175161172Y-86524365D01*
X174879000Y-86946664D01*
X174596828Y-86524365D01*
X174143609Y-86221533D01*
X173609000Y-86115193D01*
X173074391Y-86221533D01*
X172621172Y-86524365D01*
X172339000Y-86946664D01*
X172056828Y-86524365D01*
X171603609Y-86221533D01*
X171069000Y-86115193D01*
X170534391Y-86221533D01*
X170081172Y-86524365D01*
X169799000Y-86946664D01*
X169516828Y-86524365D01*
X169063609Y-86221533D01*
X168529000Y-86115193D01*
X167994391Y-86221533D01*
X167541172Y-86524365D01*
X167391358Y-86748577D01*
X167349157Y-86536415D01*
X167208809Y-86326371D01*
X166998765Y-86186023D01*
X166751000Y-86136740D01*
X165227000Y-86136740D01*
X164979235Y-86186023D01*
X164769191Y-86326371D01*
X164628843Y-86536415D01*
X164579560Y-86784180D01*
X159211103Y-86784180D01*
X159153864Y-86645995D01*
X158907745Y-86571861D01*
X158079605Y-87400000D01*
X157720395Y-87400000D01*
X156892255Y-86571861D01*
X156646136Y-86645995D01*
X156453035Y-87183223D01*
X153110000Y-87183223D01*
X153110000Y-84100000D01*
X156452560Y-84100000D01*
X156452560Y-85700000D01*
X156501843Y-85947765D01*
X156642191Y-86157809D01*
X156852235Y-86298157D01*
X157086187Y-86344693D01*
X157071861Y-86392255D01*
X157900000Y-87220395D01*
X158728139Y-86392255D01*
X158713813Y-86344693D01*
X158947765Y-86298157D01*
X159157809Y-86157809D01*
X159298157Y-85947765D01*
X159347440Y-85700000D01*
X159347440Y-84100000D01*
X159298157Y-83852235D01*
X159157809Y-83642191D01*
X158947765Y-83501843D01*
X158700000Y-83452560D01*
X157100000Y-83452560D01*
X156852235Y-83501843D01*
X156642191Y-83642191D01*
X156501843Y-83852235D01*
X156452560Y-84100000D01*
X153110000Y-84100000D01*
X153110000Y-80663970D01*
X155565635Y-80663970D01*
X155725418Y-80982739D01*
X156516187Y-81292723D01*
X157365387Y-81276497D01*
X158074582Y-80982739D01*
X158234365Y-80663970D01*
X158147158Y-80576763D01*
X164584430Y-80576763D01*
X164584430Y-81343237D01*
X164689900Y-81873472D01*
X164990254Y-82322983D01*
X165439765Y-82623337D01*
X165970000Y-82728807D01*
X166500235Y-82623337D01*
X166949746Y-82322983D01*
X167240000Y-81888588D01*
X167530254Y-82322983D01*
X167979765Y-82623337D01*
X168510000Y-82728807D01*
X169040235Y-82623337D01*
X169489746Y-82322983D01*
X169780000Y-81888588D01*
X170070254Y-82322983D01*
X170519765Y-82623337D01*
X171050000Y-82728807D01*
X171580235Y-82623337D01*
X172029746Y-82322983D01*
X172320000Y-81888588D01*
X172610254Y-82322983D01*
X173059765Y-82623337D01*
X173590000Y-82728807D01*
X174120235Y-82623337D01*
X174569746Y-82322983D01*
X174860000Y-81888588D01*
X175150254Y-82322983D01*
X175599765Y-82623337D01*
X176130000Y-82728807D01*
X176660235Y-82623337D01*
X177109746Y-82322983D01*
X177400000Y-81888588D01*
X177690254Y-82322983D01*
X178139765Y-82623337D01*
X178670000Y-82728807D01*
X179200235Y-82623337D01*
X179649746Y-82322983D01*
X179940000Y-81888588D01*
X180230254Y-82322983D01*
X180679765Y-82623337D01*
X181210000Y-82728807D01*
X181740235Y-82623337D01*
X182189746Y-82322983D01*
X182480000Y-81888588D01*
X182770254Y-82322983D01*
X183219765Y-82623337D01*
X183750000Y-82728807D01*
X184280235Y-82623337D01*
X184729746Y-82322983D01*
X185020000Y-81888588D01*
X185310254Y-82322983D01*
X185759765Y-82623337D01*
X186290000Y-82728807D01*
X186820235Y-82623337D01*
X187269746Y-82322983D01*
X187560000Y-81888588D01*
X187850254Y-82322983D01*
X188299765Y-82623337D01*
X188830000Y-82728807D01*
X189360235Y-82623337D01*
X189809746Y-82322983D01*
X190110100Y-81873472D01*
X190215570Y-81343237D01*
X190215570Y-80576763D01*
X190110100Y-80046528D01*
X189809746Y-79597017D01*
X189360235Y-79296663D01*
X188830000Y-79191193D01*
X188299765Y-79296663D01*
X187850254Y-79597017D01*
X187560000Y-80031412D01*
X187269746Y-79597017D01*
X186820235Y-79296663D01*
X186290000Y-79191193D01*
X185759765Y-79296663D01*
X185310254Y-79597017D01*
X185020000Y-80031412D01*
X184729746Y-79597017D01*
X184280235Y-79296663D01*
X183750000Y-79191193D01*
X183219765Y-79296663D01*
X182770254Y-79597017D01*
X182480000Y-80031412D01*
X182189746Y-79597017D01*
X181740235Y-79296663D01*
X181210000Y-79191193D01*
X180679765Y-79296663D01*
X180230254Y-79597017D01*
X179940000Y-80031412D01*
X179649746Y-79597017D01*
X179200235Y-79296663D01*
X178670000Y-79191193D01*
X178139765Y-79296663D01*
X177690254Y-79597017D01*
X177400000Y-80031412D01*
X177109746Y-79597017D01*
X176660235Y-79296663D01*
X176130000Y-79191193D01*
X175599765Y-79296663D01*
X175150254Y-79597017D01*
X174860000Y-80031412D01*
X174569746Y-79597017D01*
X174120235Y-79296663D01*
X173590000Y-79191193D01*
X173059765Y-79296663D01*
X172610254Y-79597017D01*
X172320000Y-80031412D01*
X172029746Y-79597017D01*
X171580235Y-79296663D01*
X171050000Y-79191193D01*
X170519765Y-79296663D01*
X170070254Y-79597017D01*
X169780000Y-80031412D01*
X169489746Y-79597017D01*
X169040235Y-79296663D01*
X168510000Y-79191193D01*
X167979765Y-79296663D01*
X167530254Y-79597017D01*
X167240000Y-80031412D01*
X166949746Y-79597017D01*
X166500235Y-79296663D01*
X165970000Y-79191193D01*
X165439765Y-79296663D01*
X164990254Y-79597017D01*
X164689900Y-80046528D01*
X164584430Y-80576763D01*
X158147158Y-80576763D01*
X156900000Y-79329605D01*
X155565635Y-80663970D01*
X153110000Y-80663970D01*
X153110000Y-78766187D01*
X154757277Y-78766187D01*
X154773503Y-79615387D01*
X155067261Y-80324582D01*
X155386030Y-80484365D01*
X156720395Y-79150000D01*
X157079605Y-79150000D01*
X158413970Y-80484365D01*
X158732739Y-80324582D01*
X159042723Y-79533813D01*
X159026497Y-78684613D01*
X158732739Y-77975418D01*
X158413970Y-77815635D01*
X157079605Y-79150000D01*
X156720395Y-79150000D01*
X155386030Y-77815635D01*
X155067261Y-77975418D01*
X154757277Y-78766187D01*
X153110000Y-78766187D01*
X153110000Y-77636030D01*
X155565635Y-77636030D01*
X156900000Y-78970395D01*
X158234365Y-77636030D01*
X158074582Y-77317261D01*
X157283813Y-77007277D01*
X156434613Y-77023503D01*
X155725418Y-77317261D01*
X155565635Y-77636030D01*
X153110000Y-77636030D01*
X153110000Y-74572815D01*
X154764630Y-74572815D01*
X155088980Y-75357800D01*
X155689041Y-75958909D01*
X156473459Y-76284628D01*
X157322815Y-76285370D01*
X158107800Y-75961020D01*
X158708909Y-75360959D01*
X159034628Y-74576541D01*
X159035370Y-73727185D01*
X158927864Y-73467000D01*
X164584430Y-73467000D01*
X164584430Y-73816250D01*
X164738501Y-74336817D01*
X165080056Y-74758798D01*
X165557097Y-75017950D01*
X165628725Y-75032133D01*
X165843000Y-74909479D01*
X165843000Y-73467000D01*
X164584430Y-73467000D01*
X158927864Y-73467000D01*
X158711020Y-72942200D01*
X158632707Y-72863750D01*
X164584430Y-72863750D01*
X164584430Y-73213000D01*
X165843000Y-73213000D01*
X165843000Y-71770521D01*
X166097000Y-71770521D01*
X166097000Y-73213000D01*
X166117000Y-73213000D01*
X166117000Y-73467000D01*
X166097000Y-73467000D01*
X166097000Y-74909479D01*
X166311275Y-75032133D01*
X166382903Y-75017950D01*
X166859944Y-74758798D01*
X167201499Y-74336817D01*
X167228399Y-74245928D01*
X167229900Y-74253472D01*
X167530254Y-74702983D01*
X167979765Y-75003337D01*
X168510000Y-75108807D01*
X169040235Y-75003337D01*
X169489746Y-74702983D01*
X169780000Y-74268588D01*
X170070254Y-74702983D01*
X170519765Y-75003337D01*
X171050000Y-75108807D01*
X171580235Y-75003337D01*
X172029746Y-74702983D01*
X172320000Y-74268588D01*
X172610254Y-74702983D01*
X173059765Y-75003337D01*
X173590000Y-75108807D01*
X174120235Y-75003337D01*
X174569746Y-74702983D01*
X174860000Y-74268588D01*
X175150254Y-74702983D01*
X175599765Y-75003337D01*
X176130000Y-75108807D01*
X176660235Y-75003337D01*
X177109746Y-74702983D01*
X177400000Y-74268588D01*
X177690254Y-74702983D01*
X178139765Y-75003337D01*
X178670000Y-75108807D01*
X179200235Y-75003337D01*
X179649746Y-74702983D01*
X179940000Y-74268588D01*
X180230254Y-74702983D01*
X180679765Y-75003337D01*
X181210000Y-75108807D01*
X181740235Y-75003337D01*
X182189746Y-74702983D01*
X182480000Y-74268588D01*
X182770254Y-74702983D01*
X183219765Y-75003337D01*
X183750000Y-75108807D01*
X184280235Y-75003337D01*
X184729746Y-74702983D01*
X185020000Y-74268588D01*
X185310254Y-74702983D01*
X185759765Y-75003337D01*
X186290000Y-75108807D01*
X186820235Y-75003337D01*
X187269746Y-74702983D01*
X187560000Y-74268588D01*
X187850254Y-74702983D01*
X188299765Y-75003337D01*
X188830000Y-75108807D01*
X189360235Y-75003337D01*
X189809746Y-74702983D01*
X190110100Y-74253472D01*
X190215570Y-73723237D01*
X190215570Y-72956763D01*
X190110100Y-72426528D01*
X189898603Y-72110000D01*
X193712968Y-72110000D01*
X193818395Y-72640017D01*
X194118625Y-73089343D01*
X194553624Y-73380000D01*
X194118625Y-73670657D01*
X193818395Y-74119983D01*
X193712968Y-74650000D01*
X193818395Y-75180017D01*
X194118625Y-75629343D01*
X194553624Y-75920000D01*
X194118625Y-76210657D01*
X193818395Y-76659983D01*
X193712968Y-77190000D01*
X193818395Y-77720017D01*
X194118625Y-78169343D01*
X194553624Y-78460000D01*
X194118625Y-78750657D01*
X193818395Y-79199983D01*
X193712968Y-79730000D01*
X193818395Y-80260017D01*
X194118625Y-80709343D01*
X194567951Y-81009573D01*
X195097968Y-81115000D01*
X195662032Y-81115000D01*
X196192049Y-81009573D01*
X196641375Y-80709343D01*
X196916865Y-80297043D01*
X197117264Y-80646894D01*
X197548279Y-80979964D01*
X198073945Y-81122739D01*
X198293000Y-80961868D01*
X198293000Y-79857000D01*
X198547000Y-79857000D01*
X198547000Y-80961868D01*
X198766055Y-81122739D01*
X199291721Y-80979964D01*
X199722736Y-80646894D01*
X199993481Y-80174235D01*
X200012318Y-80071185D01*
X199889656Y-79857000D01*
X198547000Y-79857000D01*
X198293000Y-79857000D01*
X198273000Y-79857000D01*
X198273000Y-79603000D01*
X198293000Y-79603000D01*
X198293000Y-78498132D01*
X198241076Y-78460000D01*
X198293000Y-78421868D01*
X198293000Y-77317000D01*
X198547000Y-77317000D01*
X198547000Y-78421868D01*
X198598924Y-78460000D01*
X198547000Y-78498132D01*
X198547000Y-79603000D01*
X199889656Y-79603000D01*
X200012318Y-79388815D01*
X199993481Y-79285765D01*
X199722736Y-78813106D01*
X199291721Y-78480036D01*
X199217953Y-78460000D01*
X199291721Y-78439964D01*
X199722736Y-78106894D01*
X199993481Y-77634235D01*
X200012318Y-77531185D01*
X199889656Y-77317000D01*
X198547000Y-77317000D01*
X198293000Y-77317000D01*
X198273000Y-77317000D01*
X198273000Y-77063000D01*
X198293000Y-77063000D01*
X198293000Y-75958132D01*
X198241076Y-75920000D01*
X198293000Y-75881868D01*
X198293000Y-74777000D01*
X198547000Y-74777000D01*
X198547000Y-75881868D01*
X198598924Y-75920000D01*
X198547000Y-75958132D01*
X198547000Y-77063000D01*
X199889656Y-77063000D01*
X200012318Y-76848815D01*
X199993481Y-76745765D01*
X199722736Y-76273106D01*
X199291721Y-75940036D01*
X199217953Y-75920000D01*
X199291721Y-75899964D01*
X199722736Y-75566894D01*
X199993481Y-75094235D01*
X200012318Y-74991185D01*
X199889656Y-74777000D01*
X198547000Y-74777000D01*
X198293000Y-74777000D01*
X198273000Y-74777000D01*
X198273000Y-74523000D01*
X198293000Y-74523000D01*
X198293000Y-73418132D01*
X198241076Y-73380000D01*
X198293000Y-73341868D01*
X198293000Y-72237000D01*
X198547000Y-72237000D01*
X198547000Y-73341868D01*
X198598924Y-73380000D01*
X198547000Y-73418132D01*
X198547000Y-74523000D01*
X199889656Y-74523000D01*
X200012318Y-74308815D01*
X199993481Y-74205765D01*
X199722736Y-73733106D01*
X199291721Y-73400036D01*
X199217953Y-73380000D01*
X199291721Y-73359964D01*
X199722736Y-73026894D01*
X199993481Y-72554235D01*
X200012318Y-72451185D01*
X199889656Y-72237000D01*
X198547000Y-72237000D01*
X198293000Y-72237000D01*
X198273000Y-72237000D01*
X198273000Y-71983000D01*
X198293000Y-71983000D01*
X198293000Y-71963000D01*
X198547000Y-71963000D01*
X198547000Y-71983000D01*
X199889656Y-71983000D01*
X200012318Y-71768815D01*
X199993481Y-71665765D01*
X199722736Y-71193106D01*
X199291721Y-70860036D01*
X199238161Y-70845489D01*
X199681375Y-70549343D01*
X199981605Y-70100017D01*
X200087032Y-69570000D01*
X199981605Y-69039983D01*
X199681375Y-68590657D01*
X199232049Y-68290427D01*
X198702032Y-68185000D01*
X198137968Y-68185000D01*
X197607951Y-68290427D01*
X197158625Y-68590657D01*
X197022380Y-68794562D01*
X196978157Y-68572235D01*
X196837809Y-68362191D01*
X196627765Y-68221843D01*
X196380000Y-68172560D01*
X194380000Y-68172560D01*
X194132235Y-68221843D01*
X193922191Y-68362191D01*
X193781843Y-68572235D01*
X193732560Y-68820000D01*
X193732560Y-70320000D01*
X193781843Y-70567765D01*
X193922191Y-70777809D01*
X194132235Y-70918157D01*
X194366820Y-70964818D01*
X194118625Y-71130657D01*
X193818395Y-71579983D01*
X193712968Y-72110000D01*
X189898603Y-72110000D01*
X189809746Y-71977017D01*
X189360235Y-71676663D01*
X188830000Y-71571193D01*
X188299765Y-71676663D01*
X187850254Y-71977017D01*
X187560000Y-72411412D01*
X187269746Y-71977017D01*
X186820235Y-71676663D01*
X186290000Y-71571193D01*
X185759765Y-71676663D01*
X185310254Y-71977017D01*
X185020000Y-72411412D01*
X184729746Y-71977017D01*
X184280235Y-71676663D01*
X183750000Y-71571193D01*
X183219765Y-71676663D01*
X182770254Y-71977017D01*
X182480000Y-72411412D01*
X182189746Y-71977017D01*
X181740235Y-71676663D01*
X181210000Y-71571193D01*
X180679765Y-71676663D01*
X180230254Y-71977017D01*
X179940000Y-72411412D01*
X179649746Y-71977017D01*
X179200235Y-71676663D01*
X178670000Y-71571193D01*
X178139765Y-71676663D01*
X177690254Y-71977017D01*
X177400000Y-72411412D01*
X177109746Y-71977017D01*
X176660235Y-71676663D01*
X176130000Y-71571193D01*
X175599765Y-71676663D01*
X175150254Y-71977017D01*
X174860000Y-72411412D01*
X174569746Y-71977017D01*
X174120235Y-71676663D01*
X173590000Y-71571193D01*
X173059765Y-71676663D01*
X172610254Y-71977017D01*
X172320000Y-72411412D01*
X172029746Y-71977017D01*
X171580235Y-71676663D01*
X171050000Y-71571193D01*
X170519765Y-71676663D01*
X170070254Y-71977017D01*
X169780000Y-72411412D01*
X169489746Y-71977017D01*
X169040235Y-71676663D01*
X168510000Y-71571193D01*
X167979765Y-71676663D01*
X167530254Y-71977017D01*
X167229900Y-72426528D01*
X167228399Y-72434072D01*
X167201499Y-72343183D01*
X166859944Y-71921202D01*
X166382903Y-71662050D01*
X166311275Y-71647867D01*
X166097000Y-71770521D01*
X165843000Y-71770521D01*
X165628725Y-71647867D01*
X165557097Y-71662050D01*
X165080056Y-71921202D01*
X164738501Y-72343183D01*
X164584430Y-72863750D01*
X158632707Y-72863750D01*
X158110959Y-72341091D01*
X157326541Y-72015372D01*
X156477185Y-72014630D01*
X155692200Y-72338980D01*
X155091091Y-72939041D01*
X154765372Y-73723459D01*
X154764630Y-74572815D01*
X153110000Y-74572815D01*
X153110000Y-69407745D01*
X157071861Y-69407745D01*
X157145995Y-69653864D01*
X157683223Y-69846965D01*
X158253454Y-69819778D01*
X158654005Y-69653864D01*
X158728139Y-69407745D01*
X157900000Y-68579605D01*
X157071861Y-69407745D01*
X153110000Y-69407745D01*
X153110000Y-68183223D01*
X156453035Y-68183223D01*
X156480222Y-68753454D01*
X156646136Y-69154005D01*
X156892255Y-69228139D01*
X157720395Y-68400000D01*
X158079605Y-68400000D01*
X158907745Y-69228139D01*
X159153864Y-69154005D01*
X159232875Y-68934187D01*
X165188752Y-68934187D01*
X165406757Y-69461800D01*
X165810077Y-69865824D01*
X166337309Y-70084750D01*
X166908187Y-70085248D01*
X167435800Y-69867243D01*
X167839824Y-69463923D01*
X168058750Y-68936691D01*
X168059000Y-68650000D01*
X175320887Y-68650000D01*
X175430120Y-69199151D01*
X175741189Y-69664698D01*
X176206736Y-69975767D01*
X176755887Y-70085000D01*
X176812113Y-70085000D01*
X177361264Y-69975767D01*
X177826811Y-69664698D01*
X178051592Y-69328290D01*
X178106757Y-69461800D01*
X178510077Y-69865824D01*
X179037309Y-70084750D01*
X179608187Y-70085248D01*
X180135800Y-69867243D01*
X180539824Y-69463923D01*
X180758750Y-68936691D01*
X180759000Y-68650000D01*
X188020887Y-68650000D01*
X188130120Y-69199151D01*
X188441189Y-69664698D01*
X188906736Y-69975767D01*
X189455887Y-70085000D01*
X189512113Y-70085000D01*
X190061264Y-69975767D01*
X190526811Y-69664698D01*
X190837880Y-69199151D01*
X190947113Y-68650000D01*
X190837880Y-68100849D01*
X190526811Y-67635302D01*
X190061264Y-67324233D01*
X189512113Y-67215000D01*
X189455887Y-67215000D01*
X188906736Y-67324233D01*
X188441189Y-67635302D01*
X188130120Y-68100849D01*
X188020887Y-68650000D01*
X180759000Y-68650000D01*
X180759248Y-68365813D01*
X180541243Y-67838200D01*
X180137923Y-67434176D01*
X179610691Y-67215250D01*
X179039813Y-67214752D01*
X178512200Y-67432757D01*
X178108176Y-67836077D01*
X178051755Y-67971954D01*
X177826811Y-67635302D01*
X177361264Y-67324233D01*
X176812113Y-67215000D01*
X176755887Y-67215000D01*
X176206736Y-67324233D01*
X175741189Y-67635302D01*
X175430120Y-68100849D01*
X175320887Y-68650000D01*
X168059000Y-68650000D01*
X168059248Y-68365813D01*
X167841243Y-67838200D01*
X167437923Y-67434176D01*
X166910691Y-67215250D01*
X166339813Y-67214752D01*
X165812200Y-67432757D01*
X165408176Y-67836077D01*
X165189250Y-68363309D01*
X165188752Y-68934187D01*
X159232875Y-68934187D01*
X159346965Y-68616777D01*
X159319778Y-68046546D01*
X159153864Y-67645995D01*
X158907745Y-67571861D01*
X158079605Y-68400000D01*
X157720395Y-68400000D01*
X156892255Y-67571861D01*
X156646136Y-67645995D01*
X156453035Y-68183223D01*
X153110000Y-68183223D01*
X153110000Y-65100000D01*
X156452560Y-65100000D01*
X156452560Y-66700000D01*
X156501843Y-66947765D01*
X156642191Y-67157809D01*
X156852235Y-67298157D01*
X157086187Y-67344693D01*
X157071861Y-67392255D01*
X157900000Y-68220395D01*
X158728139Y-67392255D01*
X158713813Y-67344693D01*
X158947765Y-67298157D01*
X159157809Y-67157809D01*
X159298157Y-66947765D01*
X159347440Y-66700000D01*
X159347440Y-65434187D01*
X165188752Y-65434187D01*
X165406757Y-65961800D01*
X165810077Y-66365824D01*
X166337309Y-66584750D01*
X166908187Y-66585248D01*
X167435800Y-66367243D01*
X167839824Y-65963923D01*
X168058750Y-65436691D01*
X168059000Y-65150000D01*
X175320887Y-65150000D01*
X175430120Y-65699151D01*
X175741189Y-66164698D01*
X176206736Y-66475767D01*
X176755887Y-66585000D01*
X176812113Y-66585000D01*
X177361264Y-66475767D01*
X177826811Y-66164698D01*
X178137880Y-65699151D01*
X178247113Y-65150000D01*
X178137880Y-64600849D01*
X177826811Y-64135302D01*
X177361264Y-63824233D01*
X176812113Y-63715000D01*
X176755887Y-63715000D01*
X176206736Y-63824233D01*
X175741189Y-64135302D01*
X175430120Y-64600849D01*
X175320887Y-65150000D01*
X168059000Y-65150000D01*
X168059248Y-64865813D01*
X167841243Y-64338200D01*
X167437923Y-63934176D01*
X166910691Y-63715250D01*
X166339813Y-63714752D01*
X165812200Y-63932757D01*
X165408176Y-64336077D01*
X165189250Y-64863309D01*
X165188752Y-65434187D01*
X159347440Y-65434187D01*
X159347440Y-65100000D01*
X159298157Y-64852235D01*
X159157809Y-64642191D01*
X158947765Y-64501843D01*
X158700000Y-64452560D01*
X157100000Y-64452560D01*
X156852235Y-64501843D01*
X156642191Y-64642191D01*
X156501843Y-64852235D01*
X156452560Y-65100000D01*
X153110000Y-65100000D01*
X153110000Y-60572815D01*
X153264630Y-60572815D01*
X153588980Y-61357800D01*
X154189041Y-61958909D01*
X154973459Y-62284628D01*
X155822815Y-62285370D01*
X156607800Y-61961020D01*
X157208909Y-61360959D01*
X157534628Y-60576541D01*
X157534913Y-60250000D01*
X160852560Y-60250000D01*
X160852560Y-62050000D01*
X160901843Y-62297765D01*
X161042191Y-62507809D01*
X161252235Y-62648157D01*
X161500000Y-62697440D01*
X163300000Y-62697440D01*
X163547765Y-62648157D01*
X163757809Y-62507809D01*
X163898157Y-62297765D01*
X163907359Y-62251502D01*
X164032424Y-62387966D01*
X164575258Y-62641046D01*
X164813000Y-62520997D01*
X164813000Y-61277000D01*
X164793000Y-61277000D01*
X164793000Y-61023000D01*
X164813000Y-61023000D01*
X164813000Y-59779003D01*
X165067000Y-59779003D01*
X165067000Y-61023000D01*
X165087000Y-61023000D01*
X165087000Y-61277000D01*
X165067000Y-61277000D01*
X165067000Y-62520997D01*
X165304742Y-62641046D01*
X165847576Y-62387966D01*
X166205499Y-61997418D01*
X166364519Y-62235409D01*
X166862509Y-62568155D01*
X167449928Y-62685000D01*
X167510072Y-62685000D01*
X168097491Y-62568155D01*
X168595481Y-62235409D01*
X168928227Y-61737419D01*
X169045072Y-61150000D01*
X169002455Y-60935750D01*
X171115000Y-60935750D01*
X171115000Y-61676310D01*
X171211673Y-61909699D01*
X171390302Y-62088327D01*
X171623691Y-62185000D01*
X172364250Y-62185000D01*
X172523000Y-62026250D01*
X172523000Y-60777000D01*
X171273750Y-60777000D01*
X171115000Y-60935750D01*
X169002455Y-60935750D01*
X168928227Y-60562581D01*
X168595481Y-60064591D01*
X168097491Y-59731845D01*
X167553760Y-59623690D01*
X171115000Y-59623690D01*
X171115000Y-60364250D01*
X171273750Y-60523000D01*
X172523000Y-60523000D01*
X172523000Y-59273750D01*
X172777000Y-59273750D01*
X172777000Y-60523000D01*
X172797000Y-60523000D01*
X172797000Y-60777000D01*
X172777000Y-60777000D01*
X172777000Y-62026250D01*
X172935750Y-62185000D01*
X173676309Y-62185000D01*
X173909698Y-62088327D01*
X174088327Y-61909699D01*
X174144119Y-61775006D01*
X174319357Y-61950551D01*
X174883330Y-62184733D01*
X175493991Y-62185265D01*
X176058371Y-61952068D01*
X176490551Y-61520643D01*
X176724733Y-60956670D01*
X176724735Y-60953991D01*
X179324735Y-60953991D01*
X179557932Y-61518371D01*
X179989357Y-61950551D01*
X180553330Y-62184733D01*
X181163991Y-62185265D01*
X181728371Y-61952068D01*
X181905841Y-61774908D01*
X181961673Y-61909699D01*
X182140302Y-62088327D01*
X182373691Y-62185000D01*
X183114250Y-62185000D01*
X183273000Y-62026250D01*
X183273000Y-60777000D01*
X183527000Y-60777000D01*
X183527000Y-62026250D01*
X183685750Y-62185000D01*
X184426309Y-62185000D01*
X184659698Y-62088327D01*
X184838327Y-61909699D01*
X184935000Y-61676310D01*
X184935000Y-60935750D01*
X184911810Y-60912560D01*
X187007500Y-60912560D01*
X187007500Y-61515440D01*
X187091992Y-61940211D01*
X187332606Y-62300314D01*
X187692709Y-62540928D01*
X188117480Y-62625420D01*
X188542251Y-62540928D01*
X188742320Y-62407246D01*
X188942389Y-62540928D01*
X189367160Y-62625420D01*
X189791931Y-62540928D01*
X189992000Y-62407246D01*
X190192069Y-62540928D01*
X190616840Y-62625420D01*
X191041611Y-62540928D01*
X191074182Y-62519165D01*
X191265231Y-62598300D01*
X191580770Y-62598300D01*
X191739520Y-62439550D01*
X191739520Y-61341000D01*
X191993520Y-61341000D01*
X191993520Y-62439550D01*
X192152270Y-62598300D01*
X192467809Y-62598300D01*
X192701198Y-62501627D01*
X192879827Y-62322999D01*
X192976500Y-62089610D01*
X192976500Y-61499750D01*
X192817750Y-61341000D01*
X191993520Y-61341000D01*
X191739520Y-61341000D01*
X191726820Y-61341000D01*
X191726820Y-61087000D01*
X191739520Y-61087000D01*
X191739520Y-59988450D01*
X191993520Y-59988450D01*
X191993520Y-61087000D01*
X192817750Y-61087000D01*
X192976500Y-60928250D01*
X192976500Y-60572815D01*
X197264630Y-60572815D01*
X197588980Y-61357800D01*
X198189041Y-61958909D01*
X198973459Y-62284628D01*
X199822815Y-62285370D01*
X200607800Y-61961020D01*
X201208909Y-61360959D01*
X201534628Y-60576541D01*
X201535370Y-59727185D01*
X201211020Y-58942200D01*
X200610959Y-58341091D01*
X199826541Y-58015372D01*
X198977185Y-58014630D01*
X198192200Y-58338980D01*
X197591091Y-58939041D01*
X197265372Y-59723459D01*
X197264630Y-60572815D01*
X192976500Y-60572815D01*
X192976500Y-60338390D01*
X192879827Y-60105001D01*
X192701198Y-59926373D01*
X192467809Y-59829700D01*
X192152270Y-59829700D01*
X191993520Y-59988450D01*
X191739520Y-59988450D01*
X191580770Y-59829700D01*
X191265231Y-59829700D01*
X191074182Y-59908835D01*
X191041611Y-59887072D01*
X190616840Y-59802580D01*
X190192069Y-59887072D01*
X189992000Y-60020754D01*
X189791931Y-59887072D01*
X189367160Y-59802580D01*
X188942389Y-59887072D01*
X188742320Y-60020754D01*
X188542251Y-59887072D01*
X188117480Y-59802580D01*
X187692709Y-59887072D01*
X187332606Y-60127686D01*
X187091992Y-60487789D01*
X187007500Y-60912560D01*
X184911810Y-60912560D01*
X184776250Y-60777000D01*
X183527000Y-60777000D01*
X183273000Y-60777000D01*
X183253000Y-60777000D01*
X183253000Y-60523000D01*
X183273000Y-60523000D01*
X183273000Y-59273750D01*
X183527000Y-59273750D01*
X183527000Y-60523000D01*
X184776250Y-60523000D01*
X184935000Y-60364250D01*
X184935000Y-59623690D01*
X184838327Y-59390301D01*
X184659698Y-59211673D01*
X184426309Y-59115000D01*
X183685750Y-59115000D01*
X183527000Y-59273750D01*
X183273000Y-59273750D01*
X183114250Y-59115000D01*
X182373691Y-59115000D01*
X182140302Y-59211673D01*
X181961673Y-59390301D01*
X181905881Y-59524994D01*
X181730643Y-59349449D01*
X181166670Y-59115267D01*
X180556009Y-59114735D01*
X179991629Y-59347932D01*
X179559449Y-59779357D01*
X179325267Y-60343330D01*
X179324735Y-60953991D01*
X176724735Y-60953991D01*
X176725265Y-60346009D01*
X176492068Y-59781629D01*
X176060643Y-59349449D01*
X175496670Y-59115267D01*
X174886009Y-59114735D01*
X174321629Y-59347932D01*
X174144159Y-59525092D01*
X174088327Y-59390301D01*
X173909698Y-59211673D01*
X173676309Y-59115000D01*
X172935750Y-59115000D01*
X172777000Y-59273750D01*
X172523000Y-59273750D01*
X172364250Y-59115000D01*
X171623691Y-59115000D01*
X171390302Y-59211673D01*
X171211673Y-59390301D01*
X171115000Y-59623690D01*
X167553760Y-59623690D01*
X167510072Y-59615000D01*
X167449928Y-59615000D01*
X166862509Y-59731845D01*
X166364519Y-60064591D01*
X166205499Y-60302582D01*
X165847576Y-59912034D01*
X165304742Y-59658954D01*
X165067000Y-59779003D01*
X164813000Y-59779003D01*
X164575258Y-59658954D01*
X164032424Y-59912034D01*
X163907359Y-60048498D01*
X163898157Y-60002235D01*
X163757809Y-59792191D01*
X163547765Y-59651843D01*
X163300000Y-59602560D01*
X161500000Y-59602560D01*
X161252235Y-59651843D01*
X161042191Y-59792191D01*
X160901843Y-60002235D01*
X160852560Y-60250000D01*
X157534913Y-60250000D01*
X157535370Y-59727185D01*
X157211020Y-58942200D01*
X156610959Y-58341091D01*
X155826541Y-58015372D01*
X154977185Y-58014630D01*
X154192200Y-58338980D01*
X153591091Y-58939041D01*
X153265372Y-59723459D01*
X153264630Y-60572815D01*
X153110000Y-60572815D01*
X153110000Y-57860000D01*
X201690000Y-57860000D01*
X201690000Y-94440000D01*
%TD*%
M02*
