M48
;DRILL file {KiCad (2017-10-06 revision 4905bbe50)-master} date Sun Oct  8 14:01:27 2017
;FORMAT={-:-/ absolute / metric / decimal}
FMAT,2
METRIC,TZ
T1C0.700
T2C0.800
T3C1.000
T4C1.300
T5C2.540
T6C3.000
%
G90
G05
M71
T1
X188.117Y-61.214
X189.367Y-61.214
X190.617Y-61.214
X191.867Y-61.214
T2
X172.65Y-60.65
X175.19Y-60.65
X178.8Y-96.45
X179.324Y-68.65
X189.484Y-68.65
X166.624Y-68.65
X176.784Y-68.65
X177.4Y-96.45
X165.97Y-73.34
X165.97Y-80.96
X168.51Y-73.34
X168.51Y-80.96
X171.05Y-73.34
X171.05Y-80.96
X173.59Y-73.34
X173.59Y-80.96
X176.13Y-73.34
X176.13Y-80.96
X178.67Y-73.34
X178.67Y-80.96
X181.21Y-73.34
X181.21Y-80.96
X183.75Y-73.34
X183.75Y-80.96
X186.29Y-73.34
X186.29Y-80.96
X188.83Y-73.34
X188.83Y-80.96
X166.624Y-65.15
X176.784Y-65.15
X157.9Y-84.9
X157.9Y-87.4
X176.Y-96.45
X180.86Y-60.65
X183.4Y-60.65
X157.9Y-65.9
X157.9Y-68.4
T3
X162.4Y-61.15
X164.94Y-61.15
X167.48Y-61.15
X195.63Y-69.57
X195.63Y-72.11
X195.63Y-74.65
X195.63Y-77.19
X195.63Y-79.73
X198.17Y-69.57
X198.17Y-72.11
X198.17Y-74.65
X198.17Y-77.19
X198.17Y-79.73
X165.989Y-87.884
X168.529Y-87.884
X171.069Y-87.884
X173.609Y-87.884
X176.149Y-87.884
X178.689Y-87.884
X181.229Y-87.884
X159.901Y-100.693
X159.901Y-115.193
X162.4Y-115.193
X164.899Y-100.693
X164.899Y-115.193
X177.4Y-100.073
X177.4Y-102.613
X177.4Y-105.153
X177.4Y-107.693
X177.4Y-110.233
X177.4Y-112.773
X177.4Y-115.313
X189.901Y-100.693
X189.901Y-115.193
X192.4Y-115.193
X194.899Y-100.693
X194.899Y-115.193
T4
X156.9Y-74.15
X156.9Y-79.15
T5
X156.2Y-107.693
X168.6Y-107.693
X186.2Y-107.693
X198.6Y-107.693
T6
X199.4Y-91.15
X155.4Y-92.15
X199.4Y-60.15
X155.4Y-60.15
T0
M30
