%TF.GenerationSoftware,KiCad,Pcbnew,(2017-10-06 revision 4905bbe50)-master*%
%TF.CreationDate,2017-10-08T14:00:52+03:00*%
%TF.ProjectId,dps5005control,64707335303035636F6E74726F6C2E6B,rev?*%
%TF.SameCoordinates,Original*%
%TF.FileFunction,Legend,Bot*%
%TF.FilePolarity,Positive*%
%FSLAX46Y46*%
G04 Gerber Fmt 4.6, Leading zero omitted, Abs format (unit mm)*
G04 Created by KiCad (PCBNEW (2017-10-06 revision 4905bbe50)-master) date Sun Oct  8 14:00:52 2017*
%MOMM*%
%LPD*%
G01*
G04 APERTURE LIST*
%ADD10C,0.300000*%
%ADD11C,0.200000*%
%ADD12C,0.500000*%
%ADD13C,0.010000*%
%ADD14C,0.304800*%
G04 APERTURE END LIST*
D10*
X183082285Y-66312171D02*
X183796571Y-66312171D01*
X183796571Y-64812171D01*
X182582285Y-65526457D02*
X182082285Y-65526457D01*
X181868000Y-66312171D02*
X182582285Y-66312171D01*
X182582285Y-64812171D01*
X181868000Y-64812171D01*
X181225142Y-66312171D02*
X181225142Y-64812171D01*
X180868000Y-64812171D01*
X180653714Y-64883600D01*
X180510857Y-65026457D01*
X180439428Y-65169314D01*
X180368000Y-65455028D01*
X180368000Y-65669314D01*
X180439428Y-65955028D01*
X180510857Y-66097885D01*
X180653714Y-66240742D01*
X180868000Y-66312171D01*
X181225142Y-66312171D01*
X182378314Y-63756314D02*
X182449742Y-63827742D01*
X182664028Y-63899171D01*
X182806885Y-63899171D01*
X183021171Y-63827742D01*
X183164028Y-63684885D01*
X183235457Y-63542028D01*
X183306885Y-63256314D01*
X183306885Y-63042028D01*
X183235457Y-62756314D01*
X183164028Y-62613457D01*
X183021171Y-62470600D01*
X182806885Y-62399171D01*
X182664028Y-62399171D01*
X182449742Y-62470600D01*
X182378314Y-62542028D01*
X180878314Y-63756314D02*
X180949742Y-63827742D01*
X181164028Y-63899171D01*
X181306885Y-63899171D01*
X181521171Y-63827742D01*
X181664028Y-63684885D01*
X181735457Y-63542028D01*
X181806885Y-63256314D01*
X181806885Y-63042028D01*
X181735457Y-62756314D01*
X181664028Y-62613457D01*
X181521171Y-62470600D01*
X181306885Y-62399171D01*
X181164028Y-62399171D01*
X180949742Y-62470600D01*
X180878314Y-62542028D01*
X186588400Y-62484000D02*
X186588400Y-59918600D01*
X193395600Y-62484000D02*
X193395600Y-59918600D01*
X186588400Y-62484000D02*
X193370200Y-62484000D01*
X188617028Y-57700171D02*
X187688457Y-57700171D01*
X188188457Y-58271600D01*
X187974171Y-58271600D01*
X187831314Y-58343028D01*
X187759885Y-58414457D01*
X187688457Y-58557314D01*
X187688457Y-58914457D01*
X187759885Y-59057314D01*
X187831314Y-59128742D01*
X187974171Y-59200171D01*
X188402742Y-59200171D01*
X188545600Y-59128742D01*
X188617028Y-59057314D01*
X187045600Y-59057314D02*
X186974171Y-59128742D01*
X187045600Y-59200171D01*
X187117028Y-59128742D01*
X187045600Y-59057314D01*
X187045600Y-59200171D01*
X186474171Y-57700171D02*
X185545600Y-57700171D01*
X186045600Y-58271600D01*
X185831314Y-58271600D01*
X185688457Y-58343028D01*
X185617028Y-58414457D01*
X185545600Y-58557314D01*
X185545600Y-58914457D01*
X185617028Y-59057314D01*
X185688457Y-59128742D01*
X185831314Y-59200171D01*
X186259885Y-59200171D01*
X186402742Y-59128742D01*
X186474171Y-59057314D01*
X194386057Y-57873200D02*
X194528914Y-57801771D01*
X194743200Y-57801771D01*
X194957485Y-57873200D01*
X195100342Y-58016057D01*
X195171771Y-58158914D01*
X195243200Y-58444628D01*
X195243200Y-58658914D01*
X195171771Y-58944628D01*
X195100342Y-59087485D01*
X194957485Y-59230342D01*
X194743200Y-59301771D01*
X194600342Y-59301771D01*
X194386057Y-59230342D01*
X194314628Y-59158914D01*
X194314628Y-58658914D01*
X194600342Y-58658914D01*
X193671771Y-59301771D02*
X193671771Y-57801771D01*
X192814628Y-59301771D01*
X192814628Y-57801771D01*
X192100342Y-59301771D02*
X192100342Y-57801771D01*
X191743200Y-57801771D01*
X191528914Y-57873200D01*
X191386057Y-58016057D01*
X191314628Y-58158914D01*
X191243200Y-58444628D01*
X191243200Y-58658914D01*
X191314628Y-58944628D01*
X191386057Y-59087485D01*
X191528914Y-59230342D01*
X191743200Y-59301771D01*
X192100342Y-59301771D01*
X189173514Y-63846971D02*
X188316371Y-63846971D01*
X188744942Y-65346971D02*
X188744942Y-63846971D01*
X187959228Y-65346971D02*
X187173514Y-64346971D01*
X187959228Y-64346971D02*
X187173514Y-65346971D01*
X191404857Y-65397771D02*
X191904857Y-64683485D01*
X192262000Y-65397771D02*
X192262000Y-63897771D01*
X191690571Y-63897771D01*
X191547714Y-63969200D01*
X191476285Y-64040628D01*
X191404857Y-64183485D01*
X191404857Y-64397771D01*
X191476285Y-64540628D01*
X191547714Y-64612057D01*
X191690571Y-64683485D01*
X192262000Y-64683485D01*
X190904857Y-65397771D02*
X190119142Y-64397771D01*
X190904857Y-64397771D02*
X190119142Y-65397771D01*
X186613800Y-59918600D02*
X193395600Y-59918600D01*
X193400000Y-81150000D02*
X193400000Y-68150000D01*
X200400000Y-68150000D02*
X200400000Y-81150000D01*
X193400000Y-68150000D02*
X200400000Y-68150000D01*
X200400000Y-81150000D02*
X193400000Y-81150000D01*
X193364285Y-83328571D02*
X193364285Y-81828571D01*
X192721428Y-83257142D02*
X192507142Y-83328571D01*
X192150000Y-83328571D01*
X192007142Y-83257142D01*
X191935714Y-83185714D01*
X191864285Y-83042857D01*
X191864285Y-82900000D01*
X191935714Y-82757142D01*
X192007142Y-82685714D01*
X192150000Y-82614285D01*
X192435714Y-82542857D01*
X192578571Y-82471428D01*
X192650000Y-82400000D01*
X192721428Y-82257142D01*
X192721428Y-82114285D01*
X192650000Y-81971428D01*
X192578571Y-81900000D01*
X192435714Y-81828571D01*
X192078571Y-81828571D01*
X191864285Y-81900000D01*
X191221428Y-83328571D02*
X191221428Y-81828571D01*
X190650000Y-81828571D01*
X190507142Y-81900000D01*
X190435714Y-81971428D01*
X190364285Y-82114285D01*
X190364285Y-82328571D01*
X190435714Y-82471428D01*
X190507142Y-82542857D01*
X190650000Y-82614285D01*
X191221428Y-82614285D01*
D11*
X196636666Y-83783333D02*
X196170000Y-85183333D01*
X195703333Y-83783333D01*
X194436666Y-85050000D02*
X194503333Y-85116666D01*
X194703333Y-85183333D01*
X194836666Y-85183333D01*
X195036666Y-85116666D01*
X195170000Y-84983333D01*
X195236666Y-84850000D01*
X195303333Y-84583333D01*
X195303333Y-84383333D01*
X195236666Y-84116666D01*
X195170000Y-83983333D01*
X195036666Y-83850000D01*
X194836666Y-83783333D01*
X194703333Y-83783333D01*
X194503333Y-83850000D01*
X194436666Y-83916666D01*
X193036666Y-85050000D02*
X193103333Y-85116666D01*
X193303333Y-85183333D01*
X193436666Y-85183333D01*
X193636666Y-85116666D01*
X193770000Y-84983333D01*
X193836666Y-84850000D01*
X193903333Y-84583333D01*
X193903333Y-84383333D01*
X193836666Y-84116666D01*
X193770000Y-83983333D01*
X193636666Y-83850000D01*
X193436666Y-83783333D01*
X193303333Y-83783333D01*
X193103333Y-83850000D01*
X193036666Y-83916666D01*
X191370000Y-85183333D02*
X191370000Y-83783333D01*
X190903333Y-84783333D01*
X190436666Y-83783333D01*
X190436666Y-85183333D01*
X189503333Y-83783333D02*
X189236666Y-83783333D01*
X189103333Y-83850000D01*
X188970000Y-83983333D01*
X188903333Y-84250000D01*
X188903333Y-84716666D01*
X188970000Y-84983333D01*
X189103333Y-85116666D01*
X189236666Y-85183333D01*
X189503333Y-85183333D01*
X189636666Y-85116666D01*
X189770000Y-84983333D01*
X189836666Y-84716666D01*
X189836666Y-84250000D01*
X189770000Y-83983333D01*
X189636666Y-83850000D01*
X189503333Y-83783333D01*
X188370000Y-85116666D02*
X188170000Y-85183333D01*
X187836666Y-85183333D01*
X187703333Y-85116666D01*
X187636666Y-85050000D01*
X187570000Y-84916666D01*
X187570000Y-84783333D01*
X187636666Y-84650000D01*
X187703333Y-84583333D01*
X187836666Y-84516666D01*
X188103333Y-84450000D01*
X188236666Y-84383333D01*
X188303333Y-84316666D01*
X188370000Y-84183333D01*
X188370000Y-84050000D01*
X188303333Y-83916666D01*
X188236666Y-83850000D01*
X188103333Y-83783333D01*
X187770000Y-83783333D01*
X187570000Y-83850000D01*
X186970000Y-85183333D02*
X186970000Y-83783333D01*
X195703333Y-86150000D02*
X195836666Y-86083333D01*
X196036666Y-86083333D01*
X196236666Y-86150000D01*
X196370000Y-86283333D01*
X196436666Y-86416666D01*
X196503333Y-86683333D01*
X196503333Y-86883333D01*
X196436666Y-87150000D01*
X196370000Y-87283333D01*
X196236666Y-87416666D01*
X196036666Y-87483333D01*
X195903333Y-87483333D01*
X195703333Y-87416666D01*
X195636666Y-87350000D01*
X195636666Y-86883333D01*
X195903333Y-86883333D01*
X195036666Y-87483333D02*
X195036666Y-86083333D01*
X194236666Y-87483333D01*
X194236666Y-86083333D01*
X193570000Y-87483333D02*
X193570000Y-86083333D01*
X193236666Y-86083333D01*
X193036666Y-86150000D01*
X192903333Y-86283333D01*
X192836666Y-86416666D01*
X192770000Y-86683333D01*
X192770000Y-86883333D01*
X192836666Y-87150000D01*
X192903333Y-87283333D01*
X193036666Y-87416666D01*
X193236666Y-87483333D01*
X193570000Y-87483333D01*
X191103333Y-87483333D02*
X191103333Y-86083333D01*
X190303333Y-87483333D01*
X190303333Y-86083333D01*
X188836666Y-87350000D02*
X188903333Y-87416666D01*
X189103333Y-87483333D01*
X189236666Y-87483333D01*
X189436666Y-87416666D01*
X189570000Y-87283333D01*
X189636666Y-87150000D01*
X189703333Y-86883333D01*
X189703333Y-86683333D01*
X189636666Y-86416666D01*
X189570000Y-86283333D01*
X189436666Y-86150000D01*
X189236666Y-86083333D01*
X189103333Y-86083333D01*
X188903333Y-86150000D01*
X188836666Y-86216666D01*
X195703333Y-88450000D02*
X195836666Y-88383333D01*
X196036666Y-88383333D01*
X196236666Y-88450000D01*
X196370000Y-88583333D01*
X196436666Y-88716666D01*
X196503333Y-88983333D01*
X196503333Y-89183333D01*
X196436666Y-89450000D01*
X196370000Y-89583333D01*
X196236666Y-89716666D01*
X196036666Y-89783333D01*
X195903333Y-89783333D01*
X195703333Y-89716666D01*
X195636666Y-89650000D01*
X195636666Y-89183333D01*
X195903333Y-89183333D01*
X195036666Y-89783333D02*
X195036666Y-88383333D01*
X194236666Y-89783333D01*
X194236666Y-88383333D01*
X193570000Y-89783333D02*
X193570000Y-88383333D01*
X193236666Y-88383333D01*
X193036666Y-88450000D01*
X192903333Y-88583333D01*
X192836666Y-88716666D01*
X192770000Y-88983333D01*
X192770000Y-89183333D01*
X192836666Y-89450000D01*
X192903333Y-89583333D01*
X193036666Y-89716666D01*
X193236666Y-89783333D01*
X193570000Y-89783333D01*
X190303333Y-89783333D02*
X190770000Y-89116666D01*
X191103333Y-89783333D02*
X191103333Y-88383333D01*
X190570000Y-88383333D01*
X190436666Y-88450000D01*
X190370000Y-88516666D01*
X190303333Y-88650000D01*
X190303333Y-88850000D01*
X190370000Y-88983333D01*
X190436666Y-89050000D01*
X190570000Y-89116666D01*
X191103333Y-89116666D01*
X189770000Y-89716666D02*
X189570000Y-89783333D01*
X189236666Y-89783333D01*
X189103333Y-89716666D01*
X189036666Y-89650000D01*
X188970000Y-89516666D01*
X188970000Y-89383333D01*
X189036666Y-89250000D01*
X189103333Y-89183333D01*
X189236666Y-89116666D01*
X189503333Y-89050000D01*
X189636666Y-88983333D01*
X189703333Y-88916666D01*
X189770000Y-88783333D01*
X189770000Y-88650000D01*
X189703333Y-88516666D01*
X189636666Y-88450000D01*
X189503333Y-88383333D01*
X189170000Y-88383333D01*
X188970000Y-88450000D01*
X188570000Y-88383333D02*
X187770000Y-88383333D01*
X188170000Y-89783333D02*
X188170000Y-88383333D01*
X195703333Y-90750000D02*
X195836666Y-90683333D01*
X196036666Y-90683333D01*
X196236666Y-90750000D01*
X196370000Y-90883333D01*
X196436666Y-91016666D01*
X196503333Y-91283333D01*
X196503333Y-91483333D01*
X196436666Y-91750000D01*
X196370000Y-91883333D01*
X196236666Y-92016666D01*
X196036666Y-92083333D01*
X195903333Y-92083333D01*
X195703333Y-92016666D01*
X195636666Y-91950000D01*
X195636666Y-91483333D01*
X195903333Y-91483333D01*
X195036666Y-92083333D02*
X195036666Y-90683333D01*
X194236666Y-92083333D01*
X194236666Y-90683333D01*
X193570000Y-92083333D02*
X193570000Y-90683333D01*
X193236666Y-90683333D01*
X193036666Y-90750000D01*
X192903333Y-90883333D01*
X192836666Y-91016666D01*
X192770000Y-91283333D01*
X192770000Y-91483333D01*
X192836666Y-91750000D01*
X192903333Y-91883333D01*
X193036666Y-92016666D01*
X193236666Y-92083333D01*
X193570000Y-92083333D01*
X191170000Y-92016666D02*
X190970000Y-92083333D01*
X190636666Y-92083333D01*
X190503333Y-92016666D01*
X190436666Y-91950000D01*
X190370000Y-91816666D01*
X190370000Y-91683333D01*
X190436666Y-91550000D01*
X190503333Y-91483333D01*
X190636666Y-91416666D01*
X190903333Y-91350000D01*
X191036666Y-91283333D01*
X191103333Y-91216666D01*
X191170000Y-91083333D01*
X191170000Y-90950000D01*
X191103333Y-90816666D01*
X191036666Y-90750000D01*
X190903333Y-90683333D01*
X190570000Y-90683333D01*
X190370000Y-90750000D01*
X188970000Y-91950000D02*
X189036666Y-92016666D01*
X189236666Y-92083333D01*
X189370000Y-92083333D01*
X189570000Y-92016666D01*
X189703333Y-91883333D01*
X189770000Y-91750000D01*
X189836666Y-91483333D01*
X189836666Y-91283333D01*
X189770000Y-91016666D01*
X189703333Y-90883333D01*
X189570000Y-90750000D01*
X189370000Y-90683333D01*
X189236666Y-90683333D01*
X189036666Y-90750000D01*
X188970000Y-90816666D01*
X188370000Y-92083333D02*
X188370000Y-90683333D01*
X187570000Y-92083333D02*
X188170000Y-91283333D01*
X187570000Y-90683333D02*
X188370000Y-91483333D01*
X195703333Y-93050000D02*
X195836666Y-92983333D01*
X196036666Y-92983333D01*
X196236666Y-93050000D01*
X196370000Y-93183333D01*
X196436666Y-93316666D01*
X196503333Y-93583333D01*
X196503333Y-93783333D01*
X196436666Y-94050000D01*
X196370000Y-94183333D01*
X196236666Y-94316666D01*
X196036666Y-94383333D01*
X195903333Y-94383333D01*
X195703333Y-94316666D01*
X195636666Y-94250000D01*
X195636666Y-93783333D01*
X195903333Y-93783333D01*
X195036666Y-94383333D02*
X195036666Y-92983333D01*
X194236666Y-94383333D01*
X194236666Y-92983333D01*
X193570000Y-94383333D02*
X193570000Y-92983333D01*
X193236666Y-92983333D01*
X193036666Y-93050000D01*
X192903333Y-93183333D01*
X192836666Y-93316666D01*
X192770000Y-93583333D01*
X192770000Y-93783333D01*
X192836666Y-94050000D01*
X192903333Y-94183333D01*
X193036666Y-94316666D01*
X193236666Y-94383333D01*
X193570000Y-94383333D01*
X191103333Y-94383333D02*
X191103333Y-92983333D01*
X190636666Y-93983333D01*
X190170000Y-92983333D01*
X190170000Y-94383333D01*
X189503333Y-94383333D02*
X189503333Y-92983333D01*
X188903333Y-94316666D02*
X188703333Y-94383333D01*
X188370000Y-94383333D01*
X188236666Y-94316666D01*
X188170000Y-94250000D01*
X188103333Y-94116666D01*
X188103333Y-93983333D01*
X188170000Y-93850000D01*
X188236666Y-93783333D01*
X188370000Y-93716666D01*
X188636666Y-93650000D01*
X188770000Y-93583333D01*
X188836666Y-93516666D01*
X188903333Y-93383333D01*
X188903333Y-93250000D01*
X188836666Y-93116666D01*
X188770000Y-93050000D01*
X188636666Y-92983333D01*
X188303333Y-92983333D01*
X188103333Y-93050000D01*
X187236666Y-92983333D02*
X186970000Y-92983333D01*
X186836666Y-93050000D01*
X186703333Y-93183333D01*
X186636666Y-93450000D01*
X186636666Y-93916666D01*
X186703333Y-94183333D01*
X186836666Y-94316666D01*
X186970000Y-94383333D01*
X187236666Y-94383333D01*
X187370000Y-94316666D01*
X187503333Y-94183333D01*
X187570000Y-93916666D01*
X187570000Y-93450000D01*
X187503333Y-93183333D01*
X187370000Y-93050000D01*
X187236666Y-92983333D01*
D12*
X153138095Y-79245238D02*
X154661904Y-79245238D01*
X153138095Y-74292857D02*
X154661904Y-74292857D01*
X153900000Y-75054761D02*
X153900000Y-73530952D01*
D13*
%TO.C,G\002A\002A\002A*%
G36*
X192350050Y-104189462D02*
X192254111Y-104190311D01*
X192164309Y-104191848D01*
X192084149Y-104194074D01*
X192017134Y-104196990D01*
X191966765Y-104200597D01*
X191936547Y-104204893D01*
X191930118Y-104207279D01*
X191923189Y-104216837D01*
X191915152Y-104237293D01*
X191905561Y-104270638D01*
X191893967Y-104318858D01*
X191879924Y-104383943D01*
X191862985Y-104467881D01*
X191842701Y-104572661D01*
X191818626Y-104700271D01*
X191815755Y-104715636D01*
X191790931Y-104846557D01*
X191768540Y-104960491D01*
X191748892Y-105055998D01*
X191732300Y-105131637D01*
X191719075Y-105185968D01*
X191709528Y-105217550D01*
X191705690Y-105224985D01*
X191688543Y-105234976D01*
X191651472Y-105252558D01*
X191598226Y-105276206D01*
X191532552Y-105304393D01*
X191458198Y-105335594D01*
X191378913Y-105368281D01*
X191298444Y-105400930D01*
X191220539Y-105432012D01*
X191148947Y-105460003D01*
X191087415Y-105483376D01*
X191039691Y-105500605D01*
X191009524Y-105510164D01*
X191001832Y-105511599D01*
X190985684Y-105504594D01*
X190951140Y-105484623D01*
X190900636Y-105453259D01*
X190836605Y-105412070D01*
X190761483Y-105362628D01*
X190677705Y-105306502D01*
X190643165Y-105283000D01*
X190411100Y-105283000D01*
X190411100Y-106019600D01*
X190227576Y-106019600D01*
X190155555Y-106018628D01*
X190086821Y-106015965D01*
X190028195Y-106011991D01*
X189986495Y-106007086D01*
X189979722Y-106005803D01*
X189901920Y-105977450D01*
X189829528Y-105929595D01*
X189770666Y-105867994D01*
X189757050Y-105848001D01*
X189739987Y-105818985D01*
X189728957Y-105793513D01*
X189722651Y-105764824D01*
X189719759Y-105726157D01*
X189718972Y-105670749D01*
X189718950Y-105651300D01*
X189719381Y-105589996D01*
X189721555Y-105547288D01*
X189726793Y-105516376D01*
X189736419Y-105490460D01*
X189751755Y-105462739D01*
X189757421Y-105453454D01*
X189811543Y-105387835D01*
X189882164Y-105335306D01*
X189961562Y-105301308D01*
X189979719Y-105296796D01*
X190016305Y-105291723D01*
X190071467Y-105287489D01*
X190138383Y-105284474D01*
X190210235Y-105283059D01*
X190227576Y-105282999D01*
X190411100Y-105283000D01*
X190643165Y-105283000D01*
X190587704Y-105245264D01*
X190569249Y-105232594D01*
X190478340Y-105170524D01*
X190393216Y-105113234D01*
X190316305Y-105062296D01*
X190250034Y-105019282D01*
X190196830Y-104985763D01*
X190159122Y-104963313D01*
X190139337Y-104953501D01*
X190137743Y-104953194D01*
X190120842Y-104962364D01*
X190086828Y-104990041D01*
X190035845Y-105036091D01*
X189968033Y-105100381D01*
X189883537Y-105182780D01*
X189782498Y-105283153D01*
X189765823Y-105299852D01*
X189675276Y-105390899D01*
X189601459Y-105465828D01*
X189542913Y-105526250D01*
X189498177Y-105573773D01*
X189465789Y-105610008D01*
X189444289Y-105636563D01*
X189432216Y-105655048D01*
X189428110Y-105667071D01*
X189428646Y-105671327D01*
X189437724Y-105687163D01*
X189459539Y-105721377D01*
X189492408Y-105771441D01*
X189534646Y-105834827D01*
X189584568Y-105909004D01*
X189640489Y-105991444D01*
X189697275Y-106074585D01*
X189757597Y-106163045D01*
X189813696Y-106246139D01*
X189863846Y-106321246D01*
X189906322Y-106385746D01*
X189939396Y-106437020D01*
X189961343Y-106472448D01*
X189970236Y-106488832D01*
X189973213Y-106501109D01*
X189972920Y-106516972D01*
X189968404Y-106539109D01*
X189958715Y-106570208D01*
X189942901Y-106612958D01*
X189920011Y-106670047D01*
X189889093Y-106744163D01*
X189849197Y-106837995D01*
X189834648Y-106871996D01*
X189796410Y-106960535D01*
X189760660Y-107041928D01*
X189728793Y-107113107D01*
X189702203Y-107171005D01*
X189682285Y-107212555D01*
X189670432Y-107234689D01*
X189668661Y-107237081D01*
X189652208Y-107243586D01*
X189613080Y-107253945D01*
X189553626Y-107267654D01*
X189476193Y-107284208D01*
X189383131Y-107303104D01*
X189276787Y-107323836D01*
X189177290Y-107342604D01*
X189044621Y-107367557D01*
X188935469Y-107388747D01*
X188848283Y-107406521D01*
X188781514Y-107421221D01*
X188733612Y-107433193D01*
X188703027Y-107442780D01*
X188688210Y-107450327D01*
X188687075Y-107451524D01*
X188682727Y-107463524D01*
X188679177Y-107488344D01*
X188676364Y-107527895D01*
X188674227Y-107584087D01*
X188672707Y-107658829D01*
X188671741Y-107754032D01*
X188671271Y-107871604D01*
X188671200Y-107951520D01*
X188671307Y-108076266D01*
X188671689Y-108178029D01*
X188672445Y-108259224D01*
X188673670Y-108322266D01*
X188675461Y-108369572D01*
X188677915Y-108403556D01*
X188681128Y-108426636D01*
X188685197Y-108441226D01*
X188690219Y-108449742D01*
X188691158Y-108450742D01*
X188710783Y-108466693D01*
X188720284Y-108470700D01*
X188738746Y-108473050D01*
X188778292Y-108479655D01*
X188835445Y-108489842D01*
X188906729Y-108502940D01*
X188988667Y-108518279D01*
X189077783Y-108535188D01*
X189170601Y-108552994D01*
X189263646Y-108571027D01*
X189353440Y-108588616D01*
X189436507Y-108605089D01*
X189509372Y-108619776D01*
X189568557Y-108632004D01*
X189610587Y-108641104D01*
X189631986Y-108646404D01*
X189633701Y-108647055D01*
X189644941Y-108662413D01*
X189664282Y-108699968D01*
X189691001Y-108758097D01*
X189724377Y-108835178D01*
X189763688Y-108929588D01*
X189807042Y-109036774D01*
X189849422Y-109143306D01*
X189882958Y-109228894D01*
X189908499Y-109296071D01*
X189926898Y-109347369D01*
X189939005Y-109385321D01*
X189945672Y-109412459D01*
X189947750Y-109431315D01*
X189946090Y-109444423D01*
X189945066Y-109447422D01*
X189935038Y-109465332D01*
X189912300Y-109501511D01*
X189878587Y-109553335D01*
X189835636Y-109618182D01*
X189785181Y-109693428D01*
X189728960Y-109776451D01*
X189676336Y-109853508D01*
X189617173Y-109940173D01*
X189562844Y-110020472D01*
X189514972Y-110091948D01*
X189475183Y-110152147D01*
X189445101Y-110198612D01*
X189426349Y-110228887D01*
X189420500Y-110240316D01*
X189429257Y-110253157D01*
X189453922Y-110281207D01*
X189492089Y-110322076D01*
X189541354Y-110373375D01*
X189599311Y-110432712D01*
X189663553Y-110497698D01*
X189731675Y-110565943D01*
X189801272Y-110635057D01*
X189869937Y-110702649D01*
X189935265Y-110766329D01*
X189994850Y-110823707D01*
X190046287Y-110872393D01*
X190087169Y-110909997D01*
X190115092Y-110934129D01*
X190127096Y-110942339D01*
X190140230Y-110940625D01*
X190163644Y-110930451D01*
X190199004Y-110910784D01*
X190247974Y-110880590D01*
X190312218Y-110838837D01*
X190393401Y-110784491D01*
X190493186Y-110716520D01*
X190515293Y-110701356D01*
X190601564Y-110642343D01*
X190682364Y-110587484D01*
X190755018Y-110538563D01*
X190816848Y-110497368D01*
X190865176Y-110465686D01*
X190897325Y-110445301D01*
X190909300Y-110438461D01*
X190923351Y-110433826D01*
X190939667Y-110433776D01*
X190961999Y-110439733D01*
X190994095Y-110453116D01*
X191039703Y-110475346D01*
X191102574Y-110507841D01*
X191128720Y-110521571D01*
X191193945Y-110554921D01*
X191249863Y-110581630D01*
X191292913Y-110600128D01*
X191319536Y-110608846D01*
X191326243Y-110608637D01*
X191332752Y-110595429D01*
X191347939Y-110561055D01*
X191370836Y-110507847D01*
X191400474Y-110438137D01*
X191435886Y-110354257D01*
X191476103Y-110258538D01*
X191485539Y-110236000D01*
X190519050Y-110236000D01*
X190518240Y-110300221D01*
X190515146Y-110345734D01*
X190508773Y-110379196D01*
X190498128Y-110407268D01*
X190491552Y-110420150D01*
X190442490Y-110489332D01*
X190378835Y-110547366D01*
X190307995Y-110587755D01*
X190294607Y-110592804D01*
X190229785Y-110608080D01*
X190152909Y-110615465D01*
X190073472Y-110614933D01*
X190000970Y-110606456D01*
X189953900Y-110593769D01*
X189896750Y-110571920D01*
X189892966Y-110485248D01*
X189892431Y-110443004D01*
X189894597Y-110413773D01*
X189898999Y-110403544D01*
X189899316Y-110403661D01*
X189964900Y-110434927D01*
X190015713Y-110454691D01*
X190058419Y-110465081D01*
X190099682Y-110468223D01*
X190101604Y-110468228D01*
X190174351Y-110457231D01*
X190234158Y-110426040D01*
X190279087Y-110377356D01*
X190307197Y-110313878D01*
X190316551Y-110238308D01*
X190310476Y-110177349D01*
X190286157Y-110105969D01*
X190244112Y-110052380D01*
X190185977Y-110017941D01*
X190113386Y-110004008D01*
X190101604Y-110003771D01*
X190055046Y-110007671D01*
X190005542Y-110020792D01*
X189946421Y-110045263D01*
X189899925Y-110068135D01*
X189895145Y-110059129D01*
X189891726Y-110030828D01*
X189890401Y-109989331D01*
X189890400Y-109988760D01*
X189890400Y-109904503D01*
X189938025Y-109883542D01*
X189989490Y-109868592D01*
X190056986Y-109859602D01*
X190131792Y-109856833D01*
X190205188Y-109860541D01*
X190268453Y-109870987D01*
X190277622Y-109873466D01*
X190350529Y-109906234D01*
X190418525Y-109958010D01*
X190474081Y-110022534D01*
X190491546Y-110051279D01*
X190504499Y-110079446D01*
X190512713Y-110109930D01*
X190517183Y-110149420D01*
X190518906Y-110204606D01*
X190519050Y-110236000D01*
X191485539Y-110236000D01*
X191520158Y-110153313D01*
X191567083Y-110040913D01*
X191615910Y-109923669D01*
X191665671Y-109803914D01*
X191715398Y-109683980D01*
X191764123Y-109566198D01*
X191810879Y-109452900D01*
X191854696Y-109346418D01*
X191894609Y-109249083D01*
X191929647Y-109163227D01*
X191958845Y-109091183D01*
X191981232Y-109035282D01*
X191995843Y-108997855D01*
X192001616Y-108981621D01*
X191999967Y-108952842D01*
X191981603Y-108933813D01*
X191869386Y-108853945D01*
X191776557Y-108782319D01*
X191699810Y-108715773D01*
X191635837Y-108651146D01*
X191581331Y-108585275D01*
X191532985Y-108514999D01*
X191518032Y-108490659D01*
X191453264Y-108365151D01*
X191437581Y-108319870D01*
X189445900Y-108319870D01*
X189214125Y-108315910D01*
X189128575Y-108314110D01*
X189064228Y-108311762D01*
X189016888Y-108308441D01*
X188982361Y-108303726D01*
X188956450Y-108297192D01*
X188934958Y-108288416D01*
X188933226Y-108287566D01*
X188881687Y-108250946D01*
X188850071Y-108200920D01*
X188836952Y-108134952D01*
X188836395Y-108115100D01*
X188845253Y-108046128D01*
X188870251Y-107989087D01*
X188909026Y-107949257D01*
X188911211Y-107947857D01*
X188925366Y-107937197D01*
X188926566Y-107925717D01*
X188913226Y-107906502D01*
X188897565Y-107888363D01*
X188876612Y-107862395D01*
X188865672Y-107839315D01*
X188862302Y-107809882D01*
X188864062Y-107764857D01*
X188864231Y-107762192D01*
X188868601Y-107715115D01*
X188876545Y-107684595D01*
X188891446Y-107661788D01*
X188909357Y-107644309D01*
X188937671Y-107622479D01*
X188969665Y-107606233D01*
X189009438Y-107594808D01*
X189061089Y-107587444D01*
X189128719Y-107583378D01*
X189216424Y-107581848D01*
X189245875Y-107581770D01*
X189445900Y-107581700D01*
X189445900Y-108319870D01*
X191437581Y-108319870D01*
X191408752Y-108236633D01*
X191383038Y-108099544D01*
X191374664Y-107948323D01*
X191374665Y-107943650D01*
X191386774Y-107784895D01*
X191421277Y-107634874D01*
X191476266Y-107494934D01*
X191549833Y-107366423D01*
X191640069Y-107250688D01*
X191745066Y-107149076D01*
X191862916Y-107062937D01*
X191991710Y-106993616D01*
X192129540Y-106942462D01*
X192274499Y-106910822D01*
X192424677Y-106900044D01*
X192578166Y-106911475D01*
X192733058Y-106946464D01*
X192769863Y-106958390D01*
X192917552Y-107022236D01*
X193051757Y-107107182D01*
X193171193Y-107212048D01*
X193274576Y-107335655D01*
X193360622Y-107476824D01*
X193381827Y-107520187D01*
X193430165Y-107642733D01*
X193459862Y-107765183D01*
X193472829Y-107896468D01*
X193473768Y-107950000D01*
X193462382Y-108116203D01*
X193428355Y-108271345D01*
X193371153Y-108416866D01*
X193290246Y-108554206D01*
X193214740Y-108651487D01*
X193174394Y-108692751D01*
X193116385Y-108744167D01*
X193044656Y-108802537D01*
X192963152Y-108864664D01*
X192875819Y-108927347D01*
X192866498Y-108933813D01*
X192846250Y-108957341D01*
X192846485Y-108981621D01*
X192852926Y-108999612D01*
X192868052Y-109038264D01*
X192890895Y-109095244D01*
X192920486Y-109168221D01*
X192955858Y-109254864D01*
X192996043Y-109352840D01*
X193040073Y-109459817D01*
X193086981Y-109573465D01*
X193135797Y-109691450D01*
X193185554Y-109811441D01*
X193235285Y-109931107D01*
X193284022Y-110048116D01*
X193330795Y-110160136D01*
X193374639Y-110264834D01*
X193414583Y-110359880D01*
X193449662Y-110442942D01*
X193478906Y-110511687D01*
X193501349Y-110563784D01*
X193516021Y-110596901D01*
X193521858Y-110608637D01*
X193536443Y-110606809D01*
X193569674Y-110594221D01*
X193617991Y-110572445D01*
X193677835Y-110543049D01*
X193719381Y-110521571D01*
X193789019Y-110485237D01*
X193840111Y-110459655D01*
X193876408Y-110443405D01*
X193901659Y-110435067D01*
X193919612Y-110433221D01*
X193934016Y-110436447D01*
X193938801Y-110438461D01*
X193956860Y-110449057D01*
X193993128Y-110472307D01*
X194044920Y-110506419D01*
X194109554Y-110549605D01*
X194184346Y-110600072D01*
X194266610Y-110656031D01*
X194331325Y-110700338D01*
X194416732Y-110758547D01*
X194496163Y-110811866D01*
X194567044Y-110858631D01*
X194626801Y-110897176D01*
X194672859Y-110925835D01*
X194702646Y-110942944D01*
X194712914Y-110947200D01*
X194726537Y-110938482D01*
X194755911Y-110913633D01*
X194798955Y-110874609D01*
X194853589Y-110823367D01*
X194917730Y-110761864D01*
X194989299Y-110692057D01*
X195066214Y-110615901D01*
X195081268Y-110600867D01*
X195158313Y-110523473D01*
X195229399Y-110451389D01*
X195292579Y-110386643D01*
X195345902Y-110331263D01*
X195387420Y-110287276D01*
X195415184Y-110256709D01*
X195427244Y-110241590D01*
X195427600Y-110240600D01*
X195420649Y-110227239D01*
X195400878Y-110195442D01*
X195369912Y-110147668D01*
X195329376Y-110086375D01*
X195313219Y-110062262D01*
X195008522Y-110062262D01*
X195006570Y-110124080D01*
X194993162Y-110177271D01*
X194989380Y-110185336D01*
X194958221Y-110222613D01*
X194907419Y-110257103D01*
X194842726Y-110285460D01*
X194792600Y-110299792D01*
X194717996Y-110319044D01*
X194666408Y-110338559D01*
X194635499Y-110360091D01*
X194622931Y-110385391D01*
X194626363Y-110416212D01*
X194628573Y-110422681D01*
X194652169Y-110451826D01*
X194694754Y-110467113D01*
X194754093Y-110468638D01*
X194827954Y-110456498D01*
X194914101Y-110430791D01*
X194973575Y-110407715D01*
X194985510Y-110405308D01*
X194992221Y-110413940D01*
X194995165Y-110438454D01*
X194995800Y-110481541D01*
X194994190Y-110525101D01*
X194989982Y-110557686D01*
X194984452Y-110571715D01*
X194941959Y-110588907D01*
X194881305Y-110601809D01*
X194809252Y-110610180D01*
X194732564Y-110613775D01*
X194658005Y-110612352D01*
X194592338Y-110605668D01*
X194542327Y-110593480D01*
X194530077Y-110588031D01*
X194480214Y-110551307D01*
X194447653Y-110501685D01*
X194430409Y-110435443D01*
X194426903Y-110394806D01*
X194426283Y-110341410D01*
X194431081Y-110304363D01*
X194442751Y-110274921D01*
X194448433Y-110265265D01*
X194471372Y-110234191D01*
X194499110Y-110210133D01*
X194536859Y-110190278D01*
X194589833Y-110171813D01*
X194654260Y-110154205D01*
X194719652Y-110137284D01*
X194764534Y-110124679D01*
X194793059Y-110114630D01*
X194809382Y-110105381D01*
X194817654Y-110095173D01*
X194821756Y-110083311D01*
X194819506Y-110050471D01*
X194795870Y-110025363D01*
X194754001Y-110009173D01*
X194697053Y-110003087D01*
X194628182Y-110008291D01*
X194623931Y-110008957D01*
X194578984Y-110017547D01*
X194541863Y-110027021D01*
X194524800Y-110033389D01*
X194499702Y-110043804D01*
X194484694Y-110039652D01*
X194477322Y-110017542D01*
X194475134Y-109974083D01*
X194475100Y-109964703D01*
X194475100Y-109883906D01*
X194547069Y-109869453D01*
X194595392Y-109862488D01*
X194656948Y-109857363D01*
X194719588Y-109855045D01*
X194728528Y-109855000D01*
X194819651Y-109861438D01*
X194891312Y-109881455D01*
X194946143Y-109916102D01*
X194979823Y-109955303D01*
X194999459Y-110002456D01*
X195008522Y-110062262D01*
X195313219Y-110062262D01*
X195280893Y-110014020D01*
X195226090Y-109933063D01*
X195171765Y-109853508D01*
X195111917Y-109765824D01*
X195056313Y-109683615D01*
X195006690Y-109609505D01*
X194964784Y-109546116D01*
X194932332Y-109496073D01*
X194911069Y-109462000D01*
X194903004Y-109447341D01*
X194900284Y-109434897D01*
X194901204Y-109417447D01*
X194906651Y-109392303D01*
X194917513Y-109356774D01*
X194934676Y-109308171D01*
X194959028Y-109243803D01*
X194991455Y-109160981D01*
X195026580Y-109072691D01*
X195070799Y-108962121D01*
X195106694Y-108872807D01*
X195135330Y-108802407D01*
X195157771Y-108748577D01*
X195175083Y-108708973D01*
X195188331Y-108681250D01*
X195198579Y-108663067D01*
X195206894Y-108652078D01*
X195214340Y-108645940D01*
X195221983Y-108642310D01*
X195222206Y-108642223D01*
X195238235Y-108638424D01*
X195275726Y-108630676D01*
X195331181Y-108619640D01*
X195401100Y-108605980D01*
X195481984Y-108590358D01*
X195570332Y-108573438D01*
X195662645Y-108555881D01*
X195755423Y-108538352D01*
X195845167Y-108521512D01*
X195928377Y-108506025D01*
X196001553Y-108492553D01*
X196061195Y-108481759D01*
X196103805Y-108474307D01*
X196125882Y-108470858D01*
X196127817Y-108470700D01*
X196143144Y-108462701D01*
X196156943Y-108450742D01*
X196162134Y-108443006D01*
X196166355Y-108429599D01*
X196169705Y-108408106D01*
X196172279Y-108376111D01*
X196174174Y-108331199D01*
X196174455Y-108318300D01*
X196024500Y-108318300D01*
X195834000Y-108318300D01*
X195834000Y-108064300D01*
X195729225Y-108064229D01*
X195645781Y-108061083D01*
X195581644Y-108050874D01*
X195531374Y-108032252D01*
X195491039Y-108005149D01*
X195449063Y-107960571D01*
X195424819Y-107909312D01*
X195415323Y-107844232D01*
X195414900Y-107823000D01*
X195420870Y-107752876D01*
X195440767Y-107698534D01*
X195477578Y-107652833D01*
X195491039Y-107640850D01*
X195519650Y-107620089D01*
X195551961Y-107604675D01*
X195592113Y-107593875D01*
X195644250Y-107586955D01*
X195712513Y-107583181D01*
X195801045Y-107581819D01*
X195824475Y-107581770D01*
X196024500Y-107581700D01*
X196024500Y-108318300D01*
X196174455Y-108318300D01*
X196175487Y-108270954D01*
X196176314Y-108192960D01*
X196176752Y-108094802D01*
X196176898Y-107974063D01*
X196176901Y-107951520D01*
X196176691Y-107819975D01*
X196176023Y-107711918D01*
X196174834Y-107625438D01*
X196173065Y-107558626D01*
X196170655Y-107509571D01*
X196167544Y-107476365D01*
X196163670Y-107457097D01*
X196161026Y-107451524D01*
X196148950Y-107444317D01*
X196121394Y-107435132D01*
X196076806Y-107423627D01*
X196013637Y-107409456D01*
X195930337Y-107392276D01*
X195825357Y-107371742D01*
X195697147Y-107347510D01*
X195670811Y-107342604D01*
X195554990Y-107320702D01*
X195450446Y-107300207D01*
X195359527Y-107281623D01*
X195284582Y-107265455D01*
X195227960Y-107252205D01*
X195192008Y-107242380D01*
X195179440Y-107237081D01*
X195170272Y-107221352D01*
X195152621Y-107185290D01*
X195127880Y-107131962D01*
X195097446Y-107064435D01*
X195062712Y-106985777D01*
X195025073Y-106899055D01*
X195013453Y-106871996D01*
X194970538Y-106771410D01*
X194936900Y-106691385D01*
X194911589Y-106629233D01*
X194893653Y-106582265D01*
X194882141Y-106547793D01*
X194876101Y-106523128D01*
X194874583Y-106505582D01*
X194876634Y-106492468D01*
X194877865Y-106488832D01*
X194887987Y-106470386D01*
X194910834Y-106433672D01*
X194944678Y-106381308D01*
X194987793Y-106315916D01*
X195038452Y-106240115D01*
X195094930Y-106156525D01*
X195150826Y-106074585D01*
X195210865Y-105986664D01*
X195266496Y-105904619D01*
X195316033Y-105830978D01*
X195357792Y-105768270D01*
X195390088Y-105719024D01*
X195411236Y-105685770D01*
X195419455Y-105671327D01*
X195418935Y-105662042D01*
X195411212Y-105647139D01*
X195394827Y-105625007D01*
X195368318Y-105594037D01*
X195330224Y-105552621D01*
X195279085Y-105499149D01*
X195213441Y-105432010D01*
X195131829Y-105349597D01*
X195116094Y-105333800D01*
X194932300Y-105333800D01*
X194932300Y-106070400D01*
X194741800Y-106070400D01*
X194741800Y-105765600D01*
X194437000Y-105765600D01*
X194437000Y-105625900D01*
X194741800Y-105625900D01*
X194741800Y-105473500D01*
X194411600Y-105473500D01*
X194411600Y-105333800D01*
X194932300Y-105333800D01*
X195116094Y-105333800D01*
X195082278Y-105299852D01*
X194979851Y-105197871D01*
X194893386Y-105113265D01*
X194823137Y-105046275D01*
X194769360Y-104997136D01*
X194732309Y-104966088D01*
X194712241Y-104953367D01*
X194710358Y-104953041D01*
X194694457Y-104960104D01*
X194660156Y-104980134D01*
X194609880Y-105011557D01*
X194546058Y-105052803D01*
X194471116Y-105102298D01*
X194387481Y-105158470D01*
X194297580Y-105219747D01*
X194279112Y-105232441D01*
X194188230Y-105294549D01*
X194103106Y-105351857D01*
X194026169Y-105402793D01*
X193959852Y-105445786D01*
X193906584Y-105479263D01*
X193868795Y-105501654D01*
X193848918Y-105511385D01*
X193847312Y-105511674D01*
X193825372Y-105506860D01*
X193784538Y-105493377D01*
X193728470Y-105472757D01*
X193660828Y-105446535D01*
X193585270Y-105416244D01*
X193505457Y-105383416D01*
X193425046Y-105349586D01*
X193347699Y-105316286D01*
X193277073Y-105285050D01*
X193216828Y-105257411D01*
X193170625Y-105234902D01*
X193142121Y-105219058D01*
X193134874Y-105213150D01*
X193129023Y-105195286D01*
X193119289Y-105155309D01*
X193106271Y-105096108D01*
X193090565Y-105020570D01*
X193072771Y-104931583D01*
X193053487Y-104832037D01*
X193033310Y-104724819D01*
X193029806Y-104705878D01*
X193005894Y-104577441D01*
X192985765Y-104472003D01*
X192968961Y-104387521D01*
X192959331Y-104342211D01*
X192798700Y-104342211D01*
X192798700Y-104990900D01*
X192646887Y-104990900D01*
X192643419Y-104766499D01*
X192639950Y-104542098D01*
X192570100Y-104702806D01*
X192500250Y-104863515D01*
X192373250Y-104863515D01*
X192303400Y-104702806D01*
X192233550Y-104542098D01*
X192226614Y-104990900D01*
X192074800Y-104990900D01*
X192074800Y-104342211D01*
X192183009Y-104345880D01*
X192291218Y-104349550D01*
X192351511Y-104482900D01*
X192376871Y-104539098D01*
X192399425Y-104589279D01*
X192416475Y-104627428D01*
X192424606Y-104645857D01*
X192430585Y-104655475D01*
X192437873Y-104655114D01*
X192448242Y-104641978D01*
X192463462Y-104613278D01*
X192485303Y-104566220D01*
X192509161Y-104512507D01*
X192580914Y-104349550D01*
X192689807Y-104345880D01*
X192798700Y-104342211D01*
X192959331Y-104342211D01*
X192955025Y-104321951D01*
X192943498Y-104273249D01*
X192933922Y-104239370D01*
X192925841Y-104218273D01*
X192918795Y-104207911D01*
X192918153Y-104207403D01*
X192899223Y-104202760D01*
X192858406Y-104198801D01*
X192799205Y-104195528D01*
X192725123Y-104192941D01*
X192639663Y-104191041D01*
X192546329Y-104189828D01*
X192448624Y-104189301D01*
X192350050Y-104189462D01*
X192350050Y-104189462D01*
G37*
X192350050Y-104189462D02*
X192254111Y-104190311D01*
X192164309Y-104191848D01*
X192084149Y-104194074D01*
X192017134Y-104196990D01*
X191966765Y-104200597D01*
X191936547Y-104204893D01*
X191930118Y-104207279D01*
X191923189Y-104216837D01*
X191915152Y-104237293D01*
X191905561Y-104270638D01*
X191893967Y-104318858D01*
X191879924Y-104383943D01*
X191862985Y-104467881D01*
X191842701Y-104572661D01*
X191818626Y-104700271D01*
X191815755Y-104715636D01*
X191790931Y-104846557D01*
X191768540Y-104960491D01*
X191748892Y-105055998D01*
X191732300Y-105131637D01*
X191719075Y-105185968D01*
X191709528Y-105217550D01*
X191705690Y-105224985D01*
X191688543Y-105234976D01*
X191651472Y-105252558D01*
X191598226Y-105276206D01*
X191532552Y-105304393D01*
X191458198Y-105335594D01*
X191378913Y-105368281D01*
X191298444Y-105400930D01*
X191220539Y-105432012D01*
X191148947Y-105460003D01*
X191087415Y-105483376D01*
X191039691Y-105500605D01*
X191009524Y-105510164D01*
X191001832Y-105511599D01*
X190985684Y-105504594D01*
X190951140Y-105484623D01*
X190900636Y-105453259D01*
X190836605Y-105412070D01*
X190761483Y-105362628D01*
X190677705Y-105306502D01*
X190643165Y-105283000D01*
X190411100Y-105283000D01*
X190411100Y-106019600D01*
X190227576Y-106019600D01*
X190155555Y-106018628D01*
X190086821Y-106015965D01*
X190028195Y-106011991D01*
X189986495Y-106007086D01*
X189979722Y-106005803D01*
X189901920Y-105977450D01*
X189829528Y-105929595D01*
X189770666Y-105867994D01*
X189757050Y-105848001D01*
X189739987Y-105818985D01*
X189728957Y-105793513D01*
X189722651Y-105764824D01*
X189719759Y-105726157D01*
X189718972Y-105670749D01*
X189718950Y-105651300D01*
X189719381Y-105589996D01*
X189721555Y-105547288D01*
X189726793Y-105516376D01*
X189736419Y-105490460D01*
X189751755Y-105462739D01*
X189757421Y-105453454D01*
X189811543Y-105387835D01*
X189882164Y-105335306D01*
X189961562Y-105301308D01*
X189979719Y-105296796D01*
X190016305Y-105291723D01*
X190071467Y-105287489D01*
X190138383Y-105284474D01*
X190210235Y-105283059D01*
X190227576Y-105282999D01*
X190411100Y-105283000D01*
X190643165Y-105283000D01*
X190587704Y-105245264D01*
X190569249Y-105232594D01*
X190478340Y-105170524D01*
X190393216Y-105113234D01*
X190316305Y-105062296D01*
X190250034Y-105019282D01*
X190196830Y-104985763D01*
X190159122Y-104963313D01*
X190139337Y-104953501D01*
X190137743Y-104953194D01*
X190120842Y-104962364D01*
X190086828Y-104990041D01*
X190035845Y-105036091D01*
X189968033Y-105100381D01*
X189883537Y-105182780D01*
X189782498Y-105283153D01*
X189765823Y-105299852D01*
X189675276Y-105390899D01*
X189601459Y-105465828D01*
X189542913Y-105526250D01*
X189498177Y-105573773D01*
X189465789Y-105610008D01*
X189444289Y-105636563D01*
X189432216Y-105655048D01*
X189428110Y-105667071D01*
X189428646Y-105671327D01*
X189437724Y-105687163D01*
X189459539Y-105721377D01*
X189492408Y-105771441D01*
X189534646Y-105834827D01*
X189584568Y-105909004D01*
X189640489Y-105991444D01*
X189697275Y-106074585D01*
X189757597Y-106163045D01*
X189813696Y-106246139D01*
X189863846Y-106321246D01*
X189906322Y-106385746D01*
X189939396Y-106437020D01*
X189961343Y-106472448D01*
X189970236Y-106488832D01*
X189973213Y-106501109D01*
X189972920Y-106516972D01*
X189968404Y-106539109D01*
X189958715Y-106570208D01*
X189942901Y-106612958D01*
X189920011Y-106670047D01*
X189889093Y-106744163D01*
X189849197Y-106837995D01*
X189834648Y-106871996D01*
X189796410Y-106960535D01*
X189760660Y-107041928D01*
X189728793Y-107113107D01*
X189702203Y-107171005D01*
X189682285Y-107212555D01*
X189670432Y-107234689D01*
X189668661Y-107237081D01*
X189652208Y-107243586D01*
X189613080Y-107253945D01*
X189553626Y-107267654D01*
X189476193Y-107284208D01*
X189383131Y-107303104D01*
X189276787Y-107323836D01*
X189177290Y-107342604D01*
X189044621Y-107367557D01*
X188935469Y-107388747D01*
X188848283Y-107406521D01*
X188781514Y-107421221D01*
X188733612Y-107433193D01*
X188703027Y-107442780D01*
X188688210Y-107450327D01*
X188687075Y-107451524D01*
X188682727Y-107463524D01*
X188679177Y-107488344D01*
X188676364Y-107527895D01*
X188674227Y-107584087D01*
X188672707Y-107658829D01*
X188671741Y-107754032D01*
X188671271Y-107871604D01*
X188671200Y-107951520D01*
X188671307Y-108076266D01*
X188671689Y-108178029D01*
X188672445Y-108259224D01*
X188673670Y-108322266D01*
X188675461Y-108369572D01*
X188677915Y-108403556D01*
X188681128Y-108426636D01*
X188685197Y-108441226D01*
X188690219Y-108449742D01*
X188691158Y-108450742D01*
X188710783Y-108466693D01*
X188720284Y-108470700D01*
X188738746Y-108473050D01*
X188778292Y-108479655D01*
X188835445Y-108489842D01*
X188906729Y-108502940D01*
X188988667Y-108518279D01*
X189077783Y-108535188D01*
X189170601Y-108552994D01*
X189263646Y-108571027D01*
X189353440Y-108588616D01*
X189436507Y-108605089D01*
X189509372Y-108619776D01*
X189568557Y-108632004D01*
X189610587Y-108641104D01*
X189631986Y-108646404D01*
X189633701Y-108647055D01*
X189644941Y-108662413D01*
X189664282Y-108699968D01*
X189691001Y-108758097D01*
X189724377Y-108835178D01*
X189763688Y-108929588D01*
X189807042Y-109036774D01*
X189849422Y-109143306D01*
X189882958Y-109228894D01*
X189908499Y-109296071D01*
X189926898Y-109347369D01*
X189939005Y-109385321D01*
X189945672Y-109412459D01*
X189947750Y-109431315D01*
X189946090Y-109444423D01*
X189945066Y-109447422D01*
X189935038Y-109465332D01*
X189912300Y-109501511D01*
X189878587Y-109553335D01*
X189835636Y-109618182D01*
X189785181Y-109693428D01*
X189728960Y-109776451D01*
X189676336Y-109853508D01*
X189617173Y-109940173D01*
X189562844Y-110020472D01*
X189514972Y-110091948D01*
X189475183Y-110152147D01*
X189445101Y-110198612D01*
X189426349Y-110228887D01*
X189420500Y-110240316D01*
X189429257Y-110253157D01*
X189453922Y-110281207D01*
X189492089Y-110322076D01*
X189541354Y-110373375D01*
X189599311Y-110432712D01*
X189663553Y-110497698D01*
X189731675Y-110565943D01*
X189801272Y-110635057D01*
X189869937Y-110702649D01*
X189935265Y-110766329D01*
X189994850Y-110823707D01*
X190046287Y-110872393D01*
X190087169Y-110909997D01*
X190115092Y-110934129D01*
X190127096Y-110942339D01*
X190140230Y-110940625D01*
X190163644Y-110930451D01*
X190199004Y-110910784D01*
X190247974Y-110880590D01*
X190312218Y-110838837D01*
X190393401Y-110784491D01*
X190493186Y-110716520D01*
X190515293Y-110701356D01*
X190601564Y-110642343D01*
X190682364Y-110587484D01*
X190755018Y-110538563D01*
X190816848Y-110497368D01*
X190865176Y-110465686D01*
X190897325Y-110445301D01*
X190909300Y-110438461D01*
X190923351Y-110433826D01*
X190939667Y-110433776D01*
X190961999Y-110439733D01*
X190994095Y-110453116D01*
X191039703Y-110475346D01*
X191102574Y-110507841D01*
X191128720Y-110521571D01*
X191193945Y-110554921D01*
X191249863Y-110581630D01*
X191292913Y-110600128D01*
X191319536Y-110608846D01*
X191326243Y-110608637D01*
X191332752Y-110595429D01*
X191347939Y-110561055D01*
X191370836Y-110507847D01*
X191400474Y-110438137D01*
X191435886Y-110354257D01*
X191476103Y-110258538D01*
X191485539Y-110236000D01*
X190519050Y-110236000D01*
X190518240Y-110300221D01*
X190515146Y-110345734D01*
X190508773Y-110379196D01*
X190498128Y-110407268D01*
X190491552Y-110420150D01*
X190442490Y-110489332D01*
X190378835Y-110547366D01*
X190307995Y-110587755D01*
X190294607Y-110592804D01*
X190229785Y-110608080D01*
X190152909Y-110615465D01*
X190073472Y-110614933D01*
X190000970Y-110606456D01*
X189953900Y-110593769D01*
X189896750Y-110571920D01*
X189892966Y-110485248D01*
X189892431Y-110443004D01*
X189894597Y-110413773D01*
X189898999Y-110403544D01*
X189899316Y-110403661D01*
X189964900Y-110434927D01*
X190015713Y-110454691D01*
X190058419Y-110465081D01*
X190099682Y-110468223D01*
X190101604Y-110468228D01*
X190174351Y-110457231D01*
X190234158Y-110426040D01*
X190279087Y-110377356D01*
X190307197Y-110313878D01*
X190316551Y-110238308D01*
X190310476Y-110177349D01*
X190286157Y-110105969D01*
X190244112Y-110052380D01*
X190185977Y-110017941D01*
X190113386Y-110004008D01*
X190101604Y-110003771D01*
X190055046Y-110007671D01*
X190005542Y-110020792D01*
X189946421Y-110045263D01*
X189899925Y-110068135D01*
X189895145Y-110059129D01*
X189891726Y-110030828D01*
X189890401Y-109989331D01*
X189890400Y-109988760D01*
X189890400Y-109904503D01*
X189938025Y-109883542D01*
X189989490Y-109868592D01*
X190056986Y-109859602D01*
X190131792Y-109856833D01*
X190205188Y-109860541D01*
X190268453Y-109870987D01*
X190277622Y-109873466D01*
X190350529Y-109906234D01*
X190418525Y-109958010D01*
X190474081Y-110022534D01*
X190491546Y-110051279D01*
X190504499Y-110079446D01*
X190512713Y-110109930D01*
X190517183Y-110149420D01*
X190518906Y-110204606D01*
X190519050Y-110236000D01*
X191485539Y-110236000D01*
X191520158Y-110153313D01*
X191567083Y-110040913D01*
X191615910Y-109923669D01*
X191665671Y-109803914D01*
X191715398Y-109683980D01*
X191764123Y-109566198D01*
X191810879Y-109452900D01*
X191854696Y-109346418D01*
X191894609Y-109249083D01*
X191929647Y-109163227D01*
X191958845Y-109091183D01*
X191981232Y-109035282D01*
X191995843Y-108997855D01*
X192001616Y-108981621D01*
X191999967Y-108952842D01*
X191981603Y-108933813D01*
X191869386Y-108853945D01*
X191776557Y-108782319D01*
X191699810Y-108715773D01*
X191635837Y-108651146D01*
X191581331Y-108585275D01*
X191532985Y-108514999D01*
X191518032Y-108490659D01*
X191453264Y-108365151D01*
X191437581Y-108319870D01*
X189445900Y-108319870D01*
X189214125Y-108315910D01*
X189128575Y-108314110D01*
X189064228Y-108311762D01*
X189016888Y-108308441D01*
X188982361Y-108303726D01*
X188956450Y-108297192D01*
X188934958Y-108288416D01*
X188933226Y-108287566D01*
X188881687Y-108250946D01*
X188850071Y-108200920D01*
X188836952Y-108134952D01*
X188836395Y-108115100D01*
X188845253Y-108046128D01*
X188870251Y-107989087D01*
X188909026Y-107949257D01*
X188911211Y-107947857D01*
X188925366Y-107937197D01*
X188926566Y-107925717D01*
X188913226Y-107906502D01*
X188897565Y-107888363D01*
X188876612Y-107862395D01*
X188865672Y-107839315D01*
X188862302Y-107809882D01*
X188864062Y-107764857D01*
X188864231Y-107762192D01*
X188868601Y-107715115D01*
X188876545Y-107684595D01*
X188891446Y-107661788D01*
X188909357Y-107644309D01*
X188937671Y-107622479D01*
X188969665Y-107606233D01*
X189009438Y-107594808D01*
X189061089Y-107587444D01*
X189128719Y-107583378D01*
X189216424Y-107581848D01*
X189245875Y-107581770D01*
X189445900Y-107581700D01*
X189445900Y-108319870D01*
X191437581Y-108319870D01*
X191408752Y-108236633D01*
X191383038Y-108099544D01*
X191374664Y-107948323D01*
X191374665Y-107943650D01*
X191386774Y-107784895D01*
X191421277Y-107634874D01*
X191476266Y-107494934D01*
X191549833Y-107366423D01*
X191640069Y-107250688D01*
X191745066Y-107149076D01*
X191862916Y-107062937D01*
X191991710Y-106993616D01*
X192129540Y-106942462D01*
X192274499Y-106910822D01*
X192424677Y-106900044D01*
X192578166Y-106911475D01*
X192733058Y-106946464D01*
X192769863Y-106958390D01*
X192917552Y-107022236D01*
X193051757Y-107107182D01*
X193171193Y-107212048D01*
X193274576Y-107335655D01*
X193360622Y-107476824D01*
X193381827Y-107520187D01*
X193430165Y-107642733D01*
X193459862Y-107765183D01*
X193472829Y-107896468D01*
X193473768Y-107950000D01*
X193462382Y-108116203D01*
X193428355Y-108271345D01*
X193371153Y-108416866D01*
X193290246Y-108554206D01*
X193214740Y-108651487D01*
X193174394Y-108692751D01*
X193116385Y-108744167D01*
X193044656Y-108802537D01*
X192963152Y-108864664D01*
X192875819Y-108927347D01*
X192866498Y-108933813D01*
X192846250Y-108957341D01*
X192846485Y-108981621D01*
X192852926Y-108999612D01*
X192868052Y-109038264D01*
X192890895Y-109095244D01*
X192920486Y-109168221D01*
X192955858Y-109254864D01*
X192996043Y-109352840D01*
X193040073Y-109459817D01*
X193086981Y-109573465D01*
X193135797Y-109691450D01*
X193185554Y-109811441D01*
X193235285Y-109931107D01*
X193284022Y-110048116D01*
X193330795Y-110160136D01*
X193374639Y-110264834D01*
X193414583Y-110359880D01*
X193449662Y-110442942D01*
X193478906Y-110511687D01*
X193501349Y-110563784D01*
X193516021Y-110596901D01*
X193521858Y-110608637D01*
X193536443Y-110606809D01*
X193569674Y-110594221D01*
X193617991Y-110572445D01*
X193677835Y-110543049D01*
X193719381Y-110521571D01*
X193789019Y-110485237D01*
X193840111Y-110459655D01*
X193876408Y-110443405D01*
X193901659Y-110435067D01*
X193919612Y-110433221D01*
X193934016Y-110436447D01*
X193938801Y-110438461D01*
X193956860Y-110449057D01*
X193993128Y-110472307D01*
X194044920Y-110506419D01*
X194109554Y-110549605D01*
X194184346Y-110600072D01*
X194266610Y-110656031D01*
X194331325Y-110700338D01*
X194416732Y-110758547D01*
X194496163Y-110811866D01*
X194567044Y-110858631D01*
X194626801Y-110897176D01*
X194672859Y-110925835D01*
X194702646Y-110942944D01*
X194712914Y-110947200D01*
X194726537Y-110938482D01*
X194755911Y-110913633D01*
X194798955Y-110874609D01*
X194853589Y-110823367D01*
X194917730Y-110761864D01*
X194989299Y-110692057D01*
X195066214Y-110615901D01*
X195081268Y-110600867D01*
X195158313Y-110523473D01*
X195229399Y-110451389D01*
X195292579Y-110386643D01*
X195345902Y-110331263D01*
X195387420Y-110287276D01*
X195415184Y-110256709D01*
X195427244Y-110241590D01*
X195427600Y-110240600D01*
X195420649Y-110227239D01*
X195400878Y-110195442D01*
X195369912Y-110147668D01*
X195329376Y-110086375D01*
X195313219Y-110062262D01*
X195008522Y-110062262D01*
X195006570Y-110124080D01*
X194993162Y-110177271D01*
X194989380Y-110185336D01*
X194958221Y-110222613D01*
X194907419Y-110257103D01*
X194842726Y-110285460D01*
X194792600Y-110299792D01*
X194717996Y-110319044D01*
X194666408Y-110338559D01*
X194635499Y-110360091D01*
X194622931Y-110385391D01*
X194626363Y-110416212D01*
X194628573Y-110422681D01*
X194652169Y-110451826D01*
X194694754Y-110467113D01*
X194754093Y-110468638D01*
X194827954Y-110456498D01*
X194914101Y-110430791D01*
X194973575Y-110407715D01*
X194985510Y-110405308D01*
X194992221Y-110413940D01*
X194995165Y-110438454D01*
X194995800Y-110481541D01*
X194994190Y-110525101D01*
X194989982Y-110557686D01*
X194984452Y-110571715D01*
X194941959Y-110588907D01*
X194881305Y-110601809D01*
X194809252Y-110610180D01*
X194732564Y-110613775D01*
X194658005Y-110612352D01*
X194592338Y-110605668D01*
X194542327Y-110593480D01*
X194530077Y-110588031D01*
X194480214Y-110551307D01*
X194447653Y-110501685D01*
X194430409Y-110435443D01*
X194426903Y-110394806D01*
X194426283Y-110341410D01*
X194431081Y-110304363D01*
X194442751Y-110274921D01*
X194448433Y-110265265D01*
X194471372Y-110234191D01*
X194499110Y-110210133D01*
X194536859Y-110190278D01*
X194589833Y-110171813D01*
X194654260Y-110154205D01*
X194719652Y-110137284D01*
X194764534Y-110124679D01*
X194793059Y-110114630D01*
X194809382Y-110105381D01*
X194817654Y-110095173D01*
X194821756Y-110083311D01*
X194819506Y-110050471D01*
X194795870Y-110025363D01*
X194754001Y-110009173D01*
X194697053Y-110003087D01*
X194628182Y-110008291D01*
X194623931Y-110008957D01*
X194578984Y-110017547D01*
X194541863Y-110027021D01*
X194524800Y-110033389D01*
X194499702Y-110043804D01*
X194484694Y-110039652D01*
X194477322Y-110017542D01*
X194475134Y-109974083D01*
X194475100Y-109964703D01*
X194475100Y-109883906D01*
X194547069Y-109869453D01*
X194595392Y-109862488D01*
X194656948Y-109857363D01*
X194719588Y-109855045D01*
X194728528Y-109855000D01*
X194819651Y-109861438D01*
X194891312Y-109881455D01*
X194946143Y-109916102D01*
X194979823Y-109955303D01*
X194999459Y-110002456D01*
X195008522Y-110062262D01*
X195313219Y-110062262D01*
X195280893Y-110014020D01*
X195226090Y-109933063D01*
X195171765Y-109853508D01*
X195111917Y-109765824D01*
X195056313Y-109683615D01*
X195006690Y-109609505D01*
X194964784Y-109546116D01*
X194932332Y-109496073D01*
X194911069Y-109462000D01*
X194903004Y-109447341D01*
X194900284Y-109434897D01*
X194901204Y-109417447D01*
X194906651Y-109392303D01*
X194917513Y-109356774D01*
X194934676Y-109308171D01*
X194959028Y-109243803D01*
X194991455Y-109160981D01*
X195026580Y-109072691D01*
X195070799Y-108962121D01*
X195106694Y-108872807D01*
X195135330Y-108802407D01*
X195157771Y-108748577D01*
X195175083Y-108708973D01*
X195188331Y-108681250D01*
X195198579Y-108663067D01*
X195206894Y-108652078D01*
X195214340Y-108645940D01*
X195221983Y-108642310D01*
X195222206Y-108642223D01*
X195238235Y-108638424D01*
X195275726Y-108630676D01*
X195331181Y-108619640D01*
X195401100Y-108605980D01*
X195481984Y-108590358D01*
X195570332Y-108573438D01*
X195662645Y-108555881D01*
X195755423Y-108538352D01*
X195845167Y-108521512D01*
X195928377Y-108506025D01*
X196001553Y-108492553D01*
X196061195Y-108481759D01*
X196103805Y-108474307D01*
X196125882Y-108470858D01*
X196127817Y-108470700D01*
X196143144Y-108462701D01*
X196156943Y-108450742D01*
X196162134Y-108443006D01*
X196166355Y-108429599D01*
X196169705Y-108408106D01*
X196172279Y-108376111D01*
X196174174Y-108331199D01*
X196174455Y-108318300D01*
X196024500Y-108318300D01*
X195834000Y-108318300D01*
X195834000Y-108064300D01*
X195729225Y-108064229D01*
X195645781Y-108061083D01*
X195581644Y-108050874D01*
X195531374Y-108032252D01*
X195491039Y-108005149D01*
X195449063Y-107960571D01*
X195424819Y-107909312D01*
X195415323Y-107844232D01*
X195414900Y-107823000D01*
X195420870Y-107752876D01*
X195440767Y-107698534D01*
X195477578Y-107652833D01*
X195491039Y-107640850D01*
X195519650Y-107620089D01*
X195551961Y-107604675D01*
X195592113Y-107593875D01*
X195644250Y-107586955D01*
X195712513Y-107583181D01*
X195801045Y-107581819D01*
X195824475Y-107581770D01*
X196024500Y-107581700D01*
X196024500Y-108318300D01*
X196174455Y-108318300D01*
X196175487Y-108270954D01*
X196176314Y-108192960D01*
X196176752Y-108094802D01*
X196176898Y-107974063D01*
X196176901Y-107951520D01*
X196176691Y-107819975D01*
X196176023Y-107711918D01*
X196174834Y-107625438D01*
X196173065Y-107558626D01*
X196170655Y-107509571D01*
X196167544Y-107476365D01*
X196163670Y-107457097D01*
X196161026Y-107451524D01*
X196148950Y-107444317D01*
X196121394Y-107435132D01*
X196076806Y-107423627D01*
X196013637Y-107409456D01*
X195930337Y-107392276D01*
X195825357Y-107371742D01*
X195697147Y-107347510D01*
X195670811Y-107342604D01*
X195554990Y-107320702D01*
X195450446Y-107300207D01*
X195359527Y-107281623D01*
X195284582Y-107265455D01*
X195227960Y-107252205D01*
X195192008Y-107242380D01*
X195179440Y-107237081D01*
X195170272Y-107221352D01*
X195152621Y-107185290D01*
X195127880Y-107131962D01*
X195097446Y-107064435D01*
X195062712Y-106985777D01*
X195025073Y-106899055D01*
X195013453Y-106871996D01*
X194970538Y-106771410D01*
X194936900Y-106691385D01*
X194911589Y-106629233D01*
X194893653Y-106582265D01*
X194882141Y-106547793D01*
X194876101Y-106523128D01*
X194874583Y-106505582D01*
X194876634Y-106492468D01*
X194877865Y-106488832D01*
X194887987Y-106470386D01*
X194910834Y-106433672D01*
X194944678Y-106381308D01*
X194987793Y-106315916D01*
X195038452Y-106240115D01*
X195094930Y-106156525D01*
X195150826Y-106074585D01*
X195210865Y-105986664D01*
X195266496Y-105904619D01*
X195316033Y-105830978D01*
X195357792Y-105768270D01*
X195390088Y-105719024D01*
X195411236Y-105685770D01*
X195419455Y-105671327D01*
X195418935Y-105662042D01*
X195411212Y-105647139D01*
X195394827Y-105625007D01*
X195368318Y-105594037D01*
X195330224Y-105552621D01*
X195279085Y-105499149D01*
X195213441Y-105432010D01*
X195131829Y-105349597D01*
X195116094Y-105333800D01*
X194932300Y-105333800D01*
X194932300Y-106070400D01*
X194741800Y-106070400D01*
X194741800Y-105765600D01*
X194437000Y-105765600D01*
X194437000Y-105625900D01*
X194741800Y-105625900D01*
X194741800Y-105473500D01*
X194411600Y-105473500D01*
X194411600Y-105333800D01*
X194932300Y-105333800D01*
X195116094Y-105333800D01*
X195082278Y-105299852D01*
X194979851Y-105197871D01*
X194893386Y-105113265D01*
X194823137Y-105046275D01*
X194769360Y-104997136D01*
X194732309Y-104966088D01*
X194712241Y-104953367D01*
X194710358Y-104953041D01*
X194694457Y-104960104D01*
X194660156Y-104980134D01*
X194609880Y-105011557D01*
X194546058Y-105052803D01*
X194471116Y-105102298D01*
X194387481Y-105158470D01*
X194297580Y-105219747D01*
X194279112Y-105232441D01*
X194188230Y-105294549D01*
X194103106Y-105351857D01*
X194026169Y-105402793D01*
X193959852Y-105445786D01*
X193906584Y-105479263D01*
X193868795Y-105501654D01*
X193848918Y-105511385D01*
X193847312Y-105511674D01*
X193825372Y-105506860D01*
X193784538Y-105493377D01*
X193728470Y-105472757D01*
X193660828Y-105446535D01*
X193585270Y-105416244D01*
X193505457Y-105383416D01*
X193425046Y-105349586D01*
X193347699Y-105316286D01*
X193277073Y-105285050D01*
X193216828Y-105257411D01*
X193170625Y-105234902D01*
X193142121Y-105219058D01*
X193134874Y-105213150D01*
X193129023Y-105195286D01*
X193119289Y-105155309D01*
X193106271Y-105096108D01*
X193090565Y-105020570D01*
X193072771Y-104931583D01*
X193053487Y-104832037D01*
X193033310Y-104724819D01*
X193029806Y-104705878D01*
X193005894Y-104577441D01*
X192985765Y-104472003D01*
X192968961Y-104387521D01*
X192959331Y-104342211D01*
X192798700Y-104342211D01*
X192798700Y-104990900D01*
X192646887Y-104990900D01*
X192643419Y-104766499D01*
X192639950Y-104542098D01*
X192570100Y-104702806D01*
X192500250Y-104863515D01*
X192373250Y-104863515D01*
X192303400Y-104702806D01*
X192233550Y-104542098D01*
X192226614Y-104990900D01*
X192074800Y-104990900D01*
X192074800Y-104342211D01*
X192183009Y-104345880D01*
X192291218Y-104349550D01*
X192351511Y-104482900D01*
X192376871Y-104539098D01*
X192399425Y-104589279D01*
X192416475Y-104627428D01*
X192424606Y-104645857D01*
X192430585Y-104655475D01*
X192437873Y-104655114D01*
X192448242Y-104641978D01*
X192463462Y-104613278D01*
X192485303Y-104566220D01*
X192509161Y-104512507D01*
X192580914Y-104349550D01*
X192689807Y-104345880D01*
X192798700Y-104342211D01*
X192959331Y-104342211D01*
X192955025Y-104321951D01*
X192943498Y-104273249D01*
X192933922Y-104239370D01*
X192925841Y-104218273D01*
X192918795Y-104207911D01*
X192918153Y-104207403D01*
X192899223Y-104202760D01*
X192858406Y-104198801D01*
X192799205Y-104195528D01*
X192725123Y-104192941D01*
X192639663Y-104191041D01*
X192546329Y-104189828D01*
X192448624Y-104189301D01*
X192350050Y-104189462D01*
G36*
X195756021Y-107724943D02*
X195692916Y-107736537D01*
X195651670Y-107758701D01*
X195630467Y-107792812D01*
X195626567Y-107823000D01*
X195635374Y-107865876D01*
X195663005Y-107895883D01*
X195711279Y-107914399D01*
X195756021Y-107921056D01*
X195834000Y-107928127D01*
X195834000Y-107717872D01*
X195756021Y-107724943D01*
X195756021Y-107724943D01*
G37*
X195756021Y-107724943D02*
X195692916Y-107736537D01*
X195651670Y-107758701D01*
X195630467Y-107792812D01*
X195626567Y-107823000D01*
X195635374Y-107865876D01*
X195663005Y-107895883D01*
X195711279Y-107914399D01*
X195756021Y-107921056D01*
X195834000Y-107928127D01*
X195834000Y-107717872D01*
X195756021Y-107724943D01*
G36*
X189195075Y-108001516D02*
X189126912Y-108007804D01*
X189076211Y-108024119D01*
X189045745Y-108049343D01*
X189039120Y-108064300D01*
X189036219Y-108114097D01*
X189055078Y-108151361D01*
X189095871Y-108176233D01*
X189158772Y-108188853D01*
X189195075Y-108190583D01*
X189255400Y-108191300D01*
X189255400Y-108000800D01*
X189195075Y-108001516D01*
X189195075Y-108001516D01*
G37*
X189195075Y-108001516D02*
X189126912Y-108007804D01*
X189076211Y-108024119D01*
X189045745Y-108049343D01*
X189039120Y-108064300D01*
X189036219Y-108114097D01*
X189055078Y-108151361D01*
X189095871Y-108176233D01*
X189158772Y-108188853D01*
X189195075Y-108190583D01*
X189255400Y-108191300D01*
X189255400Y-108000800D01*
X189195075Y-108001516D01*
G36*
X189177532Y-107712233D02*
X189119562Y-107721596D01*
X189083186Y-107738492D01*
X189065161Y-107765136D01*
X189061725Y-107791250D01*
X189069230Y-107827653D01*
X189093642Y-107852061D01*
X189137808Y-107866420D01*
X189178816Y-107871313D01*
X189255400Y-107876852D01*
X189255400Y-107705172D01*
X189177532Y-107712233D01*
X189177532Y-107712233D01*
G37*
X189177532Y-107712233D02*
X189119562Y-107721596D01*
X189083186Y-107738492D01*
X189065161Y-107765136D01*
X189061725Y-107791250D01*
X189069230Y-107827653D01*
X189093642Y-107852061D01*
X189137808Y-107866420D01*
X189178816Y-107871313D01*
X189255400Y-107876852D01*
X189255400Y-107705172D01*
X189177532Y-107712233D01*
G36*
X190142032Y-105428308D02*
X190094189Y-105435854D01*
X190052117Y-105446129D01*
X190030907Y-105454141D01*
X189976466Y-105495883D01*
X189940571Y-105553315D01*
X189924340Y-105623648D01*
X189928892Y-105704096D01*
X189929445Y-105707078D01*
X189950332Y-105771059D01*
X189986857Y-105818487D01*
X190041256Y-105851123D01*
X190115768Y-105870727D01*
X190142032Y-105874291D01*
X190220600Y-105883180D01*
X190220600Y-105419419D01*
X190142032Y-105428308D01*
X190142032Y-105428308D01*
G37*
X190142032Y-105428308D02*
X190094189Y-105435854D01*
X190052117Y-105446129D01*
X190030907Y-105454141D01*
X189976466Y-105495883D01*
X189940571Y-105553315D01*
X189924340Y-105623648D01*
X189928892Y-105704096D01*
X189929445Y-105707078D01*
X189950332Y-105771059D01*
X189986857Y-105818487D01*
X190041256Y-105851123D01*
X190115768Y-105870727D01*
X190142032Y-105874291D01*
X190220600Y-105883180D01*
X190220600Y-105419419D01*
X190142032Y-105428308D01*
G36*
X169364832Y-64585108D02*
X169316989Y-64592654D01*
X169274917Y-64602929D01*
X169253707Y-64610941D01*
X169199266Y-64652683D01*
X169163371Y-64710115D01*
X169147140Y-64780448D01*
X169151692Y-64860896D01*
X169152245Y-64863878D01*
X169173132Y-64927859D01*
X169209657Y-64975287D01*
X169264056Y-65007923D01*
X169338568Y-65027527D01*
X169364832Y-65031091D01*
X169443400Y-65039980D01*
X169443400Y-64576219D01*
X169364832Y-64585108D01*
X169364832Y-64585108D01*
G37*
X169364832Y-64585108D02*
X169316989Y-64592654D01*
X169274917Y-64602929D01*
X169253707Y-64610941D01*
X169199266Y-64652683D01*
X169163371Y-64710115D01*
X169147140Y-64780448D01*
X169151692Y-64860896D01*
X169152245Y-64863878D01*
X169173132Y-64927859D01*
X169209657Y-64975287D01*
X169264056Y-65007923D01*
X169338568Y-65027527D01*
X169364832Y-65031091D01*
X169443400Y-65039980D01*
X169443400Y-64576219D01*
X169364832Y-64585108D01*
G36*
X168400332Y-66869033D02*
X168342362Y-66878396D01*
X168305986Y-66895292D01*
X168287961Y-66921936D01*
X168284525Y-66948050D01*
X168292030Y-66984453D01*
X168316442Y-67008861D01*
X168360608Y-67023220D01*
X168401616Y-67028113D01*
X168478200Y-67033652D01*
X168478200Y-66861972D01*
X168400332Y-66869033D01*
X168400332Y-66869033D01*
G37*
X168400332Y-66869033D02*
X168342362Y-66878396D01*
X168305986Y-66895292D01*
X168287961Y-66921936D01*
X168284525Y-66948050D01*
X168292030Y-66984453D01*
X168316442Y-67008861D01*
X168360608Y-67023220D01*
X168401616Y-67028113D01*
X168478200Y-67033652D01*
X168478200Y-66861972D01*
X168400332Y-66869033D01*
G36*
X168417875Y-67158316D02*
X168349712Y-67164604D01*
X168299011Y-67180919D01*
X168268545Y-67206143D01*
X168261920Y-67221100D01*
X168259019Y-67270897D01*
X168277878Y-67308161D01*
X168318671Y-67333033D01*
X168381572Y-67345653D01*
X168417875Y-67347383D01*
X168478200Y-67348100D01*
X168478200Y-67157600D01*
X168417875Y-67158316D01*
X168417875Y-67158316D01*
G37*
X168417875Y-67158316D02*
X168349712Y-67164604D01*
X168299011Y-67180919D01*
X168268545Y-67206143D01*
X168261920Y-67221100D01*
X168259019Y-67270897D01*
X168277878Y-67308161D01*
X168318671Y-67333033D01*
X168381572Y-67345653D01*
X168417875Y-67347383D01*
X168478200Y-67348100D01*
X168478200Y-67157600D01*
X168417875Y-67158316D01*
G36*
X174978821Y-66881743D02*
X174915716Y-66893337D01*
X174874470Y-66915501D01*
X174853267Y-66949612D01*
X174849367Y-66979800D01*
X174858174Y-67022676D01*
X174885805Y-67052683D01*
X174934079Y-67071199D01*
X174978821Y-67077856D01*
X175056800Y-67084927D01*
X175056800Y-66874672D01*
X174978821Y-66881743D01*
X174978821Y-66881743D01*
G37*
X174978821Y-66881743D02*
X174915716Y-66893337D01*
X174874470Y-66915501D01*
X174853267Y-66949612D01*
X174849367Y-66979800D01*
X174858174Y-67022676D01*
X174885805Y-67052683D01*
X174934079Y-67071199D01*
X174978821Y-67077856D01*
X175056800Y-67084927D01*
X175056800Y-66874672D01*
X174978821Y-66881743D01*
G36*
X171572850Y-63346262D02*
X171476911Y-63347111D01*
X171387109Y-63348648D01*
X171306949Y-63350874D01*
X171239934Y-63353790D01*
X171189565Y-63357397D01*
X171159347Y-63361693D01*
X171152918Y-63364079D01*
X171145989Y-63373637D01*
X171137952Y-63394093D01*
X171128361Y-63427438D01*
X171116767Y-63475658D01*
X171102724Y-63540743D01*
X171085785Y-63624681D01*
X171065501Y-63729461D01*
X171041426Y-63857071D01*
X171038555Y-63872436D01*
X171013731Y-64003357D01*
X170991340Y-64117291D01*
X170971692Y-64212798D01*
X170955100Y-64288437D01*
X170941875Y-64342768D01*
X170932328Y-64374350D01*
X170928490Y-64381785D01*
X170911343Y-64391776D01*
X170874272Y-64409358D01*
X170821026Y-64433006D01*
X170755352Y-64461193D01*
X170680998Y-64492394D01*
X170601713Y-64525081D01*
X170521244Y-64557730D01*
X170443339Y-64588812D01*
X170371747Y-64616803D01*
X170310215Y-64640176D01*
X170262491Y-64657405D01*
X170232324Y-64666964D01*
X170224632Y-64668399D01*
X170208484Y-64661394D01*
X170173940Y-64641423D01*
X170123436Y-64610059D01*
X170059405Y-64568870D01*
X169984283Y-64519428D01*
X169900505Y-64463302D01*
X169865965Y-64439800D01*
X169633900Y-64439800D01*
X169633900Y-65176400D01*
X169450376Y-65176400D01*
X169378355Y-65175428D01*
X169309621Y-65172765D01*
X169250995Y-65168791D01*
X169209295Y-65163886D01*
X169202522Y-65162603D01*
X169124720Y-65134250D01*
X169052328Y-65086395D01*
X168993466Y-65024794D01*
X168979850Y-65004801D01*
X168962787Y-64975785D01*
X168951757Y-64950313D01*
X168945451Y-64921624D01*
X168942559Y-64882957D01*
X168941772Y-64827549D01*
X168941750Y-64808100D01*
X168942181Y-64746796D01*
X168944355Y-64704088D01*
X168949593Y-64673176D01*
X168959219Y-64647260D01*
X168974555Y-64619539D01*
X168980221Y-64610254D01*
X169034343Y-64544635D01*
X169104964Y-64492106D01*
X169184362Y-64458108D01*
X169202519Y-64453596D01*
X169239105Y-64448523D01*
X169294267Y-64444289D01*
X169361183Y-64441274D01*
X169433035Y-64439859D01*
X169450376Y-64439799D01*
X169633900Y-64439800D01*
X169865965Y-64439800D01*
X169810504Y-64402064D01*
X169792049Y-64389394D01*
X169701140Y-64327324D01*
X169616016Y-64270034D01*
X169539105Y-64219096D01*
X169472834Y-64176082D01*
X169419630Y-64142563D01*
X169381922Y-64120113D01*
X169362137Y-64110301D01*
X169360543Y-64109994D01*
X169343642Y-64119164D01*
X169309628Y-64146841D01*
X169258645Y-64192891D01*
X169190833Y-64257181D01*
X169106337Y-64339580D01*
X169005298Y-64439953D01*
X168988623Y-64456652D01*
X168898076Y-64547699D01*
X168824259Y-64622628D01*
X168765713Y-64683050D01*
X168720977Y-64730573D01*
X168688589Y-64766808D01*
X168667089Y-64793363D01*
X168655016Y-64811848D01*
X168650910Y-64823871D01*
X168651446Y-64828127D01*
X168660524Y-64843963D01*
X168682339Y-64878177D01*
X168715208Y-64928241D01*
X168757446Y-64991627D01*
X168807368Y-65065804D01*
X168863289Y-65148244D01*
X168920075Y-65231385D01*
X168980397Y-65319845D01*
X169036496Y-65402939D01*
X169086646Y-65478046D01*
X169129122Y-65542546D01*
X169162196Y-65593820D01*
X169184143Y-65629248D01*
X169193036Y-65645632D01*
X169196013Y-65657909D01*
X169195720Y-65673772D01*
X169191204Y-65695909D01*
X169181515Y-65727008D01*
X169165701Y-65769758D01*
X169142811Y-65826847D01*
X169111893Y-65900963D01*
X169071997Y-65994795D01*
X169057448Y-66028796D01*
X169019210Y-66117335D01*
X168983460Y-66198728D01*
X168951593Y-66269907D01*
X168925003Y-66327805D01*
X168905085Y-66369355D01*
X168893232Y-66391489D01*
X168891461Y-66393881D01*
X168875008Y-66400386D01*
X168835880Y-66410745D01*
X168776426Y-66424454D01*
X168698993Y-66441008D01*
X168605931Y-66459904D01*
X168499587Y-66480636D01*
X168400090Y-66499404D01*
X168267421Y-66524357D01*
X168158269Y-66545547D01*
X168071083Y-66563321D01*
X168004314Y-66578021D01*
X167956412Y-66589993D01*
X167925827Y-66599580D01*
X167911010Y-66607127D01*
X167909875Y-66608324D01*
X167905527Y-66620324D01*
X167901977Y-66645144D01*
X167899164Y-66684695D01*
X167897027Y-66740887D01*
X167895507Y-66815629D01*
X167894541Y-66910832D01*
X167894071Y-67028404D01*
X167894000Y-67108320D01*
X167894107Y-67233066D01*
X167894489Y-67334829D01*
X167895245Y-67416024D01*
X167896470Y-67479066D01*
X167898261Y-67526372D01*
X167900715Y-67560356D01*
X167903928Y-67583436D01*
X167907997Y-67598026D01*
X167913019Y-67606542D01*
X167913958Y-67607542D01*
X167933583Y-67623493D01*
X167943084Y-67627500D01*
X167961546Y-67629850D01*
X168001092Y-67636455D01*
X168058245Y-67646642D01*
X168129529Y-67659740D01*
X168211467Y-67675079D01*
X168300583Y-67691988D01*
X168393401Y-67709794D01*
X168486446Y-67727827D01*
X168576240Y-67745416D01*
X168659307Y-67761889D01*
X168732172Y-67776576D01*
X168791357Y-67788804D01*
X168833387Y-67797904D01*
X168854786Y-67803204D01*
X168856501Y-67803855D01*
X168867741Y-67819213D01*
X168887082Y-67856768D01*
X168913801Y-67914897D01*
X168947177Y-67991978D01*
X168986488Y-68086388D01*
X169029842Y-68193574D01*
X169072222Y-68300106D01*
X169105758Y-68385694D01*
X169131299Y-68452871D01*
X169149698Y-68504169D01*
X169161805Y-68542121D01*
X169168472Y-68569259D01*
X169170550Y-68588115D01*
X169168890Y-68601223D01*
X169167866Y-68604222D01*
X169157838Y-68622132D01*
X169135100Y-68658311D01*
X169101387Y-68710135D01*
X169058436Y-68774982D01*
X169007981Y-68850228D01*
X168951760Y-68933251D01*
X168899136Y-69010308D01*
X168839973Y-69096973D01*
X168785644Y-69177272D01*
X168737772Y-69248748D01*
X168697983Y-69308947D01*
X168667901Y-69355412D01*
X168649149Y-69385687D01*
X168643300Y-69397116D01*
X168652057Y-69409957D01*
X168676722Y-69438007D01*
X168714889Y-69478876D01*
X168764154Y-69530175D01*
X168822111Y-69589512D01*
X168886353Y-69654498D01*
X168954475Y-69722743D01*
X169024072Y-69791857D01*
X169092737Y-69859449D01*
X169158065Y-69923129D01*
X169217650Y-69980507D01*
X169269087Y-70029193D01*
X169309969Y-70066797D01*
X169337892Y-70090929D01*
X169349896Y-70099139D01*
X169363030Y-70097425D01*
X169386444Y-70087251D01*
X169421804Y-70067584D01*
X169470774Y-70037390D01*
X169535018Y-69995637D01*
X169616201Y-69941291D01*
X169715986Y-69873320D01*
X169738093Y-69858156D01*
X169824364Y-69799143D01*
X169905164Y-69744284D01*
X169977818Y-69695363D01*
X170039648Y-69654168D01*
X170087976Y-69622486D01*
X170120125Y-69602101D01*
X170132100Y-69595261D01*
X170146151Y-69590626D01*
X170162467Y-69590576D01*
X170184799Y-69596533D01*
X170216895Y-69609916D01*
X170262503Y-69632146D01*
X170325374Y-69664641D01*
X170351520Y-69678371D01*
X170416745Y-69711721D01*
X170472663Y-69738430D01*
X170515713Y-69756928D01*
X170542336Y-69765646D01*
X170549043Y-69765437D01*
X170555552Y-69752229D01*
X170570739Y-69717855D01*
X170593636Y-69664647D01*
X170623274Y-69594937D01*
X170658686Y-69511057D01*
X170698903Y-69415338D01*
X170708339Y-69392800D01*
X169741850Y-69392800D01*
X169741040Y-69457021D01*
X169737946Y-69502534D01*
X169731573Y-69535996D01*
X169720928Y-69564068D01*
X169714352Y-69576950D01*
X169665290Y-69646132D01*
X169601635Y-69704166D01*
X169530795Y-69744555D01*
X169517407Y-69749604D01*
X169452585Y-69764880D01*
X169375709Y-69772265D01*
X169296272Y-69771733D01*
X169223770Y-69763256D01*
X169176700Y-69750569D01*
X169119550Y-69728720D01*
X169115766Y-69642048D01*
X169115231Y-69599804D01*
X169117397Y-69570573D01*
X169121799Y-69560344D01*
X169122116Y-69560461D01*
X169187700Y-69591727D01*
X169238513Y-69611491D01*
X169281219Y-69621881D01*
X169322482Y-69625023D01*
X169324404Y-69625028D01*
X169397151Y-69614031D01*
X169456958Y-69582840D01*
X169501887Y-69534156D01*
X169529997Y-69470678D01*
X169539351Y-69395108D01*
X169533276Y-69334149D01*
X169508957Y-69262769D01*
X169466912Y-69209180D01*
X169408777Y-69174741D01*
X169336186Y-69160808D01*
X169324404Y-69160571D01*
X169277846Y-69164471D01*
X169228342Y-69177592D01*
X169169221Y-69202063D01*
X169122725Y-69224935D01*
X169117945Y-69215929D01*
X169114526Y-69187628D01*
X169113201Y-69146131D01*
X169113200Y-69145560D01*
X169113200Y-69061303D01*
X169160825Y-69040342D01*
X169212290Y-69025392D01*
X169279786Y-69016402D01*
X169354592Y-69013633D01*
X169427988Y-69017341D01*
X169491253Y-69027787D01*
X169500422Y-69030266D01*
X169573329Y-69063034D01*
X169641325Y-69114810D01*
X169696881Y-69179334D01*
X169714346Y-69208079D01*
X169727299Y-69236246D01*
X169735513Y-69266730D01*
X169739983Y-69306220D01*
X169741706Y-69361406D01*
X169741850Y-69392800D01*
X170708339Y-69392800D01*
X170742958Y-69310113D01*
X170789883Y-69197713D01*
X170838710Y-69080469D01*
X170888471Y-68960714D01*
X170938198Y-68840780D01*
X170986923Y-68722998D01*
X171033679Y-68609700D01*
X171077496Y-68503218D01*
X171117409Y-68405883D01*
X171152447Y-68320027D01*
X171181645Y-68247983D01*
X171204032Y-68192082D01*
X171218643Y-68154655D01*
X171224416Y-68138421D01*
X171222767Y-68109642D01*
X171204403Y-68090613D01*
X171092186Y-68010745D01*
X170999357Y-67939119D01*
X170922610Y-67872573D01*
X170858637Y-67807946D01*
X170804131Y-67742075D01*
X170755785Y-67671799D01*
X170740832Y-67647459D01*
X170676064Y-67521951D01*
X170660381Y-67476670D01*
X168668700Y-67476670D01*
X168436925Y-67472710D01*
X168351375Y-67470910D01*
X168287028Y-67468562D01*
X168239688Y-67465241D01*
X168205161Y-67460526D01*
X168179250Y-67453992D01*
X168157758Y-67445216D01*
X168156026Y-67444366D01*
X168104487Y-67407746D01*
X168072871Y-67357720D01*
X168059752Y-67291752D01*
X168059195Y-67271900D01*
X168068053Y-67202928D01*
X168093051Y-67145887D01*
X168131826Y-67106057D01*
X168134011Y-67104657D01*
X168148166Y-67093997D01*
X168149366Y-67082517D01*
X168136026Y-67063302D01*
X168120365Y-67045163D01*
X168099412Y-67019195D01*
X168088472Y-66996115D01*
X168085102Y-66966682D01*
X168086862Y-66921657D01*
X168087031Y-66918992D01*
X168091401Y-66871915D01*
X168099345Y-66841395D01*
X168114246Y-66818588D01*
X168132157Y-66801109D01*
X168160471Y-66779279D01*
X168192465Y-66763033D01*
X168232238Y-66751608D01*
X168283889Y-66744244D01*
X168351519Y-66740178D01*
X168439224Y-66738648D01*
X168468675Y-66738570D01*
X168668700Y-66738500D01*
X168668700Y-67476670D01*
X170660381Y-67476670D01*
X170631552Y-67393433D01*
X170605838Y-67256344D01*
X170597464Y-67105123D01*
X170597465Y-67100450D01*
X170609574Y-66941695D01*
X170644077Y-66791674D01*
X170699066Y-66651734D01*
X170772633Y-66523223D01*
X170862869Y-66407488D01*
X170967866Y-66305876D01*
X171085716Y-66219737D01*
X171214510Y-66150416D01*
X171352340Y-66099262D01*
X171497299Y-66067622D01*
X171647477Y-66056844D01*
X171800966Y-66068275D01*
X171955858Y-66103264D01*
X171992663Y-66115190D01*
X172140352Y-66179036D01*
X172274557Y-66263982D01*
X172393993Y-66368848D01*
X172497376Y-66492455D01*
X172583422Y-66633624D01*
X172604627Y-66676987D01*
X172652965Y-66799533D01*
X172682662Y-66921983D01*
X172695629Y-67053268D01*
X172696568Y-67106800D01*
X172685182Y-67273003D01*
X172651155Y-67428145D01*
X172593953Y-67573666D01*
X172513046Y-67711006D01*
X172437540Y-67808287D01*
X172397194Y-67849551D01*
X172339185Y-67900967D01*
X172267456Y-67959337D01*
X172185952Y-68021464D01*
X172098619Y-68084147D01*
X172089298Y-68090613D01*
X172069050Y-68114141D01*
X172069285Y-68138421D01*
X172075726Y-68156412D01*
X172090852Y-68195064D01*
X172113695Y-68252044D01*
X172143286Y-68325021D01*
X172178658Y-68411664D01*
X172218843Y-68509640D01*
X172262873Y-68616617D01*
X172309781Y-68730265D01*
X172358597Y-68848250D01*
X172408354Y-68968241D01*
X172458085Y-69087907D01*
X172506822Y-69204916D01*
X172553595Y-69316936D01*
X172597439Y-69421634D01*
X172637383Y-69516680D01*
X172672462Y-69599742D01*
X172701706Y-69668487D01*
X172724149Y-69720584D01*
X172738821Y-69753701D01*
X172744658Y-69765437D01*
X172759243Y-69763609D01*
X172792474Y-69751021D01*
X172840791Y-69729245D01*
X172900635Y-69699849D01*
X172942181Y-69678371D01*
X173011819Y-69642037D01*
X173062911Y-69616455D01*
X173099208Y-69600205D01*
X173124459Y-69591867D01*
X173142412Y-69590021D01*
X173156816Y-69593247D01*
X173161601Y-69595261D01*
X173179660Y-69605857D01*
X173215928Y-69629107D01*
X173267720Y-69663219D01*
X173332354Y-69706405D01*
X173407146Y-69756872D01*
X173489410Y-69812831D01*
X173554125Y-69857138D01*
X173639532Y-69915347D01*
X173718963Y-69968666D01*
X173789844Y-70015431D01*
X173849601Y-70053976D01*
X173895659Y-70082635D01*
X173925446Y-70099744D01*
X173935714Y-70104000D01*
X173949337Y-70095282D01*
X173978711Y-70070433D01*
X174021755Y-70031409D01*
X174076389Y-69980167D01*
X174140530Y-69918664D01*
X174212099Y-69848857D01*
X174289014Y-69772701D01*
X174304068Y-69757667D01*
X174381113Y-69680273D01*
X174452199Y-69608189D01*
X174515379Y-69543443D01*
X174568702Y-69488063D01*
X174610220Y-69444076D01*
X174637984Y-69413509D01*
X174650044Y-69398390D01*
X174650400Y-69397400D01*
X174643449Y-69384039D01*
X174623678Y-69352242D01*
X174592712Y-69304468D01*
X174552176Y-69243175D01*
X174536019Y-69219062D01*
X174231322Y-69219062D01*
X174229370Y-69280880D01*
X174215962Y-69334071D01*
X174212180Y-69342136D01*
X174181021Y-69379413D01*
X174130219Y-69413903D01*
X174065526Y-69442260D01*
X174015400Y-69456592D01*
X173940796Y-69475844D01*
X173889208Y-69495359D01*
X173858299Y-69516891D01*
X173845731Y-69542191D01*
X173849163Y-69573012D01*
X173851373Y-69579481D01*
X173874969Y-69608626D01*
X173917554Y-69623913D01*
X173976893Y-69625438D01*
X174050754Y-69613298D01*
X174136901Y-69587591D01*
X174196375Y-69564515D01*
X174208310Y-69562108D01*
X174215021Y-69570740D01*
X174217965Y-69595254D01*
X174218600Y-69638341D01*
X174216990Y-69681901D01*
X174212782Y-69714486D01*
X174207252Y-69728515D01*
X174164759Y-69745707D01*
X174104105Y-69758609D01*
X174032052Y-69766980D01*
X173955364Y-69770575D01*
X173880805Y-69769152D01*
X173815138Y-69762468D01*
X173765127Y-69750280D01*
X173752877Y-69744831D01*
X173703014Y-69708107D01*
X173670453Y-69658485D01*
X173653209Y-69592243D01*
X173649703Y-69551606D01*
X173649083Y-69498210D01*
X173653881Y-69461163D01*
X173665551Y-69431721D01*
X173671233Y-69422065D01*
X173694172Y-69390991D01*
X173721910Y-69366933D01*
X173759659Y-69347078D01*
X173812633Y-69328613D01*
X173877060Y-69311005D01*
X173942452Y-69294084D01*
X173987334Y-69281479D01*
X174015859Y-69271430D01*
X174032182Y-69262181D01*
X174040454Y-69251973D01*
X174044556Y-69240111D01*
X174042306Y-69207271D01*
X174018670Y-69182163D01*
X173976801Y-69165973D01*
X173919853Y-69159887D01*
X173850982Y-69165091D01*
X173846731Y-69165757D01*
X173801784Y-69174347D01*
X173764663Y-69183821D01*
X173747600Y-69190189D01*
X173722502Y-69200604D01*
X173707494Y-69196452D01*
X173700122Y-69174342D01*
X173697934Y-69130883D01*
X173697900Y-69121503D01*
X173697900Y-69040706D01*
X173769869Y-69026253D01*
X173818192Y-69019288D01*
X173879748Y-69014163D01*
X173942388Y-69011845D01*
X173951328Y-69011800D01*
X174042451Y-69018238D01*
X174114112Y-69038255D01*
X174168943Y-69072902D01*
X174202623Y-69112103D01*
X174222259Y-69159256D01*
X174231322Y-69219062D01*
X174536019Y-69219062D01*
X174503693Y-69170820D01*
X174448890Y-69089863D01*
X174394565Y-69010308D01*
X174334717Y-68922624D01*
X174279113Y-68840415D01*
X174229490Y-68766305D01*
X174187584Y-68702916D01*
X174155132Y-68652873D01*
X174133869Y-68618800D01*
X174125804Y-68604141D01*
X174123084Y-68591697D01*
X174124004Y-68574247D01*
X174129451Y-68549103D01*
X174140313Y-68513574D01*
X174157476Y-68464971D01*
X174181828Y-68400603D01*
X174214255Y-68317781D01*
X174249380Y-68229491D01*
X174293599Y-68118921D01*
X174329494Y-68029607D01*
X174358130Y-67959207D01*
X174380571Y-67905377D01*
X174397883Y-67865773D01*
X174411131Y-67838050D01*
X174421379Y-67819867D01*
X174429694Y-67808878D01*
X174437140Y-67802740D01*
X174444783Y-67799110D01*
X174445006Y-67799023D01*
X174461035Y-67795224D01*
X174498526Y-67787476D01*
X174553981Y-67776440D01*
X174623900Y-67762780D01*
X174704784Y-67747158D01*
X174793132Y-67730238D01*
X174885445Y-67712681D01*
X174978223Y-67695152D01*
X175067967Y-67678312D01*
X175151177Y-67662825D01*
X175224353Y-67649353D01*
X175283995Y-67638559D01*
X175326605Y-67631107D01*
X175348682Y-67627658D01*
X175350617Y-67627500D01*
X175365944Y-67619501D01*
X175379743Y-67607542D01*
X175384934Y-67599806D01*
X175389155Y-67586399D01*
X175392505Y-67564906D01*
X175395079Y-67532911D01*
X175396974Y-67487999D01*
X175397255Y-67475100D01*
X175247300Y-67475100D01*
X175056800Y-67475100D01*
X175056800Y-67221100D01*
X174952025Y-67221029D01*
X174868581Y-67217883D01*
X174804444Y-67207674D01*
X174754174Y-67189052D01*
X174713839Y-67161949D01*
X174671863Y-67117371D01*
X174647619Y-67066112D01*
X174638123Y-67001032D01*
X174637700Y-66979800D01*
X174643670Y-66909676D01*
X174663567Y-66855334D01*
X174700378Y-66809633D01*
X174713839Y-66797650D01*
X174742450Y-66776889D01*
X174774761Y-66761475D01*
X174814913Y-66750675D01*
X174867050Y-66743755D01*
X174935313Y-66739981D01*
X175023845Y-66738619D01*
X175047275Y-66738570D01*
X175247300Y-66738500D01*
X175247300Y-67475100D01*
X175397255Y-67475100D01*
X175398287Y-67427754D01*
X175399114Y-67349760D01*
X175399552Y-67251602D01*
X175399698Y-67130863D01*
X175399701Y-67108320D01*
X175399491Y-66976775D01*
X175398823Y-66868718D01*
X175397634Y-66782238D01*
X175395865Y-66715426D01*
X175393455Y-66666371D01*
X175390344Y-66633165D01*
X175386470Y-66613897D01*
X175383826Y-66608324D01*
X175371750Y-66601117D01*
X175344194Y-66591932D01*
X175299606Y-66580427D01*
X175236437Y-66566256D01*
X175153137Y-66549076D01*
X175048157Y-66528542D01*
X174919947Y-66504310D01*
X174893611Y-66499404D01*
X174777790Y-66477502D01*
X174673246Y-66457007D01*
X174582327Y-66438423D01*
X174507382Y-66422255D01*
X174450760Y-66409005D01*
X174414808Y-66399180D01*
X174402240Y-66393881D01*
X174393072Y-66378152D01*
X174375421Y-66342090D01*
X174350680Y-66288762D01*
X174320246Y-66221235D01*
X174285512Y-66142577D01*
X174247873Y-66055855D01*
X174236253Y-66028796D01*
X174193338Y-65928210D01*
X174159700Y-65848185D01*
X174134389Y-65786033D01*
X174116453Y-65739065D01*
X174104941Y-65704593D01*
X174098901Y-65679928D01*
X174097383Y-65662382D01*
X174099434Y-65649268D01*
X174100665Y-65645632D01*
X174110787Y-65627186D01*
X174133634Y-65590472D01*
X174167478Y-65538108D01*
X174210593Y-65472716D01*
X174261252Y-65396915D01*
X174317730Y-65313325D01*
X174373626Y-65231385D01*
X174433665Y-65143464D01*
X174489296Y-65061419D01*
X174538833Y-64987778D01*
X174580592Y-64925070D01*
X174612888Y-64875824D01*
X174634036Y-64842570D01*
X174642255Y-64828127D01*
X174641735Y-64818842D01*
X174634012Y-64803939D01*
X174617627Y-64781807D01*
X174591118Y-64750837D01*
X174553024Y-64709421D01*
X174501885Y-64655949D01*
X174436241Y-64588810D01*
X174354629Y-64506397D01*
X174338894Y-64490600D01*
X174155100Y-64490600D01*
X174155100Y-65227200D01*
X173964600Y-65227200D01*
X173964600Y-64922400D01*
X173659800Y-64922400D01*
X173659800Y-64782700D01*
X173964600Y-64782700D01*
X173964600Y-64630300D01*
X173634400Y-64630300D01*
X173634400Y-64490600D01*
X174155100Y-64490600D01*
X174338894Y-64490600D01*
X174305078Y-64456652D01*
X174202651Y-64354671D01*
X174116186Y-64270065D01*
X174045937Y-64203075D01*
X173992160Y-64153936D01*
X173955109Y-64122888D01*
X173935041Y-64110167D01*
X173933158Y-64109841D01*
X173917257Y-64116904D01*
X173882956Y-64136934D01*
X173832680Y-64168357D01*
X173768858Y-64209603D01*
X173693916Y-64259098D01*
X173610281Y-64315270D01*
X173520380Y-64376547D01*
X173501912Y-64389241D01*
X173411030Y-64451349D01*
X173325906Y-64508657D01*
X173248969Y-64559593D01*
X173182652Y-64602586D01*
X173129384Y-64636063D01*
X173091595Y-64658454D01*
X173071718Y-64668185D01*
X173070112Y-64668474D01*
X173048172Y-64663660D01*
X173007338Y-64650177D01*
X172951270Y-64629557D01*
X172883628Y-64603335D01*
X172808070Y-64573044D01*
X172728257Y-64540216D01*
X172647846Y-64506386D01*
X172570499Y-64473086D01*
X172499873Y-64441850D01*
X172439628Y-64414211D01*
X172393425Y-64391702D01*
X172364921Y-64375858D01*
X172357674Y-64369950D01*
X172351823Y-64352086D01*
X172342089Y-64312109D01*
X172329071Y-64252908D01*
X172313365Y-64177370D01*
X172295571Y-64088383D01*
X172276287Y-63988837D01*
X172256110Y-63881619D01*
X172252606Y-63862678D01*
X172228694Y-63734241D01*
X172208565Y-63628803D01*
X172191761Y-63544321D01*
X172182131Y-63499011D01*
X172021500Y-63499011D01*
X172021500Y-64147700D01*
X171869687Y-64147700D01*
X171866219Y-63923299D01*
X171862750Y-63698898D01*
X171792900Y-63859606D01*
X171723050Y-64020315D01*
X171596050Y-64020315D01*
X171526200Y-63859606D01*
X171456350Y-63698898D01*
X171449414Y-64147700D01*
X171297600Y-64147700D01*
X171297600Y-63499011D01*
X171405809Y-63502680D01*
X171514018Y-63506350D01*
X171574311Y-63639700D01*
X171599671Y-63695898D01*
X171622225Y-63746079D01*
X171639275Y-63784228D01*
X171647406Y-63802657D01*
X171653385Y-63812275D01*
X171660673Y-63811914D01*
X171671042Y-63798778D01*
X171686262Y-63770078D01*
X171708103Y-63723020D01*
X171731961Y-63669307D01*
X171803714Y-63506350D01*
X171912607Y-63502680D01*
X172021500Y-63499011D01*
X172182131Y-63499011D01*
X172177825Y-63478751D01*
X172166298Y-63430049D01*
X172156722Y-63396170D01*
X172148641Y-63375073D01*
X172141595Y-63364711D01*
X172140953Y-63364203D01*
X172122023Y-63359560D01*
X172081206Y-63355601D01*
X172022005Y-63352328D01*
X171947923Y-63349741D01*
X171862463Y-63347841D01*
X171769129Y-63346628D01*
X171671424Y-63346101D01*
X171572850Y-63346262D01*
X171572850Y-63346262D01*
G37*
X171572850Y-63346262D02*
X171476911Y-63347111D01*
X171387109Y-63348648D01*
X171306949Y-63350874D01*
X171239934Y-63353790D01*
X171189565Y-63357397D01*
X171159347Y-63361693D01*
X171152918Y-63364079D01*
X171145989Y-63373637D01*
X171137952Y-63394093D01*
X171128361Y-63427438D01*
X171116767Y-63475658D01*
X171102724Y-63540743D01*
X171085785Y-63624681D01*
X171065501Y-63729461D01*
X171041426Y-63857071D01*
X171038555Y-63872436D01*
X171013731Y-64003357D01*
X170991340Y-64117291D01*
X170971692Y-64212798D01*
X170955100Y-64288437D01*
X170941875Y-64342768D01*
X170932328Y-64374350D01*
X170928490Y-64381785D01*
X170911343Y-64391776D01*
X170874272Y-64409358D01*
X170821026Y-64433006D01*
X170755352Y-64461193D01*
X170680998Y-64492394D01*
X170601713Y-64525081D01*
X170521244Y-64557730D01*
X170443339Y-64588812D01*
X170371747Y-64616803D01*
X170310215Y-64640176D01*
X170262491Y-64657405D01*
X170232324Y-64666964D01*
X170224632Y-64668399D01*
X170208484Y-64661394D01*
X170173940Y-64641423D01*
X170123436Y-64610059D01*
X170059405Y-64568870D01*
X169984283Y-64519428D01*
X169900505Y-64463302D01*
X169865965Y-64439800D01*
X169633900Y-64439800D01*
X169633900Y-65176400D01*
X169450376Y-65176400D01*
X169378355Y-65175428D01*
X169309621Y-65172765D01*
X169250995Y-65168791D01*
X169209295Y-65163886D01*
X169202522Y-65162603D01*
X169124720Y-65134250D01*
X169052328Y-65086395D01*
X168993466Y-65024794D01*
X168979850Y-65004801D01*
X168962787Y-64975785D01*
X168951757Y-64950313D01*
X168945451Y-64921624D01*
X168942559Y-64882957D01*
X168941772Y-64827549D01*
X168941750Y-64808100D01*
X168942181Y-64746796D01*
X168944355Y-64704088D01*
X168949593Y-64673176D01*
X168959219Y-64647260D01*
X168974555Y-64619539D01*
X168980221Y-64610254D01*
X169034343Y-64544635D01*
X169104964Y-64492106D01*
X169184362Y-64458108D01*
X169202519Y-64453596D01*
X169239105Y-64448523D01*
X169294267Y-64444289D01*
X169361183Y-64441274D01*
X169433035Y-64439859D01*
X169450376Y-64439799D01*
X169633900Y-64439800D01*
X169865965Y-64439800D01*
X169810504Y-64402064D01*
X169792049Y-64389394D01*
X169701140Y-64327324D01*
X169616016Y-64270034D01*
X169539105Y-64219096D01*
X169472834Y-64176082D01*
X169419630Y-64142563D01*
X169381922Y-64120113D01*
X169362137Y-64110301D01*
X169360543Y-64109994D01*
X169343642Y-64119164D01*
X169309628Y-64146841D01*
X169258645Y-64192891D01*
X169190833Y-64257181D01*
X169106337Y-64339580D01*
X169005298Y-64439953D01*
X168988623Y-64456652D01*
X168898076Y-64547699D01*
X168824259Y-64622628D01*
X168765713Y-64683050D01*
X168720977Y-64730573D01*
X168688589Y-64766808D01*
X168667089Y-64793363D01*
X168655016Y-64811848D01*
X168650910Y-64823871D01*
X168651446Y-64828127D01*
X168660524Y-64843963D01*
X168682339Y-64878177D01*
X168715208Y-64928241D01*
X168757446Y-64991627D01*
X168807368Y-65065804D01*
X168863289Y-65148244D01*
X168920075Y-65231385D01*
X168980397Y-65319845D01*
X169036496Y-65402939D01*
X169086646Y-65478046D01*
X169129122Y-65542546D01*
X169162196Y-65593820D01*
X169184143Y-65629248D01*
X169193036Y-65645632D01*
X169196013Y-65657909D01*
X169195720Y-65673772D01*
X169191204Y-65695909D01*
X169181515Y-65727008D01*
X169165701Y-65769758D01*
X169142811Y-65826847D01*
X169111893Y-65900963D01*
X169071997Y-65994795D01*
X169057448Y-66028796D01*
X169019210Y-66117335D01*
X168983460Y-66198728D01*
X168951593Y-66269907D01*
X168925003Y-66327805D01*
X168905085Y-66369355D01*
X168893232Y-66391489D01*
X168891461Y-66393881D01*
X168875008Y-66400386D01*
X168835880Y-66410745D01*
X168776426Y-66424454D01*
X168698993Y-66441008D01*
X168605931Y-66459904D01*
X168499587Y-66480636D01*
X168400090Y-66499404D01*
X168267421Y-66524357D01*
X168158269Y-66545547D01*
X168071083Y-66563321D01*
X168004314Y-66578021D01*
X167956412Y-66589993D01*
X167925827Y-66599580D01*
X167911010Y-66607127D01*
X167909875Y-66608324D01*
X167905527Y-66620324D01*
X167901977Y-66645144D01*
X167899164Y-66684695D01*
X167897027Y-66740887D01*
X167895507Y-66815629D01*
X167894541Y-66910832D01*
X167894071Y-67028404D01*
X167894000Y-67108320D01*
X167894107Y-67233066D01*
X167894489Y-67334829D01*
X167895245Y-67416024D01*
X167896470Y-67479066D01*
X167898261Y-67526372D01*
X167900715Y-67560356D01*
X167903928Y-67583436D01*
X167907997Y-67598026D01*
X167913019Y-67606542D01*
X167913958Y-67607542D01*
X167933583Y-67623493D01*
X167943084Y-67627500D01*
X167961546Y-67629850D01*
X168001092Y-67636455D01*
X168058245Y-67646642D01*
X168129529Y-67659740D01*
X168211467Y-67675079D01*
X168300583Y-67691988D01*
X168393401Y-67709794D01*
X168486446Y-67727827D01*
X168576240Y-67745416D01*
X168659307Y-67761889D01*
X168732172Y-67776576D01*
X168791357Y-67788804D01*
X168833387Y-67797904D01*
X168854786Y-67803204D01*
X168856501Y-67803855D01*
X168867741Y-67819213D01*
X168887082Y-67856768D01*
X168913801Y-67914897D01*
X168947177Y-67991978D01*
X168986488Y-68086388D01*
X169029842Y-68193574D01*
X169072222Y-68300106D01*
X169105758Y-68385694D01*
X169131299Y-68452871D01*
X169149698Y-68504169D01*
X169161805Y-68542121D01*
X169168472Y-68569259D01*
X169170550Y-68588115D01*
X169168890Y-68601223D01*
X169167866Y-68604222D01*
X169157838Y-68622132D01*
X169135100Y-68658311D01*
X169101387Y-68710135D01*
X169058436Y-68774982D01*
X169007981Y-68850228D01*
X168951760Y-68933251D01*
X168899136Y-69010308D01*
X168839973Y-69096973D01*
X168785644Y-69177272D01*
X168737772Y-69248748D01*
X168697983Y-69308947D01*
X168667901Y-69355412D01*
X168649149Y-69385687D01*
X168643300Y-69397116D01*
X168652057Y-69409957D01*
X168676722Y-69438007D01*
X168714889Y-69478876D01*
X168764154Y-69530175D01*
X168822111Y-69589512D01*
X168886353Y-69654498D01*
X168954475Y-69722743D01*
X169024072Y-69791857D01*
X169092737Y-69859449D01*
X169158065Y-69923129D01*
X169217650Y-69980507D01*
X169269087Y-70029193D01*
X169309969Y-70066797D01*
X169337892Y-70090929D01*
X169349896Y-70099139D01*
X169363030Y-70097425D01*
X169386444Y-70087251D01*
X169421804Y-70067584D01*
X169470774Y-70037390D01*
X169535018Y-69995637D01*
X169616201Y-69941291D01*
X169715986Y-69873320D01*
X169738093Y-69858156D01*
X169824364Y-69799143D01*
X169905164Y-69744284D01*
X169977818Y-69695363D01*
X170039648Y-69654168D01*
X170087976Y-69622486D01*
X170120125Y-69602101D01*
X170132100Y-69595261D01*
X170146151Y-69590626D01*
X170162467Y-69590576D01*
X170184799Y-69596533D01*
X170216895Y-69609916D01*
X170262503Y-69632146D01*
X170325374Y-69664641D01*
X170351520Y-69678371D01*
X170416745Y-69711721D01*
X170472663Y-69738430D01*
X170515713Y-69756928D01*
X170542336Y-69765646D01*
X170549043Y-69765437D01*
X170555552Y-69752229D01*
X170570739Y-69717855D01*
X170593636Y-69664647D01*
X170623274Y-69594937D01*
X170658686Y-69511057D01*
X170698903Y-69415338D01*
X170708339Y-69392800D01*
X169741850Y-69392800D01*
X169741040Y-69457021D01*
X169737946Y-69502534D01*
X169731573Y-69535996D01*
X169720928Y-69564068D01*
X169714352Y-69576950D01*
X169665290Y-69646132D01*
X169601635Y-69704166D01*
X169530795Y-69744555D01*
X169517407Y-69749604D01*
X169452585Y-69764880D01*
X169375709Y-69772265D01*
X169296272Y-69771733D01*
X169223770Y-69763256D01*
X169176700Y-69750569D01*
X169119550Y-69728720D01*
X169115766Y-69642048D01*
X169115231Y-69599804D01*
X169117397Y-69570573D01*
X169121799Y-69560344D01*
X169122116Y-69560461D01*
X169187700Y-69591727D01*
X169238513Y-69611491D01*
X169281219Y-69621881D01*
X169322482Y-69625023D01*
X169324404Y-69625028D01*
X169397151Y-69614031D01*
X169456958Y-69582840D01*
X169501887Y-69534156D01*
X169529997Y-69470678D01*
X169539351Y-69395108D01*
X169533276Y-69334149D01*
X169508957Y-69262769D01*
X169466912Y-69209180D01*
X169408777Y-69174741D01*
X169336186Y-69160808D01*
X169324404Y-69160571D01*
X169277846Y-69164471D01*
X169228342Y-69177592D01*
X169169221Y-69202063D01*
X169122725Y-69224935D01*
X169117945Y-69215929D01*
X169114526Y-69187628D01*
X169113201Y-69146131D01*
X169113200Y-69145560D01*
X169113200Y-69061303D01*
X169160825Y-69040342D01*
X169212290Y-69025392D01*
X169279786Y-69016402D01*
X169354592Y-69013633D01*
X169427988Y-69017341D01*
X169491253Y-69027787D01*
X169500422Y-69030266D01*
X169573329Y-69063034D01*
X169641325Y-69114810D01*
X169696881Y-69179334D01*
X169714346Y-69208079D01*
X169727299Y-69236246D01*
X169735513Y-69266730D01*
X169739983Y-69306220D01*
X169741706Y-69361406D01*
X169741850Y-69392800D01*
X170708339Y-69392800D01*
X170742958Y-69310113D01*
X170789883Y-69197713D01*
X170838710Y-69080469D01*
X170888471Y-68960714D01*
X170938198Y-68840780D01*
X170986923Y-68722998D01*
X171033679Y-68609700D01*
X171077496Y-68503218D01*
X171117409Y-68405883D01*
X171152447Y-68320027D01*
X171181645Y-68247983D01*
X171204032Y-68192082D01*
X171218643Y-68154655D01*
X171224416Y-68138421D01*
X171222767Y-68109642D01*
X171204403Y-68090613D01*
X171092186Y-68010745D01*
X170999357Y-67939119D01*
X170922610Y-67872573D01*
X170858637Y-67807946D01*
X170804131Y-67742075D01*
X170755785Y-67671799D01*
X170740832Y-67647459D01*
X170676064Y-67521951D01*
X170660381Y-67476670D01*
X168668700Y-67476670D01*
X168436925Y-67472710D01*
X168351375Y-67470910D01*
X168287028Y-67468562D01*
X168239688Y-67465241D01*
X168205161Y-67460526D01*
X168179250Y-67453992D01*
X168157758Y-67445216D01*
X168156026Y-67444366D01*
X168104487Y-67407746D01*
X168072871Y-67357720D01*
X168059752Y-67291752D01*
X168059195Y-67271900D01*
X168068053Y-67202928D01*
X168093051Y-67145887D01*
X168131826Y-67106057D01*
X168134011Y-67104657D01*
X168148166Y-67093997D01*
X168149366Y-67082517D01*
X168136026Y-67063302D01*
X168120365Y-67045163D01*
X168099412Y-67019195D01*
X168088472Y-66996115D01*
X168085102Y-66966682D01*
X168086862Y-66921657D01*
X168087031Y-66918992D01*
X168091401Y-66871915D01*
X168099345Y-66841395D01*
X168114246Y-66818588D01*
X168132157Y-66801109D01*
X168160471Y-66779279D01*
X168192465Y-66763033D01*
X168232238Y-66751608D01*
X168283889Y-66744244D01*
X168351519Y-66740178D01*
X168439224Y-66738648D01*
X168468675Y-66738570D01*
X168668700Y-66738500D01*
X168668700Y-67476670D01*
X170660381Y-67476670D01*
X170631552Y-67393433D01*
X170605838Y-67256344D01*
X170597464Y-67105123D01*
X170597465Y-67100450D01*
X170609574Y-66941695D01*
X170644077Y-66791674D01*
X170699066Y-66651734D01*
X170772633Y-66523223D01*
X170862869Y-66407488D01*
X170967866Y-66305876D01*
X171085716Y-66219737D01*
X171214510Y-66150416D01*
X171352340Y-66099262D01*
X171497299Y-66067622D01*
X171647477Y-66056844D01*
X171800966Y-66068275D01*
X171955858Y-66103264D01*
X171992663Y-66115190D01*
X172140352Y-66179036D01*
X172274557Y-66263982D01*
X172393993Y-66368848D01*
X172497376Y-66492455D01*
X172583422Y-66633624D01*
X172604627Y-66676987D01*
X172652965Y-66799533D01*
X172682662Y-66921983D01*
X172695629Y-67053268D01*
X172696568Y-67106800D01*
X172685182Y-67273003D01*
X172651155Y-67428145D01*
X172593953Y-67573666D01*
X172513046Y-67711006D01*
X172437540Y-67808287D01*
X172397194Y-67849551D01*
X172339185Y-67900967D01*
X172267456Y-67959337D01*
X172185952Y-68021464D01*
X172098619Y-68084147D01*
X172089298Y-68090613D01*
X172069050Y-68114141D01*
X172069285Y-68138421D01*
X172075726Y-68156412D01*
X172090852Y-68195064D01*
X172113695Y-68252044D01*
X172143286Y-68325021D01*
X172178658Y-68411664D01*
X172218843Y-68509640D01*
X172262873Y-68616617D01*
X172309781Y-68730265D01*
X172358597Y-68848250D01*
X172408354Y-68968241D01*
X172458085Y-69087907D01*
X172506822Y-69204916D01*
X172553595Y-69316936D01*
X172597439Y-69421634D01*
X172637383Y-69516680D01*
X172672462Y-69599742D01*
X172701706Y-69668487D01*
X172724149Y-69720584D01*
X172738821Y-69753701D01*
X172744658Y-69765437D01*
X172759243Y-69763609D01*
X172792474Y-69751021D01*
X172840791Y-69729245D01*
X172900635Y-69699849D01*
X172942181Y-69678371D01*
X173011819Y-69642037D01*
X173062911Y-69616455D01*
X173099208Y-69600205D01*
X173124459Y-69591867D01*
X173142412Y-69590021D01*
X173156816Y-69593247D01*
X173161601Y-69595261D01*
X173179660Y-69605857D01*
X173215928Y-69629107D01*
X173267720Y-69663219D01*
X173332354Y-69706405D01*
X173407146Y-69756872D01*
X173489410Y-69812831D01*
X173554125Y-69857138D01*
X173639532Y-69915347D01*
X173718963Y-69968666D01*
X173789844Y-70015431D01*
X173849601Y-70053976D01*
X173895659Y-70082635D01*
X173925446Y-70099744D01*
X173935714Y-70104000D01*
X173949337Y-70095282D01*
X173978711Y-70070433D01*
X174021755Y-70031409D01*
X174076389Y-69980167D01*
X174140530Y-69918664D01*
X174212099Y-69848857D01*
X174289014Y-69772701D01*
X174304068Y-69757667D01*
X174381113Y-69680273D01*
X174452199Y-69608189D01*
X174515379Y-69543443D01*
X174568702Y-69488063D01*
X174610220Y-69444076D01*
X174637984Y-69413509D01*
X174650044Y-69398390D01*
X174650400Y-69397400D01*
X174643449Y-69384039D01*
X174623678Y-69352242D01*
X174592712Y-69304468D01*
X174552176Y-69243175D01*
X174536019Y-69219062D01*
X174231322Y-69219062D01*
X174229370Y-69280880D01*
X174215962Y-69334071D01*
X174212180Y-69342136D01*
X174181021Y-69379413D01*
X174130219Y-69413903D01*
X174065526Y-69442260D01*
X174015400Y-69456592D01*
X173940796Y-69475844D01*
X173889208Y-69495359D01*
X173858299Y-69516891D01*
X173845731Y-69542191D01*
X173849163Y-69573012D01*
X173851373Y-69579481D01*
X173874969Y-69608626D01*
X173917554Y-69623913D01*
X173976893Y-69625438D01*
X174050754Y-69613298D01*
X174136901Y-69587591D01*
X174196375Y-69564515D01*
X174208310Y-69562108D01*
X174215021Y-69570740D01*
X174217965Y-69595254D01*
X174218600Y-69638341D01*
X174216990Y-69681901D01*
X174212782Y-69714486D01*
X174207252Y-69728515D01*
X174164759Y-69745707D01*
X174104105Y-69758609D01*
X174032052Y-69766980D01*
X173955364Y-69770575D01*
X173880805Y-69769152D01*
X173815138Y-69762468D01*
X173765127Y-69750280D01*
X173752877Y-69744831D01*
X173703014Y-69708107D01*
X173670453Y-69658485D01*
X173653209Y-69592243D01*
X173649703Y-69551606D01*
X173649083Y-69498210D01*
X173653881Y-69461163D01*
X173665551Y-69431721D01*
X173671233Y-69422065D01*
X173694172Y-69390991D01*
X173721910Y-69366933D01*
X173759659Y-69347078D01*
X173812633Y-69328613D01*
X173877060Y-69311005D01*
X173942452Y-69294084D01*
X173987334Y-69281479D01*
X174015859Y-69271430D01*
X174032182Y-69262181D01*
X174040454Y-69251973D01*
X174044556Y-69240111D01*
X174042306Y-69207271D01*
X174018670Y-69182163D01*
X173976801Y-69165973D01*
X173919853Y-69159887D01*
X173850982Y-69165091D01*
X173846731Y-69165757D01*
X173801784Y-69174347D01*
X173764663Y-69183821D01*
X173747600Y-69190189D01*
X173722502Y-69200604D01*
X173707494Y-69196452D01*
X173700122Y-69174342D01*
X173697934Y-69130883D01*
X173697900Y-69121503D01*
X173697900Y-69040706D01*
X173769869Y-69026253D01*
X173818192Y-69019288D01*
X173879748Y-69014163D01*
X173942388Y-69011845D01*
X173951328Y-69011800D01*
X174042451Y-69018238D01*
X174114112Y-69038255D01*
X174168943Y-69072902D01*
X174202623Y-69112103D01*
X174222259Y-69159256D01*
X174231322Y-69219062D01*
X174536019Y-69219062D01*
X174503693Y-69170820D01*
X174448890Y-69089863D01*
X174394565Y-69010308D01*
X174334717Y-68922624D01*
X174279113Y-68840415D01*
X174229490Y-68766305D01*
X174187584Y-68702916D01*
X174155132Y-68652873D01*
X174133869Y-68618800D01*
X174125804Y-68604141D01*
X174123084Y-68591697D01*
X174124004Y-68574247D01*
X174129451Y-68549103D01*
X174140313Y-68513574D01*
X174157476Y-68464971D01*
X174181828Y-68400603D01*
X174214255Y-68317781D01*
X174249380Y-68229491D01*
X174293599Y-68118921D01*
X174329494Y-68029607D01*
X174358130Y-67959207D01*
X174380571Y-67905377D01*
X174397883Y-67865773D01*
X174411131Y-67838050D01*
X174421379Y-67819867D01*
X174429694Y-67808878D01*
X174437140Y-67802740D01*
X174444783Y-67799110D01*
X174445006Y-67799023D01*
X174461035Y-67795224D01*
X174498526Y-67787476D01*
X174553981Y-67776440D01*
X174623900Y-67762780D01*
X174704784Y-67747158D01*
X174793132Y-67730238D01*
X174885445Y-67712681D01*
X174978223Y-67695152D01*
X175067967Y-67678312D01*
X175151177Y-67662825D01*
X175224353Y-67649353D01*
X175283995Y-67638559D01*
X175326605Y-67631107D01*
X175348682Y-67627658D01*
X175350617Y-67627500D01*
X175365944Y-67619501D01*
X175379743Y-67607542D01*
X175384934Y-67599806D01*
X175389155Y-67586399D01*
X175392505Y-67564906D01*
X175395079Y-67532911D01*
X175396974Y-67487999D01*
X175397255Y-67475100D01*
X175247300Y-67475100D01*
X175056800Y-67475100D01*
X175056800Y-67221100D01*
X174952025Y-67221029D01*
X174868581Y-67217883D01*
X174804444Y-67207674D01*
X174754174Y-67189052D01*
X174713839Y-67161949D01*
X174671863Y-67117371D01*
X174647619Y-67066112D01*
X174638123Y-67001032D01*
X174637700Y-66979800D01*
X174643670Y-66909676D01*
X174663567Y-66855334D01*
X174700378Y-66809633D01*
X174713839Y-66797650D01*
X174742450Y-66776889D01*
X174774761Y-66761475D01*
X174814913Y-66750675D01*
X174867050Y-66743755D01*
X174935313Y-66739981D01*
X175023845Y-66738619D01*
X175047275Y-66738570D01*
X175247300Y-66738500D01*
X175247300Y-67475100D01*
X175397255Y-67475100D01*
X175398287Y-67427754D01*
X175399114Y-67349760D01*
X175399552Y-67251602D01*
X175399698Y-67130863D01*
X175399701Y-67108320D01*
X175399491Y-66976775D01*
X175398823Y-66868718D01*
X175397634Y-66782238D01*
X175395865Y-66715426D01*
X175393455Y-66666371D01*
X175390344Y-66633165D01*
X175386470Y-66613897D01*
X175383826Y-66608324D01*
X175371750Y-66601117D01*
X175344194Y-66591932D01*
X175299606Y-66580427D01*
X175236437Y-66566256D01*
X175153137Y-66549076D01*
X175048157Y-66528542D01*
X174919947Y-66504310D01*
X174893611Y-66499404D01*
X174777790Y-66477502D01*
X174673246Y-66457007D01*
X174582327Y-66438423D01*
X174507382Y-66422255D01*
X174450760Y-66409005D01*
X174414808Y-66399180D01*
X174402240Y-66393881D01*
X174393072Y-66378152D01*
X174375421Y-66342090D01*
X174350680Y-66288762D01*
X174320246Y-66221235D01*
X174285512Y-66142577D01*
X174247873Y-66055855D01*
X174236253Y-66028796D01*
X174193338Y-65928210D01*
X174159700Y-65848185D01*
X174134389Y-65786033D01*
X174116453Y-65739065D01*
X174104941Y-65704593D01*
X174098901Y-65679928D01*
X174097383Y-65662382D01*
X174099434Y-65649268D01*
X174100665Y-65645632D01*
X174110787Y-65627186D01*
X174133634Y-65590472D01*
X174167478Y-65538108D01*
X174210593Y-65472716D01*
X174261252Y-65396915D01*
X174317730Y-65313325D01*
X174373626Y-65231385D01*
X174433665Y-65143464D01*
X174489296Y-65061419D01*
X174538833Y-64987778D01*
X174580592Y-64925070D01*
X174612888Y-64875824D01*
X174634036Y-64842570D01*
X174642255Y-64828127D01*
X174641735Y-64818842D01*
X174634012Y-64803939D01*
X174617627Y-64781807D01*
X174591118Y-64750837D01*
X174553024Y-64709421D01*
X174501885Y-64655949D01*
X174436241Y-64588810D01*
X174354629Y-64506397D01*
X174338894Y-64490600D01*
X174155100Y-64490600D01*
X174155100Y-65227200D01*
X173964600Y-65227200D01*
X173964600Y-64922400D01*
X173659800Y-64922400D01*
X173659800Y-64782700D01*
X173964600Y-64782700D01*
X173964600Y-64630300D01*
X173634400Y-64630300D01*
X173634400Y-64490600D01*
X174155100Y-64490600D01*
X174338894Y-64490600D01*
X174305078Y-64456652D01*
X174202651Y-64354671D01*
X174116186Y-64270065D01*
X174045937Y-64203075D01*
X173992160Y-64153936D01*
X173955109Y-64122888D01*
X173935041Y-64110167D01*
X173933158Y-64109841D01*
X173917257Y-64116904D01*
X173882956Y-64136934D01*
X173832680Y-64168357D01*
X173768858Y-64209603D01*
X173693916Y-64259098D01*
X173610281Y-64315270D01*
X173520380Y-64376547D01*
X173501912Y-64389241D01*
X173411030Y-64451349D01*
X173325906Y-64508657D01*
X173248969Y-64559593D01*
X173182652Y-64602586D01*
X173129384Y-64636063D01*
X173091595Y-64658454D01*
X173071718Y-64668185D01*
X173070112Y-64668474D01*
X173048172Y-64663660D01*
X173007338Y-64650177D01*
X172951270Y-64629557D01*
X172883628Y-64603335D01*
X172808070Y-64573044D01*
X172728257Y-64540216D01*
X172647846Y-64506386D01*
X172570499Y-64473086D01*
X172499873Y-64441850D01*
X172439628Y-64414211D01*
X172393425Y-64391702D01*
X172364921Y-64375858D01*
X172357674Y-64369950D01*
X172351823Y-64352086D01*
X172342089Y-64312109D01*
X172329071Y-64252908D01*
X172313365Y-64177370D01*
X172295571Y-64088383D01*
X172276287Y-63988837D01*
X172256110Y-63881619D01*
X172252606Y-63862678D01*
X172228694Y-63734241D01*
X172208565Y-63628803D01*
X172191761Y-63544321D01*
X172182131Y-63499011D01*
X172021500Y-63499011D01*
X172021500Y-64147700D01*
X171869687Y-64147700D01*
X171866219Y-63923299D01*
X171862750Y-63698898D01*
X171792900Y-63859606D01*
X171723050Y-64020315D01*
X171596050Y-64020315D01*
X171526200Y-63859606D01*
X171456350Y-63698898D01*
X171449414Y-64147700D01*
X171297600Y-64147700D01*
X171297600Y-63499011D01*
X171405809Y-63502680D01*
X171514018Y-63506350D01*
X171574311Y-63639700D01*
X171599671Y-63695898D01*
X171622225Y-63746079D01*
X171639275Y-63784228D01*
X171647406Y-63802657D01*
X171653385Y-63812275D01*
X171660673Y-63811914D01*
X171671042Y-63798778D01*
X171686262Y-63770078D01*
X171708103Y-63723020D01*
X171731961Y-63669307D01*
X171803714Y-63506350D01*
X171912607Y-63502680D01*
X172021500Y-63499011D01*
X172182131Y-63499011D01*
X172177825Y-63478751D01*
X172166298Y-63430049D01*
X172156722Y-63396170D01*
X172148641Y-63375073D01*
X172141595Y-63364711D01*
X172140953Y-63364203D01*
X172122023Y-63359560D01*
X172081206Y-63355601D01*
X172022005Y-63352328D01*
X171947923Y-63349741D01*
X171862463Y-63347841D01*
X171769129Y-63346628D01*
X171671424Y-63346101D01*
X171572850Y-63346262D01*
D14*
%TO.C,P1*%
X178670000Y-114042800D02*
X176130000Y-114042800D01*
X176130000Y-116582800D02*
X176130000Y-98802800D01*
X178670000Y-98802800D02*
X178670000Y-116582800D01*
X176130000Y-116582800D02*
X178670000Y-116582800D01*
X178670000Y-98802800D02*
X176130000Y-98802800D01*
D10*
X181507142Y-108371371D02*
X181507142Y-106871371D01*
X180935714Y-106871371D01*
X180792857Y-106942800D01*
X180721428Y-107014228D01*
X180650000Y-107157085D01*
X180650000Y-107371371D01*
X180721428Y-107514228D01*
X180792857Y-107585657D01*
X180935714Y-107657085D01*
X181507142Y-107657085D01*
X179221428Y-108371371D02*
X180078571Y-108371371D01*
X179650000Y-108371371D02*
X179650000Y-106871371D01*
X179792857Y-107085657D01*
X179935714Y-107228514D01*
X180078571Y-107299942D01*
%TD*%
M02*
