M48
;DRILL file {KiCad (2017-10-06 revision 4905bbe50)-master} date Sun Oct  8 22:05:57 2017
;FORMAT={-:-/ absolute / metric / decimal}
FMAT,2
METRIC,TZ
T1C0.648
T2C0.650
T3C0.800
T4C1.000
T5C1.001
T6C2.540
T7C3.000
%
G90
G05
M71
T1
X187.101Y-67.706
X188.351Y-67.706
X189.601Y-67.706
X190.851Y-67.706
T2
X163.15Y-67.9
X165.15Y-67.9
T3
X160.65Y-85.36
X160.65Y-87.9
X155.65Y-72.49
X155.65Y-82.65
X165.97Y-73.34
X165.97Y-80.96
X168.51Y-73.34
X168.51Y-80.96
X171.05Y-73.34
X171.05Y-80.96
X173.59Y-73.34
X173.59Y-80.96
X176.13Y-73.34
X176.13Y-80.96
X178.67Y-73.34
X178.67Y-80.96
X181.21Y-73.34
X181.21Y-80.96
X183.75Y-73.34
X183.75Y-80.96
X186.29Y-73.34
X186.29Y-80.96
X188.83Y-73.34
X188.83Y-80.96
X160.65Y-72.49
X160.65Y-82.65
X177.4Y-96.45
X178.8Y-96.45
X171.4Y-67.9
X181.56Y-67.9
X155.65Y-85.36
X155.65Y-87.9
X176.Y-96.45
T4
X165.989Y-87.884
X168.529Y-87.884
X171.069Y-87.884
X173.609Y-87.884
X176.149Y-87.884
X178.689Y-87.884
X181.229Y-87.884
X159.901Y-100.693
X159.901Y-115.193
X162.4Y-115.193
X164.899Y-100.693
X164.899Y-115.193
X189.901Y-100.693
X189.901Y-115.193
X192.4Y-115.193
X194.899Y-100.693
X194.899Y-115.193
X177.4Y-100.073
X177.4Y-102.613
X177.4Y-105.153
X177.4Y-107.693
X177.4Y-110.233
X177.4Y-112.773
X177.4Y-115.313
T5
X195.326Y-71.755
X195.326Y-74.295
X195.326Y-76.835
X195.326Y-79.375
X195.326Y-81.915
X197.866Y-71.755
X197.866Y-74.295
X197.866Y-76.835
X197.866Y-79.375
X197.866Y-81.915
T6
X156.2Y-107.693
X168.6Y-107.693
X186.2Y-107.693
X198.6Y-107.693
T7
X199.4Y-67.15
X155.4Y-67.15
X155.4Y-92.15
X199.4Y-91.15
T0
M30
