%TF.GenerationSoftware,KiCad,Pcbnew,(2017-11-10 revision 0b34d09bc)-master*%
%TF.CreationDate,2017-11-10T16:36:00+02:00*%
%TF.ProjectId,dps5005control,64707335303035636F6E74726F6C2E6B,rev?*%
%TF.SameCoordinates,Original*%
%TF.FileFunction,Copper,L2,Bot,Signal*%
%TF.FilePolarity,Positive*%
%FSLAX46Y46*%
G04 Gerber Fmt 4.6, Leading zero omitted, Abs format (unit mm)*
G04 Created by KiCad (PCBNEW (2017-11-10 revision 0b34d09bc)-master) date Fri Nov 10 16:36:00 2017*
%MOMM*%
%LPD*%
G01*
G04 APERTURE LIST*
%TA.AperFunction,ComponentPad*%
%ADD10O,1.501140X2.199640*%
%TD*%
%TA.AperFunction,ComponentPad*%
%ADD11R,0.949960X1.498600*%
%TD*%
%TA.AperFunction,ComponentPad*%
%ADD12O,0.949960X1.498600*%
%TD*%
%TA.AperFunction,ComponentPad*%
%ADD13O,1.998980X1.524000*%
%TD*%
%TA.AperFunction,ComponentPad*%
%ADD14R,1.998980X1.524000*%
%TD*%
%TA.AperFunction,ComponentPad*%
%ADD15C,1.500000*%
%TD*%
%TA.AperFunction,ComponentPad*%
%ADD16R,1.500000X1.500000*%
%TD*%
%TA.AperFunction,ComponentPad*%
%ADD17O,1.600000X1.600000*%
%TD*%
%TA.AperFunction,ComponentPad*%
%ADD18C,1.600000*%
%TD*%
%TA.AperFunction,ComponentPad*%
%ADD19C,1.800000*%
%TD*%
%TA.AperFunction,ComponentPad*%
%ADD20R,1.800000X1.800000*%
%TD*%
%TA.AperFunction,ComponentPad*%
%ADD21C,3.000000*%
%TD*%
%TA.AperFunction,ComponentPad*%
%ADD22C,0.800000*%
%TD*%
%TA.AperFunction,ComponentPad*%
%ADD23O,1.501140X1.998980*%
%TD*%
%TA.AperFunction,ComponentPad*%
%ADD24C,3.500120*%
%TD*%
%TA.AperFunction,ComponentPad*%
%ADD25R,1.524000X2.199640*%
%TD*%
%TA.AperFunction,ComponentPad*%
%ADD26O,1.524000X2.199640*%
%TD*%
%TA.AperFunction,ComponentPad*%
%ADD27R,2.199640X1.524000*%
%TD*%
%TA.AperFunction,ComponentPad*%
%ADD28O,2.199640X1.524000*%
%TD*%
%TA.AperFunction,Conductor*%
%ADD29C,0.254000*%
%TD*%
G04 APERTURE END LIST*
D10*
%TO.P,U2,1*%
%TO.N,/RST*%
X188830000Y-73340000D03*
%TO.P,U2,2*%
%TO.N,/Rx*%
X186290000Y-73340000D03*
%TO.P,U2,3*%
%TO.N,/Tx*%
X183750000Y-73340000D03*
%TO.P,U2,4*%
%TO.N,Net-(U2-Pad4)*%
X181210000Y-73340000D03*
%TO.P,U2,5*%
%TO.N,Net-(U2-Pad5)*%
X178670000Y-73340000D03*
%TO.P,U2,6*%
%TO.N,Net-(U2-Pad6)*%
X176130000Y-73340000D03*
%TO.P,U2,7*%
%TO.N,/CC_MODE*%
X173590000Y-73340000D03*
%TO.P,U2,8*%
%TO.N,Net-(U2-Pad8)*%
X171050000Y-73340000D03*
%TO.P,U2,9*%
%TO.N,Net-(U2-Pad9)*%
X168510000Y-73340000D03*
%TO.P,U2,10*%
%TO.N,GND*%
X165970000Y-73340000D03*
%TO.P,U2,11*%
%TO.N,/ENC1_SW*%
X165970000Y-80960000D03*
%TO.P,U2,12*%
%TO.N,/ENC1_A*%
X168510000Y-80960000D03*
%TO.P,U2,13*%
%TO.N,/ENC1_B*%
X171050000Y-80960000D03*
%TO.P,U2,14*%
%TO.N,/ENC2_SW*%
X173590000Y-80960000D03*
%TO.P,U2,15*%
%TO.N,/ENC2_A*%
X176130000Y-80960000D03*
%TO.P,U2,16*%
%TO.N,/ENC2_B*%
X178670000Y-80960000D03*
%TO.P,U2,17*%
%TO.N,/MOSI*%
X181210000Y-80960000D03*
%TO.P,U2,18*%
%TO.N,/MISO*%
X183750000Y-80960000D03*
%TO.P,U2,19*%
%TO.N,/SCK*%
X186290000Y-80960000D03*
%TO.P,U2,20*%
%TO.N,+3.3V*%
X188830000Y-80960000D03*
%TD*%
D11*
%TO.P,P2,1*%
%TO.N,GND*%
X178214020Y-67896500D03*
D12*
%TO.P,P2,2*%
%TO.N,/Rx*%
X176964340Y-67896500D03*
%TO.P,P2,3*%
%TO.N,/Tx*%
X175714660Y-67896500D03*
%TO.P,P2,4*%
%TO.N,+3.3V*%
X174464980Y-67896500D03*
%TD*%
D13*
%TO.P,P3,10*%
%TO.N,GND*%
X198114920Y-81915000D03*
%TO.P,P3,9*%
%TO.N,/MISO*%
X195077080Y-81915000D03*
%TO.P,P3,8*%
%TO.N,GND*%
X198114920Y-79375000D03*
%TO.P,P3,7*%
%TO.N,/SCK*%
X195077080Y-79375000D03*
%TO.P,P3,6*%
%TO.N,GND*%
X198114920Y-76835000D03*
%TO.P,P3,5*%
%TO.N,/RST*%
X195077080Y-76835000D03*
%TO.P,P3,4*%
%TO.N,GND*%
X198114920Y-74295000D03*
%TO.P,P3,3*%
%TO.N,Net-(P3-Pad3)*%
X195077080Y-74295000D03*
%TO.P,P3,2*%
%TO.N,+3.3V*%
X198114920Y-71755000D03*
D14*
%TO.P,P3,1*%
%TO.N,/MOSI*%
X195077080Y-71755000D03*
%TD*%
D15*
%TO.P,C1,2*%
%TO.N,GND*%
X163150000Y-67900000D03*
D16*
%TO.P,C1,1*%
%TO.N,+3.3V*%
X165150000Y-67900000D03*
%TD*%
D17*
%TO.P,R1,2*%
%TO.N,/RST*%
X193167000Y-67960000D03*
D18*
%TO.P,R1,1*%
%TO.N,+3.3V*%
X183007000Y-67960000D03*
%TD*%
D19*
%TO.P,D1,2*%
%TO.N,Net-(D1-Pad2)*%
X160650000Y-85360000D03*
D20*
%TO.P,D1,1*%
%TO.N,GND*%
X160650000Y-87900000D03*
%TD*%
D21*
%TO.P,REF\002A\002A,1*%
%TO.N,N/C*%
X155400000Y-92150000D03*
%TD*%
%TO.P,REF\002A\002A,1*%
%TO.N,N/C*%
X199400000Y-91150000D03*
%TD*%
%TO.P,REF\002A\002A,1*%
%TO.N,N/C*%
X199400000Y-67150000D03*
%TD*%
D22*
%TO.P,REF\002A\002A,1*%
%TO.N,N/C*%
X176000000Y-96450000D03*
%TD*%
%TO.P,REF\002A\002A,1*%
%TO.N,N/C*%
X177400000Y-96450000D03*
%TD*%
%TO.P,REF\002A\002A,1*%
%TO.N,N/C*%
X178800000Y-96450000D03*
%TD*%
D23*
%TO.P,ENC1,4*%
%TO.N,/GND*%
X164899360Y-100692560D03*
%TO.P,ENC1,5*%
%TO.N,/_ENC1_SW*%
X159900640Y-100692560D03*
D24*
%TO.P,ENC1,*%
%TO.N,*%
X168600140Y-107692800D03*
X156199860Y-107692800D03*
D23*
%TO.P,ENC1,3*%
%TO.N,/_ENC1_B*%
X164899360Y-115193420D03*
%TO.P,ENC1,2*%
%TO.N,/GND*%
X162400000Y-115193420D03*
%TO.P,ENC1,1*%
%TO.N,/_ENC1_A*%
X159900640Y-115193420D03*
%TD*%
D25*
%TO.P,P4,1*%
%TO.N,/ENC1_SW*%
X165989000Y-87884000D03*
D26*
%TO.P,P4,2*%
%TO.N,/ENC1_A*%
X168529000Y-87884000D03*
%TO.P,P4,3*%
%TO.N,/ENC1_B*%
X171069000Y-87884000D03*
%TO.P,P4,4*%
%TO.N,/ENC2_SW*%
X173609000Y-87884000D03*
%TO.P,P4,5*%
%TO.N,/ENC2_A*%
X176149000Y-87884000D03*
%TO.P,P4,6*%
%TO.N,/ENC2_B*%
X178689000Y-87884000D03*
%TO.P,P4,7*%
%TO.N,GND*%
X181229000Y-87884000D03*
%TD*%
D17*
%TO.P,R3,2*%
%TO.N,+3.3V*%
X155650000Y-72490000D03*
D18*
%TO.P,R3,1*%
%TO.N,Net-(D2-Pad2)*%
X155650000Y-82650000D03*
%TD*%
D21*
%TO.P,REF\002A\002A,1*%
%TO.N,N/C*%
X155400000Y-67150000D03*
%TD*%
D18*
%TO.P,R2,1*%
%TO.N,Net-(D1-Pad2)*%
X160650000Y-82650000D03*
D17*
%TO.P,R2,2*%
%TO.N,/CC_MODE*%
X160650000Y-72490000D03*
%TD*%
D19*
%TO.P,D2,2*%
%TO.N,Net-(D2-Pad2)*%
X155650000Y-85360000D03*
D20*
%TO.P,D2,1*%
%TO.N,GND*%
X155650000Y-87900000D03*
%TD*%
D23*
%TO.P,ENC2,1*%
%TO.N,/_ENC2_B*%
X189900640Y-115193420D03*
%TO.P,ENC2,2*%
%TO.N,/GND*%
X192400000Y-115193420D03*
%TO.P,ENC2,3*%
%TO.N,/_ENC2_A*%
X194899360Y-115193420D03*
D24*
%TO.P,ENC2,*%
%TO.N,*%
X186199860Y-107692800D03*
X198600140Y-107692800D03*
D23*
%TO.P,ENC2,5*%
%TO.N,/GND*%
X189900640Y-100692560D03*
%TO.P,ENC2,4*%
%TO.N,/_ENC2_SW*%
X194899360Y-100692560D03*
%TD*%
D27*
%TO.P,P1,1*%
%TO.N,/GND*%
X177400000Y-115312800D03*
D28*
%TO.P,P1,2*%
%TO.N,/_ENC2_B*%
X177400000Y-112772800D03*
%TO.P,P1,3*%
%TO.N,/_ENC2_A*%
X177400000Y-110232800D03*
%TO.P,P1,4*%
%TO.N,/_ENC2_SW*%
X177400000Y-107692800D03*
%TO.P,P1,5*%
%TO.N,/_ENC1_B*%
X177400000Y-105152800D03*
%TO.P,P1,6*%
%TO.N,/_ENC1_A*%
X177400000Y-102612800D03*
%TO.P,P1,7*%
%TO.N,/_ENC1_SW*%
X177400000Y-100072800D03*
%TD*%
D29*
%TO.N,/GND*%
G36*
X179606320Y-97906770D02*
X180018337Y-98182071D01*
X180146308Y-98235078D01*
X180274278Y-98288085D01*
X180760285Y-98384757D01*
X180830213Y-98384757D01*
X180898800Y-98398400D01*
X201702600Y-98398400D01*
X201702600Y-116968200D01*
X153110000Y-116968200D01*
X153110000Y-114912478D01*
X158515070Y-114912478D01*
X158515070Y-115474362D01*
X158620540Y-116004597D01*
X158920894Y-116454108D01*
X159370405Y-116754462D01*
X159900640Y-116859932D01*
X160430875Y-116754462D01*
X160880386Y-116454108D01*
X161147277Y-116054677D01*
X161150159Y-116065253D01*
X161483676Y-116496130D01*
X161956695Y-116766577D01*
X162058725Y-116785223D01*
X162273000Y-116662569D01*
X162273000Y-115320420D01*
X162253000Y-115320420D01*
X162253000Y-115066420D01*
X162273000Y-115066420D01*
X162273000Y-113724271D01*
X162527000Y-113724271D01*
X162527000Y-115066420D01*
X162547000Y-115066420D01*
X162547000Y-115320420D01*
X162527000Y-115320420D01*
X162527000Y-116662569D01*
X162741275Y-116785223D01*
X162843305Y-116766577D01*
X163316324Y-116496130D01*
X163649841Y-116065253D01*
X163652723Y-116054677D01*
X163919614Y-116454108D01*
X164369125Y-116754462D01*
X164899360Y-116859932D01*
X165429595Y-116754462D01*
X165879106Y-116454108D01*
X166179460Y-116004597D01*
X166260227Y-115598550D01*
X175665180Y-115598550D01*
X175665180Y-116201109D01*
X175761853Y-116434498D01*
X175940481Y-116613127D01*
X176173870Y-116709800D01*
X177114250Y-116709800D01*
X177273000Y-116551050D01*
X177273000Y-115439800D01*
X177527000Y-115439800D01*
X177527000Y-116551050D01*
X177685750Y-116709800D01*
X178626130Y-116709800D01*
X178859519Y-116613127D01*
X179038147Y-116434498D01*
X179134820Y-116201109D01*
X179134820Y-115598550D01*
X178976070Y-115439800D01*
X177527000Y-115439800D01*
X177273000Y-115439800D01*
X175823930Y-115439800D01*
X175665180Y-115598550D01*
X166260227Y-115598550D01*
X166284930Y-115474362D01*
X166284930Y-114912478D01*
X166179460Y-114382243D01*
X165879106Y-113932732D01*
X165429595Y-113632378D01*
X164899360Y-113526908D01*
X164369125Y-113632378D01*
X163919614Y-113932732D01*
X163652723Y-114332163D01*
X163649841Y-114321587D01*
X163316324Y-113890710D01*
X162843305Y-113620263D01*
X162741275Y-113601617D01*
X162527000Y-113724271D01*
X162273000Y-113724271D01*
X162058725Y-113601617D01*
X161956695Y-113620263D01*
X161483676Y-113890710D01*
X161150159Y-114321587D01*
X161147277Y-114332163D01*
X160880386Y-113932732D01*
X160430875Y-113632378D01*
X159900640Y-113526908D01*
X159370405Y-113632378D01*
X158920894Y-113932732D01*
X158620540Y-114382243D01*
X158515070Y-114912478D01*
X153110000Y-114912478D01*
X153110000Y-108165136D01*
X153814387Y-108165136D01*
X154176726Y-109042063D01*
X154847068Y-109713576D01*
X155723361Y-110077445D01*
X156672196Y-110078273D01*
X157549123Y-109715934D01*
X158220636Y-109045592D01*
X158584505Y-108169299D01*
X158584508Y-108165136D01*
X166214667Y-108165136D01*
X166577006Y-109042063D01*
X167247348Y-109713576D01*
X168123641Y-110077445D01*
X169072476Y-110078273D01*
X169949403Y-109715934D01*
X170620916Y-109045592D01*
X170984785Y-108169299D01*
X170985613Y-107220464D01*
X170623274Y-106343537D01*
X169952932Y-105672024D01*
X169076639Y-105308155D01*
X168127804Y-105307327D01*
X167250877Y-105669666D01*
X166579364Y-106340008D01*
X166215495Y-107216301D01*
X166214667Y-108165136D01*
X158584508Y-108165136D01*
X158585333Y-107220464D01*
X158222994Y-106343537D01*
X157552652Y-105672024D01*
X156676359Y-105308155D01*
X155727524Y-105307327D01*
X154850597Y-105669666D01*
X154179084Y-106340008D01*
X153815215Y-107216301D01*
X153814387Y-108165136D01*
X153110000Y-108165136D01*
X153110000Y-100411618D01*
X158515070Y-100411618D01*
X158515070Y-100973502D01*
X158620540Y-101503737D01*
X158920894Y-101953248D01*
X159370405Y-102253602D01*
X159900640Y-102359072D01*
X160430875Y-102253602D01*
X160880386Y-101953248D01*
X161180740Y-101503737D01*
X161273244Y-101038683D01*
X163506279Y-101038683D01*
X163649519Y-101564393D01*
X163983036Y-101995270D01*
X164456055Y-102265717D01*
X164558085Y-102284363D01*
X164772360Y-102161709D01*
X164772360Y-100819560D01*
X165026360Y-100819560D01*
X165026360Y-102161709D01*
X165240635Y-102284363D01*
X165342665Y-102265717D01*
X165815684Y-101995270D01*
X166149201Y-101564393D01*
X166292441Y-101038683D01*
X166131746Y-100819560D01*
X165026360Y-100819560D01*
X164772360Y-100819560D01*
X163666974Y-100819560D01*
X163506279Y-101038683D01*
X161273244Y-101038683D01*
X161286210Y-100973502D01*
X161286210Y-100411618D01*
X161273245Y-100346437D01*
X163506279Y-100346437D01*
X163666974Y-100565560D01*
X164772360Y-100565560D01*
X164772360Y-99223411D01*
X165026360Y-99223411D01*
X165026360Y-100565560D01*
X166131746Y-100565560D01*
X166292441Y-100346437D01*
X166217884Y-100072800D01*
X175631193Y-100072800D01*
X175737533Y-100607409D01*
X176040365Y-101060628D01*
X176462664Y-101342800D01*
X176040365Y-101624972D01*
X175737533Y-102078191D01*
X175631193Y-102612800D01*
X175737533Y-103147409D01*
X176040365Y-103600628D01*
X176462664Y-103882800D01*
X176040365Y-104164972D01*
X175737533Y-104618191D01*
X175631193Y-105152800D01*
X175737533Y-105687409D01*
X176040365Y-106140628D01*
X176462664Y-106422800D01*
X176040365Y-106704972D01*
X175737533Y-107158191D01*
X175631193Y-107692800D01*
X175737533Y-108227409D01*
X176040365Y-108680628D01*
X176462664Y-108962800D01*
X176040365Y-109244972D01*
X175737533Y-109698191D01*
X175631193Y-110232800D01*
X175737533Y-110767409D01*
X176040365Y-111220628D01*
X176462664Y-111502800D01*
X176040365Y-111784972D01*
X175737533Y-112238191D01*
X175631193Y-112772800D01*
X175737533Y-113307409D01*
X176040365Y-113760628D01*
X176272596Y-113915800D01*
X176173870Y-113915800D01*
X175940481Y-114012473D01*
X175761853Y-114191102D01*
X175665180Y-114424491D01*
X175665180Y-115027050D01*
X175823930Y-115185800D01*
X177273000Y-115185800D01*
X177273000Y-115165800D01*
X177527000Y-115165800D01*
X177527000Y-115185800D01*
X178976070Y-115185800D01*
X179134820Y-115027050D01*
X179134820Y-114912478D01*
X188515070Y-114912478D01*
X188515070Y-115474362D01*
X188620540Y-116004597D01*
X188920894Y-116454108D01*
X189370405Y-116754462D01*
X189900640Y-116859932D01*
X190430875Y-116754462D01*
X190880386Y-116454108D01*
X191147277Y-116054677D01*
X191150159Y-116065253D01*
X191483676Y-116496130D01*
X191956695Y-116766577D01*
X192058725Y-116785223D01*
X192273000Y-116662569D01*
X192273000Y-115320420D01*
X192253000Y-115320420D01*
X192253000Y-115066420D01*
X192273000Y-115066420D01*
X192273000Y-113724271D01*
X192527000Y-113724271D01*
X192527000Y-115066420D01*
X192547000Y-115066420D01*
X192547000Y-115320420D01*
X192527000Y-115320420D01*
X192527000Y-116662569D01*
X192741275Y-116785223D01*
X192843305Y-116766577D01*
X193316324Y-116496130D01*
X193649841Y-116065253D01*
X193652723Y-116054677D01*
X193919614Y-116454108D01*
X194369125Y-116754462D01*
X194899360Y-116859932D01*
X195429595Y-116754462D01*
X195879106Y-116454108D01*
X196179460Y-116004597D01*
X196284930Y-115474362D01*
X196284930Y-114912478D01*
X196179460Y-114382243D01*
X195879106Y-113932732D01*
X195429595Y-113632378D01*
X194899360Y-113526908D01*
X194369125Y-113632378D01*
X193919614Y-113932732D01*
X193652723Y-114332163D01*
X193649841Y-114321587D01*
X193316324Y-113890710D01*
X192843305Y-113620263D01*
X192741275Y-113601617D01*
X192527000Y-113724271D01*
X192273000Y-113724271D01*
X192058725Y-113601617D01*
X191956695Y-113620263D01*
X191483676Y-113890710D01*
X191150159Y-114321587D01*
X191147277Y-114332163D01*
X190880386Y-113932732D01*
X190430875Y-113632378D01*
X189900640Y-113526908D01*
X189370405Y-113632378D01*
X188920894Y-113932732D01*
X188620540Y-114382243D01*
X188515070Y-114912478D01*
X179134820Y-114912478D01*
X179134820Y-114424491D01*
X179038147Y-114191102D01*
X178859519Y-114012473D01*
X178626130Y-113915800D01*
X178527404Y-113915800D01*
X178759635Y-113760628D01*
X179062467Y-113307409D01*
X179168807Y-112772800D01*
X179062467Y-112238191D01*
X178759635Y-111784972D01*
X178337336Y-111502800D01*
X178759635Y-111220628D01*
X179062467Y-110767409D01*
X179168807Y-110232800D01*
X179062467Y-109698191D01*
X178759635Y-109244972D01*
X178337336Y-108962800D01*
X178759635Y-108680628D01*
X179062467Y-108227409D01*
X179074853Y-108165136D01*
X183814387Y-108165136D01*
X184176726Y-109042063D01*
X184847068Y-109713576D01*
X185723361Y-110077445D01*
X186672196Y-110078273D01*
X187549123Y-109715934D01*
X188220636Y-109045592D01*
X188584505Y-108169299D01*
X188584508Y-108165136D01*
X196214667Y-108165136D01*
X196577006Y-109042063D01*
X197247348Y-109713576D01*
X198123641Y-110077445D01*
X199072476Y-110078273D01*
X199949403Y-109715934D01*
X200620916Y-109045592D01*
X200984785Y-108169299D01*
X200985613Y-107220464D01*
X200623274Y-106343537D01*
X199952932Y-105672024D01*
X199076639Y-105308155D01*
X198127804Y-105307327D01*
X197250877Y-105669666D01*
X196579364Y-106340008D01*
X196215495Y-107216301D01*
X196214667Y-108165136D01*
X188584508Y-108165136D01*
X188585333Y-107220464D01*
X188222994Y-106343537D01*
X187552652Y-105672024D01*
X186676359Y-105308155D01*
X185727524Y-105307327D01*
X184850597Y-105669666D01*
X184179084Y-106340008D01*
X183815215Y-107216301D01*
X183814387Y-108165136D01*
X179074853Y-108165136D01*
X179168807Y-107692800D01*
X179062467Y-107158191D01*
X178759635Y-106704972D01*
X178337336Y-106422800D01*
X178759635Y-106140628D01*
X179062467Y-105687409D01*
X179168807Y-105152800D01*
X179062467Y-104618191D01*
X178759635Y-104164972D01*
X178337336Y-103882800D01*
X178759635Y-103600628D01*
X179062467Y-103147409D01*
X179168807Y-102612800D01*
X179062467Y-102078191D01*
X178759635Y-101624972D01*
X178337336Y-101342800D01*
X178759635Y-101060628D01*
X178774298Y-101038683D01*
X188507559Y-101038683D01*
X188650799Y-101564393D01*
X188984316Y-101995270D01*
X189457335Y-102265717D01*
X189559365Y-102284363D01*
X189773640Y-102161709D01*
X189773640Y-100819560D01*
X190027640Y-100819560D01*
X190027640Y-102161709D01*
X190241915Y-102284363D01*
X190343945Y-102265717D01*
X190816964Y-101995270D01*
X191150481Y-101564393D01*
X191293721Y-101038683D01*
X191133026Y-100819560D01*
X190027640Y-100819560D01*
X189773640Y-100819560D01*
X188668254Y-100819560D01*
X188507559Y-101038683D01*
X178774298Y-101038683D01*
X179062467Y-100607409D01*
X179114377Y-100346437D01*
X188507559Y-100346437D01*
X188668254Y-100565560D01*
X189773640Y-100565560D01*
X189773640Y-99223411D01*
X190027640Y-99223411D01*
X190027640Y-100565560D01*
X191133026Y-100565560D01*
X191245920Y-100411618D01*
X193513790Y-100411618D01*
X193513790Y-100973502D01*
X193619260Y-101503737D01*
X193919614Y-101953248D01*
X194369125Y-102253602D01*
X194899360Y-102359072D01*
X195429595Y-102253602D01*
X195879106Y-101953248D01*
X196179460Y-101503737D01*
X196284930Y-100973502D01*
X196284930Y-100411618D01*
X196179460Y-99881383D01*
X195879106Y-99431872D01*
X195429595Y-99131518D01*
X194899360Y-99026048D01*
X194369125Y-99131518D01*
X193919614Y-99431872D01*
X193619260Y-99881383D01*
X193513790Y-100411618D01*
X191245920Y-100411618D01*
X191293721Y-100346437D01*
X191150481Y-99820727D01*
X190816964Y-99389850D01*
X190343945Y-99119403D01*
X190241915Y-99100757D01*
X190027640Y-99223411D01*
X189773640Y-99223411D01*
X189559365Y-99100757D01*
X189457335Y-99119403D01*
X188984316Y-99389850D01*
X188650799Y-99820727D01*
X188507559Y-100346437D01*
X179114377Y-100346437D01*
X179168807Y-100072800D01*
X179062467Y-99538191D01*
X178759635Y-99084972D01*
X178306416Y-98782140D01*
X177771807Y-98675800D01*
X177028193Y-98675800D01*
X176493584Y-98782140D01*
X176040365Y-99084972D01*
X175737533Y-99538191D01*
X175631193Y-100072800D01*
X166217884Y-100072800D01*
X166149201Y-99820727D01*
X165815684Y-99389850D01*
X165342665Y-99119403D01*
X165240635Y-99100757D01*
X165026360Y-99223411D01*
X164772360Y-99223411D01*
X164558085Y-99100757D01*
X164456055Y-99119403D01*
X163983036Y-99389850D01*
X163649519Y-99820727D01*
X163506279Y-100346437D01*
X161273245Y-100346437D01*
X161180740Y-99881383D01*
X160880386Y-99431872D01*
X160430875Y-99131518D01*
X159900640Y-99026048D01*
X159370405Y-99131518D01*
X158920894Y-99431872D01*
X158620540Y-99881383D01*
X158515070Y-100411618D01*
X153110000Y-100411618D01*
X153110000Y-98398400D01*
X173888400Y-98398400D01*
X173956984Y-98384758D01*
X174026914Y-98384758D01*
X174512922Y-98288085D01*
X174662848Y-98225983D01*
X174768862Y-98182071D01*
X175180880Y-97906770D01*
X175267850Y-97819800D01*
X179519350Y-97819800D01*
X179606320Y-97906770D01*
X179606320Y-97906770D01*
G37*
X179606320Y-97906770D02*
X180018337Y-98182071D01*
X180146308Y-98235078D01*
X180274278Y-98288085D01*
X180760285Y-98384757D01*
X180830213Y-98384757D01*
X180898800Y-98398400D01*
X201702600Y-98398400D01*
X201702600Y-116968200D01*
X153110000Y-116968200D01*
X153110000Y-114912478D01*
X158515070Y-114912478D01*
X158515070Y-115474362D01*
X158620540Y-116004597D01*
X158920894Y-116454108D01*
X159370405Y-116754462D01*
X159900640Y-116859932D01*
X160430875Y-116754462D01*
X160880386Y-116454108D01*
X161147277Y-116054677D01*
X161150159Y-116065253D01*
X161483676Y-116496130D01*
X161956695Y-116766577D01*
X162058725Y-116785223D01*
X162273000Y-116662569D01*
X162273000Y-115320420D01*
X162253000Y-115320420D01*
X162253000Y-115066420D01*
X162273000Y-115066420D01*
X162273000Y-113724271D01*
X162527000Y-113724271D01*
X162527000Y-115066420D01*
X162547000Y-115066420D01*
X162547000Y-115320420D01*
X162527000Y-115320420D01*
X162527000Y-116662569D01*
X162741275Y-116785223D01*
X162843305Y-116766577D01*
X163316324Y-116496130D01*
X163649841Y-116065253D01*
X163652723Y-116054677D01*
X163919614Y-116454108D01*
X164369125Y-116754462D01*
X164899360Y-116859932D01*
X165429595Y-116754462D01*
X165879106Y-116454108D01*
X166179460Y-116004597D01*
X166260227Y-115598550D01*
X175665180Y-115598550D01*
X175665180Y-116201109D01*
X175761853Y-116434498D01*
X175940481Y-116613127D01*
X176173870Y-116709800D01*
X177114250Y-116709800D01*
X177273000Y-116551050D01*
X177273000Y-115439800D01*
X177527000Y-115439800D01*
X177527000Y-116551050D01*
X177685750Y-116709800D01*
X178626130Y-116709800D01*
X178859519Y-116613127D01*
X179038147Y-116434498D01*
X179134820Y-116201109D01*
X179134820Y-115598550D01*
X178976070Y-115439800D01*
X177527000Y-115439800D01*
X177273000Y-115439800D01*
X175823930Y-115439800D01*
X175665180Y-115598550D01*
X166260227Y-115598550D01*
X166284930Y-115474362D01*
X166284930Y-114912478D01*
X166179460Y-114382243D01*
X165879106Y-113932732D01*
X165429595Y-113632378D01*
X164899360Y-113526908D01*
X164369125Y-113632378D01*
X163919614Y-113932732D01*
X163652723Y-114332163D01*
X163649841Y-114321587D01*
X163316324Y-113890710D01*
X162843305Y-113620263D01*
X162741275Y-113601617D01*
X162527000Y-113724271D01*
X162273000Y-113724271D01*
X162058725Y-113601617D01*
X161956695Y-113620263D01*
X161483676Y-113890710D01*
X161150159Y-114321587D01*
X161147277Y-114332163D01*
X160880386Y-113932732D01*
X160430875Y-113632378D01*
X159900640Y-113526908D01*
X159370405Y-113632378D01*
X158920894Y-113932732D01*
X158620540Y-114382243D01*
X158515070Y-114912478D01*
X153110000Y-114912478D01*
X153110000Y-108165136D01*
X153814387Y-108165136D01*
X154176726Y-109042063D01*
X154847068Y-109713576D01*
X155723361Y-110077445D01*
X156672196Y-110078273D01*
X157549123Y-109715934D01*
X158220636Y-109045592D01*
X158584505Y-108169299D01*
X158584508Y-108165136D01*
X166214667Y-108165136D01*
X166577006Y-109042063D01*
X167247348Y-109713576D01*
X168123641Y-110077445D01*
X169072476Y-110078273D01*
X169949403Y-109715934D01*
X170620916Y-109045592D01*
X170984785Y-108169299D01*
X170985613Y-107220464D01*
X170623274Y-106343537D01*
X169952932Y-105672024D01*
X169076639Y-105308155D01*
X168127804Y-105307327D01*
X167250877Y-105669666D01*
X166579364Y-106340008D01*
X166215495Y-107216301D01*
X166214667Y-108165136D01*
X158584508Y-108165136D01*
X158585333Y-107220464D01*
X158222994Y-106343537D01*
X157552652Y-105672024D01*
X156676359Y-105308155D01*
X155727524Y-105307327D01*
X154850597Y-105669666D01*
X154179084Y-106340008D01*
X153815215Y-107216301D01*
X153814387Y-108165136D01*
X153110000Y-108165136D01*
X153110000Y-100411618D01*
X158515070Y-100411618D01*
X158515070Y-100973502D01*
X158620540Y-101503737D01*
X158920894Y-101953248D01*
X159370405Y-102253602D01*
X159900640Y-102359072D01*
X160430875Y-102253602D01*
X160880386Y-101953248D01*
X161180740Y-101503737D01*
X161273244Y-101038683D01*
X163506279Y-101038683D01*
X163649519Y-101564393D01*
X163983036Y-101995270D01*
X164456055Y-102265717D01*
X164558085Y-102284363D01*
X164772360Y-102161709D01*
X164772360Y-100819560D01*
X165026360Y-100819560D01*
X165026360Y-102161709D01*
X165240635Y-102284363D01*
X165342665Y-102265717D01*
X165815684Y-101995270D01*
X166149201Y-101564393D01*
X166292441Y-101038683D01*
X166131746Y-100819560D01*
X165026360Y-100819560D01*
X164772360Y-100819560D01*
X163666974Y-100819560D01*
X163506279Y-101038683D01*
X161273244Y-101038683D01*
X161286210Y-100973502D01*
X161286210Y-100411618D01*
X161273245Y-100346437D01*
X163506279Y-100346437D01*
X163666974Y-100565560D01*
X164772360Y-100565560D01*
X164772360Y-99223411D01*
X165026360Y-99223411D01*
X165026360Y-100565560D01*
X166131746Y-100565560D01*
X166292441Y-100346437D01*
X166217884Y-100072800D01*
X175631193Y-100072800D01*
X175737533Y-100607409D01*
X176040365Y-101060628D01*
X176462664Y-101342800D01*
X176040365Y-101624972D01*
X175737533Y-102078191D01*
X175631193Y-102612800D01*
X175737533Y-103147409D01*
X176040365Y-103600628D01*
X176462664Y-103882800D01*
X176040365Y-104164972D01*
X175737533Y-104618191D01*
X175631193Y-105152800D01*
X175737533Y-105687409D01*
X176040365Y-106140628D01*
X176462664Y-106422800D01*
X176040365Y-106704972D01*
X175737533Y-107158191D01*
X175631193Y-107692800D01*
X175737533Y-108227409D01*
X176040365Y-108680628D01*
X176462664Y-108962800D01*
X176040365Y-109244972D01*
X175737533Y-109698191D01*
X175631193Y-110232800D01*
X175737533Y-110767409D01*
X176040365Y-111220628D01*
X176462664Y-111502800D01*
X176040365Y-111784972D01*
X175737533Y-112238191D01*
X175631193Y-112772800D01*
X175737533Y-113307409D01*
X176040365Y-113760628D01*
X176272596Y-113915800D01*
X176173870Y-113915800D01*
X175940481Y-114012473D01*
X175761853Y-114191102D01*
X175665180Y-114424491D01*
X175665180Y-115027050D01*
X175823930Y-115185800D01*
X177273000Y-115185800D01*
X177273000Y-115165800D01*
X177527000Y-115165800D01*
X177527000Y-115185800D01*
X178976070Y-115185800D01*
X179134820Y-115027050D01*
X179134820Y-114912478D01*
X188515070Y-114912478D01*
X188515070Y-115474362D01*
X188620540Y-116004597D01*
X188920894Y-116454108D01*
X189370405Y-116754462D01*
X189900640Y-116859932D01*
X190430875Y-116754462D01*
X190880386Y-116454108D01*
X191147277Y-116054677D01*
X191150159Y-116065253D01*
X191483676Y-116496130D01*
X191956695Y-116766577D01*
X192058725Y-116785223D01*
X192273000Y-116662569D01*
X192273000Y-115320420D01*
X192253000Y-115320420D01*
X192253000Y-115066420D01*
X192273000Y-115066420D01*
X192273000Y-113724271D01*
X192527000Y-113724271D01*
X192527000Y-115066420D01*
X192547000Y-115066420D01*
X192547000Y-115320420D01*
X192527000Y-115320420D01*
X192527000Y-116662569D01*
X192741275Y-116785223D01*
X192843305Y-116766577D01*
X193316324Y-116496130D01*
X193649841Y-116065253D01*
X193652723Y-116054677D01*
X193919614Y-116454108D01*
X194369125Y-116754462D01*
X194899360Y-116859932D01*
X195429595Y-116754462D01*
X195879106Y-116454108D01*
X196179460Y-116004597D01*
X196284930Y-115474362D01*
X196284930Y-114912478D01*
X196179460Y-114382243D01*
X195879106Y-113932732D01*
X195429595Y-113632378D01*
X194899360Y-113526908D01*
X194369125Y-113632378D01*
X193919614Y-113932732D01*
X193652723Y-114332163D01*
X193649841Y-114321587D01*
X193316324Y-113890710D01*
X192843305Y-113620263D01*
X192741275Y-113601617D01*
X192527000Y-113724271D01*
X192273000Y-113724271D01*
X192058725Y-113601617D01*
X191956695Y-113620263D01*
X191483676Y-113890710D01*
X191150159Y-114321587D01*
X191147277Y-114332163D01*
X190880386Y-113932732D01*
X190430875Y-113632378D01*
X189900640Y-113526908D01*
X189370405Y-113632378D01*
X188920894Y-113932732D01*
X188620540Y-114382243D01*
X188515070Y-114912478D01*
X179134820Y-114912478D01*
X179134820Y-114424491D01*
X179038147Y-114191102D01*
X178859519Y-114012473D01*
X178626130Y-113915800D01*
X178527404Y-113915800D01*
X178759635Y-113760628D01*
X179062467Y-113307409D01*
X179168807Y-112772800D01*
X179062467Y-112238191D01*
X178759635Y-111784972D01*
X178337336Y-111502800D01*
X178759635Y-111220628D01*
X179062467Y-110767409D01*
X179168807Y-110232800D01*
X179062467Y-109698191D01*
X178759635Y-109244972D01*
X178337336Y-108962800D01*
X178759635Y-108680628D01*
X179062467Y-108227409D01*
X179074853Y-108165136D01*
X183814387Y-108165136D01*
X184176726Y-109042063D01*
X184847068Y-109713576D01*
X185723361Y-110077445D01*
X186672196Y-110078273D01*
X187549123Y-109715934D01*
X188220636Y-109045592D01*
X188584505Y-108169299D01*
X188584508Y-108165136D01*
X196214667Y-108165136D01*
X196577006Y-109042063D01*
X197247348Y-109713576D01*
X198123641Y-110077445D01*
X199072476Y-110078273D01*
X199949403Y-109715934D01*
X200620916Y-109045592D01*
X200984785Y-108169299D01*
X200985613Y-107220464D01*
X200623274Y-106343537D01*
X199952932Y-105672024D01*
X199076639Y-105308155D01*
X198127804Y-105307327D01*
X197250877Y-105669666D01*
X196579364Y-106340008D01*
X196215495Y-107216301D01*
X196214667Y-108165136D01*
X188584508Y-108165136D01*
X188585333Y-107220464D01*
X188222994Y-106343537D01*
X187552652Y-105672024D01*
X186676359Y-105308155D01*
X185727524Y-105307327D01*
X184850597Y-105669666D01*
X184179084Y-106340008D01*
X183815215Y-107216301D01*
X183814387Y-108165136D01*
X179074853Y-108165136D01*
X179168807Y-107692800D01*
X179062467Y-107158191D01*
X178759635Y-106704972D01*
X178337336Y-106422800D01*
X178759635Y-106140628D01*
X179062467Y-105687409D01*
X179168807Y-105152800D01*
X179062467Y-104618191D01*
X178759635Y-104164972D01*
X178337336Y-103882800D01*
X178759635Y-103600628D01*
X179062467Y-103147409D01*
X179168807Y-102612800D01*
X179062467Y-102078191D01*
X178759635Y-101624972D01*
X178337336Y-101342800D01*
X178759635Y-101060628D01*
X178774298Y-101038683D01*
X188507559Y-101038683D01*
X188650799Y-101564393D01*
X188984316Y-101995270D01*
X189457335Y-102265717D01*
X189559365Y-102284363D01*
X189773640Y-102161709D01*
X189773640Y-100819560D01*
X190027640Y-100819560D01*
X190027640Y-102161709D01*
X190241915Y-102284363D01*
X190343945Y-102265717D01*
X190816964Y-101995270D01*
X191150481Y-101564393D01*
X191293721Y-101038683D01*
X191133026Y-100819560D01*
X190027640Y-100819560D01*
X189773640Y-100819560D01*
X188668254Y-100819560D01*
X188507559Y-101038683D01*
X178774298Y-101038683D01*
X179062467Y-100607409D01*
X179114377Y-100346437D01*
X188507559Y-100346437D01*
X188668254Y-100565560D01*
X189773640Y-100565560D01*
X189773640Y-99223411D01*
X190027640Y-99223411D01*
X190027640Y-100565560D01*
X191133026Y-100565560D01*
X191245920Y-100411618D01*
X193513790Y-100411618D01*
X193513790Y-100973502D01*
X193619260Y-101503737D01*
X193919614Y-101953248D01*
X194369125Y-102253602D01*
X194899360Y-102359072D01*
X195429595Y-102253602D01*
X195879106Y-101953248D01*
X196179460Y-101503737D01*
X196284930Y-100973502D01*
X196284930Y-100411618D01*
X196179460Y-99881383D01*
X195879106Y-99431872D01*
X195429595Y-99131518D01*
X194899360Y-99026048D01*
X194369125Y-99131518D01*
X193919614Y-99431872D01*
X193619260Y-99881383D01*
X193513790Y-100411618D01*
X191245920Y-100411618D01*
X191293721Y-100346437D01*
X191150481Y-99820727D01*
X190816964Y-99389850D01*
X190343945Y-99119403D01*
X190241915Y-99100757D01*
X190027640Y-99223411D01*
X189773640Y-99223411D01*
X189559365Y-99100757D01*
X189457335Y-99119403D01*
X188984316Y-99389850D01*
X188650799Y-99820727D01*
X188507559Y-100346437D01*
X179114377Y-100346437D01*
X179168807Y-100072800D01*
X179062467Y-99538191D01*
X178759635Y-99084972D01*
X178306416Y-98782140D01*
X177771807Y-98675800D01*
X177028193Y-98675800D01*
X176493584Y-98782140D01*
X176040365Y-99084972D01*
X175737533Y-99538191D01*
X175631193Y-100072800D01*
X166217884Y-100072800D01*
X166149201Y-99820727D01*
X165815684Y-99389850D01*
X165342665Y-99119403D01*
X165240635Y-99100757D01*
X165026360Y-99223411D01*
X164772360Y-99223411D01*
X164558085Y-99100757D01*
X164456055Y-99119403D01*
X163983036Y-99389850D01*
X163649519Y-99820727D01*
X163506279Y-100346437D01*
X161273245Y-100346437D01*
X161180740Y-99881383D01*
X160880386Y-99431872D01*
X160430875Y-99131518D01*
X159900640Y-99026048D01*
X159370405Y-99131518D01*
X158920894Y-99431872D01*
X158620540Y-99881383D01*
X158515070Y-100411618D01*
X153110000Y-100411618D01*
X153110000Y-98398400D01*
X173888400Y-98398400D01*
X173956984Y-98384758D01*
X174026914Y-98384758D01*
X174512922Y-98288085D01*
X174662848Y-98225983D01*
X174768862Y-98182071D01*
X175180880Y-97906770D01*
X175267850Y-97819800D01*
X179519350Y-97819800D01*
X179606320Y-97906770D01*
%TO.N,GND*%
G36*
X201690000Y-94440000D02*
X180900000Y-94440000D01*
X180839456Y-94452043D01*
X180760285Y-94452043D01*
X180274278Y-94548715D01*
X180146308Y-94601722D01*
X180018337Y-94654729D01*
X179606320Y-94930030D01*
X179513350Y-95023000D01*
X175273850Y-95023000D01*
X175180880Y-94930030D01*
X174768862Y-94654729D01*
X174662848Y-94610817D01*
X174512922Y-94548715D01*
X174026914Y-94452042D01*
X173956984Y-94452042D01*
X173888400Y-94438400D01*
X153110000Y-94438400D01*
X153110000Y-92572815D01*
X153264630Y-92572815D01*
X153588980Y-93357800D01*
X154189041Y-93958909D01*
X154973459Y-94284628D01*
X155822815Y-94285370D01*
X156607800Y-93961020D01*
X157208909Y-93360959D01*
X157534628Y-92576541D01*
X157535370Y-91727185D01*
X157471586Y-91572815D01*
X197264630Y-91572815D01*
X197588980Y-92357800D01*
X198189041Y-92958909D01*
X198973459Y-93284628D01*
X199822815Y-93285370D01*
X200607800Y-92961020D01*
X201208909Y-92360959D01*
X201534628Y-91576541D01*
X201535370Y-90727185D01*
X201211020Y-89942200D01*
X200610959Y-89341091D01*
X199826541Y-89015372D01*
X198977185Y-89014630D01*
X198192200Y-89338980D01*
X197591091Y-89939041D01*
X197265372Y-90723459D01*
X197264630Y-91572815D01*
X157471586Y-91572815D01*
X157211020Y-90942200D01*
X156610959Y-90341091D01*
X155826541Y-90015372D01*
X154977185Y-90014630D01*
X154192200Y-90338980D01*
X153591091Y-90939041D01*
X153265372Y-91723459D01*
X153264630Y-92572815D01*
X153110000Y-92572815D01*
X153110000Y-88185750D01*
X154115000Y-88185750D01*
X154115000Y-88926309D01*
X154211673Y-89159698D01*
X154390301Y-89338327D01*
X154623690Y-89435000D01*
X155364250Y-89435000D01*
X155523000Y-89276250D01*
X155523000Y-88027000D01*
X155777000Y-88027000D01*
X155777000Y-89276250D01*
X155935750Y-89435000D01*
X156676310Y-89435000D01*
X156909699Y-89338327D01*
X157088327Y-89159698D01*
X157185000Y-88926309D01*
X157185000Y-88185750D01*
X159115000Y-88185750D01*
X159115000Y-88926309D01*
X159211673Y-89159698D01*
X159390301Y-89338327D01*
X159623690Y-89435000D01*
X160364250Y-89435000D01*
X160523000Y-89276250D01*
X160523000Y-88027000D01*
X160777000Y-88027000D01*
X160777000Y-89276250D01*
X160935750Y-89435000D01*
X161676310Y-89435000D01*
X161909699Y-89338327D01*
X162088327Y-89159698D01*
X162185000Y-88926309D01*
X162185000Y-88185750D01*
X162026250Y-88027000D01*
X160777000Y-88027000D01*
X160523000Y-88027000D01*
X159273750Y-88027000D01*
X159115000Y-88185750D01*
X157185000Y-88185750D01*
X157026250Y-88027000D01*
X155777000Y-88027000D01*
X155523000Y-88027000D01*
X154273750Y-88027000D01*
X154115000Y-88185750D01*
X153110000Y-88185750D01*
X153110000Y-85663991D01*
X154114735Y-85663991D01*
X154347932Y-86228371D01*
X154525092Y-86405841D01*
X154390301Y-86461673D01*
X154211673Y-86640302D01*
X154115000Y-86873691D01*
X154115000Y-87614250D01*
X154273750Y-87773000D01*
X155523000Y-87773000D01*
X155523000Y-87753000D01*
X155777000Y-87753000D01*
X155777000Y-87773000D01*
X157026250Y-87773000D01*
X157185000Y-87614250D01*
X157185000Y-86873691D01*
X157088327Y-86640302D01*
X156909699Y-86461673D01*
X156775006Y-86405881D01*
X156950551Y-86230643D01*
X157184733Y-85666670D01*
X157184735Y-85663991D01*
X159114735Y-85663991D01*
X159347932Y-86228371D01*
X159525092Y-86405841D01*
X159390301Y-86461673D01*
X159211673Y-86640302D01*
X159115000Y-86873691D01*
X159115000Y-87614250D01*
X159273750Y-87773000D01*
X160523000Y-87773000D01*
X160523000Y-87753000D01*
X160777000Y-87753000D01*
X160777000Y-87773000D01*
X162026250Y-87773000D01*
X162185000Y-87614250D01*
X162185000Y-86873691D01*
X162147924Y-86784180D01*
X164579560Y-86784180D01*
X164579560Y-88983820D01*
X164628843Y-89231585D01*
X164769191Y-89441629D01*
X164979235Y-89581977D01*
X165227000Y-89631260D01*
X166751000Y-89631260D01*
X166998765Y-89581977D01*
X167208809Y-89441629D01*
X167349157Y-89231585D01*
X167391358Y-89019423D01*
X167541172Y-89243635D01*
X167994391Y-89546467D01*
X168529000Y-89652807D01*
X169063609Y-89546467D01*
X169516828Y-89243635D01*
X169799000Y-88821336D01*
X170081172Y-89243635D01*
X170534391Y-89546467D01*
X171069000Y-89652807D01*
X171603609Y-89546467D01*
X172056828Y-89243635D01*
X172339000Y-88821336D01*
X172621172Y-89243635D01*
X173074391Y-89546467D01*
X173609000Y-89652807D01*
X174143609Y-89546467D01*
X174596828Y-89243635D01*
X174879000Y-88821336D01*
X175161172Y-89243635D01*
X175614391Y-89546467D01*
X176149000Y-89652807D01*
X176683609Y-89546467D01*
X177136828Y-89243635D01*
X177419000Y-88821336D01*
X177701172Y-89243635D01*
X178154391Y-89546467D01*
X178689000Y-89652807D01*
X179223609Y-89546467D01*
X179676828Y-89243635D01*
X179967647Y-88808394D01*
X179986941Y-88873761D01*
X180330974Y-89299450D01*
X180811723Y-89561080D01*
X180885930Y-89576040D01*
X181102000Y-89453540D01*
X181102000Y-88011000D01*
X181356000Y-88011000D01*
X181356000Y-89453540D01*
X181572070Y-89576040D01*
X181646277Y-89561080D01*
X182127026Y-89299450D01*
X182471059Y-88873761D01*
X182626000Y-88348820D01*
X182626000Y-88011000D01*
X181356000Y-88011000D01*
X181102000Y-88011000D01*
X181082000Y-88011000D01*
X181082000Y-87757000D01*
X181102000Y-87757000D01*
X181102000Y-86314460D01*
X181356000Y-86314460D01*
X181356000Y-87757000D01*
X182626000Y-87757000D01*
X182626000Y-87419180D01*
X182471059Y-86894239D01*
X182127026Y-86468550D01*
X181646277Y-86206920D01*
X181572070Y-86191960D01*
X181356000Y-86314460D01*
X181102000Y-86314460D01*
X180885930Y-86191960D01*
X180811723Y-86206920D01*
X180330974Y-86468550D01*
X179986941Y-86894239D01*
X179967647Y-86959606D01*
X179676828Y-86524365D01*
X179223609Y-86221533D01*
X178689000Y-86115193D01*
X178154391Y-86221533D01*
X177701172Y-86524365D01*
X177419000Y-86946664D01*
X177136828Y-86524365D01*
X176683609Y-86221533D01*
X176149000Y-86115193D01*
X175614391Y-86221533D01*
X175161172Y-86524365D01*
X174879000Y-86946664D01*
X174596828Y-86524365D01*
X174143609Y-86221533D01*
X173609000Y-86115193D01*
X173074391Y-86221533D01*
X172621172Y-86524365D01*
X172339000Y-86946664D01*
X172056828Y-86524365D01*
X171603609Y-86221533D01*
X171069000Y-86115193D01*
X170534391Y-86221533D01*
X170081172Y-86524365D01*
X169799000Y-86946664D01*
X169516828Y-86524365D01*
X169063609Y-86221533D01*
X168529000Y-86115193D01*
X167994391Y-86221533D01*
X167541172Y-86524365D01*
X167391358Y-86748577D01*
X167349157Y-86536415D01*
X167208809Y-86326371D01*
X166998765Y-86186023D01*
X166751000Y-86136740D01*
X165227000Y-86136740D01*
X164979235Y-86186023D01*
X164769191Y-86326371D01*
X164628843Y-86536415D01*
X164579560Y-86784180D01*
X162147924Y-86784180D01*
X162088327Y-86640302D01*
X161909699Y-86461673D01*
X161775006Y-86405881D01*
X161950551Y-86230643D01*
X162184733Y-85666670D01*
X162185265Y-85056009D01*
X161952068Y-84491629D01*
X161520643Y-84059449D01*
X161259281Y-83950922D01*
X161461800Y-83867243D01*
X161865824Y-83463923D01*
X162084750Y-82936691D01*
X162085248Y-82365813D01*
X161867243Y-81838200D01*
X161463923Y-81434176D01*
X160936691Y-81215250D01*
X160365813Y-81214752D01*
X159838200Y-81432757D01*
X159434176Y-81836077D01*
X159215250Y-82363309D01*
X159214752Y-82934187D01*
X159432757Y-83461800D01*
X159836077Y-83865824D01*
X160040815Y-83950839D01*
X159781629Y-84057932D01*
X159349449Y-84489357D01*
X159115267Y-85053330D01*
X159114735Y-85663991D01*
X157184735Y-85663991D01*
X157185265Y-85056009D01*
X156952068Y-84491629D01*
X156520643Y-84059449D01*
X156259281Y-83950922D01*
X156461800Y-83867243D01*
X156865824Y-83463923D01*
X157084750Y-82936691D01*
X157085248Y-82365813D01*
X156867243Y-81838200D01*
X156463923Y-81434176D01*
X155936691Y-81215250D01*
X155365813Y-81214752D01*
X154838200Y-81432757D01*
X154434176Y-81836077D01*
X154215250Y-82363309D01*
X154214752Y-82934187D01*
X154432757Y-83461800D01*
X154836077Y-83865824D01*
X155040815Y-83950839D01*
X154781629Y-84057932D01*
X154349449Y-84489357D01*
X154115267Y-85053330D01*
X154114735Y-85663991D01*
X153110000Y-85663991D01*
X153110000Y-80576763D01*
X164584430Y-80576763D01*
X164584430Y-81343237D01*
X164689900Y-81873472D01*
X164990254Y-82322983D01*
X165439765Y-82623337D01*
X165970000Y-82728807D01*
X166500235Y-82623337D01*
X166949746Y-82322983D01*
X167240000Y-81888588D01*
X167530254Y-82322983D01*
X167979765Y-82623337D01*
X168510000Y-82728807D01*
X169040235Y-82623337D01*
X169489746Y-82322983D01*
X169780000Y-81888588D01*
X170070254Y-82322983D01*
X170519765Y-82623337D01*
X171050000Y-82728807D01*
X171580235Y-82623337D01*
X172029746Y-82322983D01*
X172320000Y-81888588D01*
X172610254Y-82322983D01*
X173059765Y-82623337D01*
X173590000Y-82728807D01*
X174120235Y-82623337D01*
X174569746Y-82322983D01*
X174860000Y-81888588D01*
X175150254Y-82322983D01*
X175599765Y-82623337D01*
X176130000Y-82728807D01*
X176660235Y-82623337D01*
X177109746Y-82322983D01*
X177400000Y-81888588D01*
X177690254Y-82322983D01*
X178139765Y-82623337D01*
X178670000Y-82728807D01*
X179200235Y-82623337D01*
X179649746Y-82322983D01*
X179940000Y-81888588D01*
X180230254Y-82322983D01*
X180679765Y-82623337D01*
X181210000Y-82728807D01*
X181740235Y-82623337D01*
X182189746Y-82322983D01*
X182480000Y-81888588D01*
X182770254Y-82322983D01*
X183219765Y-82623337D01*
X183750000Y-82728807D01*
X184280235Y-82623337D01*
X184729746Y-82322983D01*
X185020000Y-81888588D01*
X185310254Y-82322983D01*
X185759765Y-82623337D01*
X186290000Y-82728807D01*
X186820235Y-82623337D01*
X187269746Y-82322983D01*
X187560000Y-81888588D01*
X187850254Y-82322983D01*
X188299765Y-82623337D01*
X188830000Y-82728807D01*
X189360235Y-82623337D01*
X189809746Y-82322983D01*
X190110100Y-81873472D01*
X190215570Y-81343237D01*
X190215570Y-80576763D01*
X190110100Y-80046528D01*
X189809746Y-79597017D01*
X189360235Y-79296663D01*
X188830000Y-79191193D01*
X188299765Y-79296663D01*
X187850254Y-79597017D01*
X187560000Y-80031412D01*
X187269746Y-79597017D01*
X186820235Y-79296663D01*
X186290000Y-79191193D01*
X185759765Y-79296663D01*
X185310254Y-79597017D01*
X185020000Y-80031412D01*
X184729746Y-79597017D01*
X184280235Y-79296663D01*
X183750000Y-79191193D01*
X183219765Y-79296663D01*
X182770254Y-79597017D01*
X182480000Y-80031412D01*
X182189746Y-79597017D01*
X181740235Y-79296663D01*
X181210000Y-79191193D01*
X180679765Y-79296663D01*
X180230254Y-79597017D01*
X179940000Y-80031412D01*
X179649746Y-79597017D01*
X179200235Y-79296663D01*
X178670000Y-79191193D01*
X178139765Y-79296663D01*
X177690254Y-79597017D01*
X177400000Y-80031412D01*
X177109746Y-79597017D01*
X176660235Y-79296663D01*
X176130000Y-79191193D01*
X175599765Y-79296663D01*
X175150254Y-79597017D01*
X174860000Y-80031412D01*
X174569746Y-79597017D01*
X174120235Y-79296663D01*
X173590000Y-79191193D01*
X173059765Y-79296663D01*
X172610254Y-79597017D01*
X172320000Y-80031412D01*
X172029746Y-79597017D01*
X171580235Y-79296663D01*
X171050000Y-79191193D01*
X170519765Y-79296663D01*
X170070254Y-79597017D01*
X169780000Y-80031412D01*
X169489746Y-79597017D01*
X169040235Y-79296663D01*
X168510000Y-79191193D01*
X167979765Y-79296663D01*
X167530254Y-79597017D01*
X167240000Y-80031412D01*
X166949746Y-79597017D01*
X166500235Y-79296663D01*
X165970000Y-79191193D01*
X165439765Y-79296663D01*
X164990254Y-79597017D01*
X164689900Y-80046528D01*
X164584430Y-80576763D01*
X153110000Y-80576763D01*
X153110000Y-72461887D01*
X154215000Y-72461887D01*
X154215000Y-72518113D01*
X154324233Y-73067264D01*
X154635302Y-73532811D01*
X155100849Y-73843880D01*
X155650000Y-73953113D01*
X156199151Y-73843880D01*
X156664698Y-73532811D01*
X156975767Y-73067264D01*
X157085000Y-72518113D01*
X157085000Y-72461887D01*
X159215000Y-72461887D01*
X159215000Y-72518113D01*
X159324233Y-73067264D01*
X159635302Y-73532811D01*
X160100849Y-73843880D01*
X160650000Y-73953113D01*
X161199151Y-73843880D01*
X161664698Y-73532811D01*
X161708671Y-73467000D01*
X164584430Y-73467000D01*
X164584430Y-73816250D01*
X164738501Y-74336817D01*
X165080056Y-74758798D01*
X165557097Y-75017950D01*
X165628725Y-75032133D01*
X165843000Y-74909479D01*
X165843000Y-73467000D01*
X164584430Y-73467000D01*
X161708671Y-73467000D01*
X161975767Y-73067264D01*
X162016248Y-72863750D01*
X164584430Y-72863750D01*
X164584430Y-73213000D01*
X165843000Y-73213000D01*
X165843000Y-71770521D01*
X166097000Y-71770521D01*
X166097000Y-73213000D01*
X166117000Y-73213000D01*
X166117000Y-73467000D01*
X166097000Y-73467000D01*
X166097000Y-74909479D01*
X166311275Y-75032133D01*
X166382903Y-75017950D01*
X166859944Y-74758798D01*
X167201499Y-74336817D01*
X167228399Y-74245928D01*
X167229900Y-74253472D01*
X167530254Y-74702983D01*
X167979765Y-75003337D01*
X168510000Y-75108807D01*
X169040235Y-75003337D01*
X169489746Y-74702983D01*
X169780000Y-74268588D01*
X170070254Y-74702983D01*
X170519765Y-75003337D01*
X171050000Y-75108807D01*
X171580235Y-75003337D01*
X172029746Y-74702983D01*
X172320000Y-74268588D01*
X172610254Y-74702983D01*
X173059765Y-75003337D01*
X173590000Y-75108807D01*
X174120235Y-75003337D01*
X174569746Y-74702983D01*
X174860000Y-74268588D01*
X175150254Y-74702983D01*
X175599765Y-75003337D01*
X176130000Y-75108807D01*
X176660235Y-75003337D01*
X177109746Y-74702983D01*
X177400000Y-74268588D01*
X177690254Y-74702983D01*
X178139765Y-75003337D01*
X178670000Y-75108807D01*
X179200235Y-75003337D01*
X179649746Y-74702983D01*
X179940000Y-74268588D01*
X180230254Y-74702983D01*
X180679765Y-75003337D01*
X181210000Y-75108807D01*
X181740235Y-75003337D01*
X182189746Y-74702983D01*
X182480000Y-74268588D01*
X182770254Y-74702983D01*
X183219765Y-75003337D01*
X183750000Y-75108807D01*
X184280235Y-75003337D01*
X184729746Y-74702983D01*
X185020000Y-74268588D01*
X185310254Y-74702983D01*
X185759765Y-75003337D01*
X186290000Y-75108807D01*
X186820235Y-75003337D01*
X187269746Y-74702983D01*
X187560000Y-74268588D01*
X187850254Y-74702983D01*
X188299765Y-75003337D01*
X188830000Y-75108807D01*
X189360235Y-75003337D01*
X189809746Y-74702983D01*
X190082351Y-74295000D01*
X193410568Y-74295000D01*
X193516908Y-74829609D01*
X193819740Y-75282828D01*
X194242039Y-75565000D01*
X193819740Y-75847172D01*
X193516908Y-76300391D01*
X193410568Y-76835000D01*
X193516908Y-77369609D01*
X193819740Y-77822828D01*
X194242039Y-78105000D01*
X193819740Y-78387172D01*
X193516908Y-78840391D01*
X193410568Y-79375000D01*
X193516908Y-79909609D01*
X193819740Y-80362828D01*
X194242039Y-80645000D01*
X193819740Y-80927172D01*
X193516908Y-81380391D01*
X193410568Y-81915000D01*
X193516908Y-82449609D01*
X193819740Y-82902828D01*
X194272959Y-83205660D01*
X194807568Y-83312000D01*
X195346592Y-83312000D01*
X195881201Y-83205660D01*
X196334420Y-82902828D01*
X196614762Y-82483267D01*
X196808130Y-82828465D01*
X197239093Y-83168135D01*
X197767238Y-83317027D01*
X197987920Y-83158254D01*
X197987920Y-82042000D01*
X198241920Y-82042000D01*
X198241920Y-83158254D01*
X198462602Y-83317027D01*
X198990747Y-83168135D01*
X199421710Y-82828465D01*
X199689882Y-82349728D01*
X199706630Y-82258070D01*
X199584130Y-82042000D01*
X198241920Y-82042000D01*
X197987920Y-82042000D01*
X197967920Y-82042000D01*
X197967920Y-81788000D01*
X197987920Y-81788000D01*
X197987920Y-80671746D01*
X197950745Y-80645000D01*
X197987920Y-80618254D01*
X197987920Y-79502000D01*
X198241920Y-79502000D01*
X198241920Y-80618254D01*
X198279095Y-80645000D01*
X198241920Y-80671746D01*
X198241920Y-81788000D01*
X199584130Y-81788000D01*
X199706630Y-81571930D01*
X199689882Y-81480272D01*
X199421710Y-81001535D01*
X198990747Y-80661865D01*
X198930924Y-80645000D01*
X198990747Y-80628135D01*
X199421710Y-80288465D01*
X199689882Y-79809728D01*
X199706630Y-79718070D01*
X199584130Y-79502000D01*
X198241920Y-79502000D01*
X197987920Y-79502000D01*
X197967920Y-79502000D01*
X197967920Y-79248000D01*
X197987920Y-79248000D01*
X197987920Y-78131746D01*
X197950745Y-78105000D01*
X197987920Y-78078254D01*
X197987920Y-76962000D01*
X198241920Y-76962000D01*
X198241920Y-78078254D01*
X198279095Y-78105000D01*
X198241920Y-78131746D01*
X198241920Y-79248000D01*
X199584130Y-79248000D01*
X199706630Y-79031930D01*
X199689882Y-78940272D01*
X199421710Y-78461535D01*
X198990747Y-78121865D01*
X198930924Y-78105000D01*
X198990747Y-78088135D01*
X199421710Y-77748465D01*
X199689882Y-77269728D01*
X199706630Y-77178070D01*
X199584130Y-76962000D01*
X198241920Y-76962000D01*
X197987920Y-76962000D01*
X197967920Y-76962000D01*
X197967920Y-76708000D01*
X197987920Y-76708000D01*
X197987920Y-75591746D01*
X197950745Y-75565000D01*
X197987920Y-75538254D01*
X197987920Y-74422000D01*
X198241920Y-74422000D01*
X198241920Y-75538254D01*
X198279095Y-75565000D01*
X198241920Y-75591746D01*
X198241920Y-76708000D01*
X199584130Y-76708000D01*
X199706630Y-76491930D01*
X199689882Y-76400272D01*
X199421710Y-75921535D01*
X198990747Y-75581865D01*
X198930924Y-75565000D01*
X198990747Y-75548135D01*
X199421710Y-75208465D01*
X199689882Y-74729728D01*
X199706630Y-74638070D01*
X199584130Y-74422000D01*
X198241920Y-74422000D01*
X197987920Y-74422000D01*
X197967920Y-74422000D01*
X197967920Y-74168000D01*
X197987920Y-74168000D01*
X197987920Y-74148000D01*
X198241920Y-74148000D01*
X198241920Y-74168000D01*
X199584130Y-74168000D01*
X199706630Y-73951930D01*
X199689882Y-73860272D01*
X199421710Y-73381535D01*
X198990747Y-73041865D01*
X198944312Y-73028774D01*
X199372260Y-72742828D01*
X199675092Y-72289609D01*
X199781432Y-71755000D01*
X199675092Y-71220391D01*
X199372260Y-70767172D01*
X198919041Y-70464340D01*
X198384432Y-70358000D01*
X197845408Y-70358000D01*
X197310799Y-70464340D01*
X196857580Y-70767172D01*
X196720036Y-70973021D01*
X196674727Y-70745235D01*
X196534379Y-70535191D01*
X196324335Y-70394843D01*
X196076570Y-70345560D01*
X194077590Y-70345560D01*
X193829825Y-70394843D01*
X193619781Y-70535191D01*
X193479433Y-70745235D01*
X193430150Y-70993000D01*
X193430150Y-72517000D01*
X193479433Y-72764765D01*
X193619781Y-72974809D01*
X193829825Y-73115157D01*
X194043501Y-73157659D01*
X193819740Y-73307172D01*
X193516908Y-73760391D01*
X193410568Y-74295000D01*
X190082351Y-74295000D01*
X190110100Y-74253472D01*
X190215570Y-73723237D01*
X190215570Y-72956763D01*
X190110100Y-72426528D01*
X189809746Y-71977017D01*
X189360235Y-71676663D01*
X188830000Y-71571193D01*
X188299765Y-71676663D01*
X187850254Y-71977017D01*
X187560000Y-72411412D01*
X187269746Y-71977017D01*
X186820235Y-71676663D01*
X186290000Y-71571193D01*
X185759765Y-71676663D01*
X185310254Y-71977017D01*
X185020000Y-72411412D01*
X184729746Y-71977017D01*
X184280235Y-71676663D01*
X183750000Y-71571193D01*
X183219765Y-71676663D01*
X182770254Y-71977017D01*
X182480000Y-72411412D01*
X182189746Y-71977017D01*
X181740235Y-71676663D01*
X181210000Y-71571193D01*
X180679765Y-71676663D01*
X180230254Y-71977017D01*
X179940000Y-72411412D01*
X179649746Y-71977017D01*
X179200235Y-71676663D01*
X178670000Y-71571193D01*
X178139765Y-71676663D01*
X177690254Y-71977017D01*
X177400000Y-72411412D01*
X177109746Y-71977017D01*
X176660235Y-71676663D01*
X176130000Y-71571193D01*
X175599765Y-71676663D01*
X175150254Y-71977017D01*
X174860000Y-72411412D01*
X174569746Y-71977017D01*
X174120235Y-71676663D01*
X173590000Y-71571193D01*
X173059765Y-71676663D01*
X172610254Y-71977017D01*
X172320000Y-72411412D01*
X172029746Y-71977017D01*
X171580235Y-71676663D01*
X171050000Y-71571193D01*
X170519765Y-71676663D01*
X170070254Y-71977017D01*
X169780000Y-72411412D01*
X169489746Y-71977017D01*
X169040235Y-71676663D01*
X168510000Y-71571193D01*
X167979765Y-71676663D01*
X167530254Y-71977017D01*
X167229900Y-72426528D01*
X167228399Y-72434072D01*
X167201499Y-72343183D01*
X166859944Y-71921202D01*
X166382903Y-71662050D01*
X166311275Y-71647867D01*
X166097000Y-71770521D01*
X165843000Y-71770521D01*
X165628725Y-71647867D01*
X165557097Y-71662050D01*
X165080056Y-71921202D01*
X164738501Y-72343183D01*
X164584430Y-72863750D01*
X162016248Y-72863750D01*
X162085000Y-72518113D01*
X162085000Y-72461887D01*
X161975767Y-71912736D01*
X161664698Y-71447189D01*
X161199151Y-71136120D01*
X160650000Y-71026887D01*
X160100849Y-71136120D01*
X159635302Y-71447189D01*
X159324233Y-71912736D01*
X159215000Y-72461887D01*
X157085000Y-72461887D01*
X156975767Y-71912736D01*
X156664698Y-71447189D01*
X156199151Y-71136120D01*
X155650000Y-71026887D01*
X155100849Y-71136120D01*
X154635302Y-71447189D01*
X154324233Y-71912736D01*
X154215000Y-72461887D01*
X153110000Y-72461887D01*
X153110000Y-67572815D01*
X153264630Y-67572815D01*
X153588980Y-68357800D01*
X154189041Y-68958909D01*
X154973459Y-69284628D01*
X155822815Y-69285370D01*
X156607800Y-68961020D01*
X157208909Y-68360959D01*
X157485368Y-67695171D01*
X161752799Y-67695171D01*
X161780770Y-68245448D01*
X161937540Y-68623923D01*
X162178483Y-68691912D01*
X162970395Y-67900000D01*
X162178483Y-67108088D01*
X161937540Y-67176077D01*
X161752799Y-67695171D01*
X157485368Y-67695171D01*
X157534628Y-67576541D01*
X157535194Y-66928483D01*
X162358088Y-66928483D01*
X163150000Y-67720395D01*
X163164143Y-67706253D01*
X163343748Y-67885858D01*
X163329605Y-67900000D01*
X163343748Y-67914143D01*
X163164143Y-68093748D01*
X163150000Y-68079605D01*
X162358088Y-68871517D01*
X162426077Y-69112460D01*
X162945171Y-69297201D01*
X163495448Y-69269230D01*
X163873923Y-69112460D01*
X163895116Y-69037356D01*
X163942191Y-69107809D01*
X164152235Y-69248157D01*
X164400000Y-69297440D01*
X165900000Y-69297440D01*
X166147765Y-69248157D01*
X166357809Y-69107809D01*
X166498157Y-68897765D01*
X166547440Y-68650000D01*
X166547440Y-67595060D01*
X173355000Y-67595060D01*
X173355000Y-68197940D01*
X173439492Y-68622711D01*
X173680106Y-68982814D01*
X174040209Y-69223428D01*
X174464980Y-69307920D01*
X174889751Y-69223428D01*
X175089820Y-69089746D01*
X175289889Y-69223428D01*
X175714660Y-69307920D01*
X176139431Y-69223428D01*
X176339500Y-69089746D01*
X176539569Y-69223428D01*
X176964340Y-69307920D01*
X177389111Y-69223428D01*
X177421682Y-69201665D01*
X177612731Y-69280800D01*
X177928270Y-69280800D01*
X178087020Y-69122050D01*
X178087020Y-68023500D01*
X178341020Y-68023500D01*
X178341020Y-69122050D01*
X178499770Y-69280800D01*
X178815309Y-69280800D01*
X179048698Y-69184127D01*
X179227327Y-69005499D01*
X179324000Y-68772110D01*
X179324000Y-68244187D01*
X181571752Y-68244187D01*
X181789757Y-68771800D01*
X182193077Y-69175824D01*
X182720309Y-69394750D01*
X183291187Y-69395248D01*
X183818800Y-69177243D01*
X184222824Y-68773923D01*
X184441750Y-68246691D01*
X184442000Y-67960000D01*
X191703887Y-67960000D01*
X191813120Y-68509151D01*
X192124189Y-68974698D01*
X192589736Y-69285767D01*
X193138887Y-69395000D01*
X193195113Y-69395000D01*
X193744264Y-69285767D01*
X194209811Y-68974698D01*
X194520880Y-68509151D01*
X194630113Y-67960000D01*
X194553098Y-67572815D01*
X197264630Y-67572815D01*
X197588980Y-68357800D01*
X198189041Y-68958909D01*
X198973459Y-69284628D01*
X199822815Y-69285370D01*
X200607800Y-68961020D01*
X201208909Y-68360959D01*
X201534628Y-67576541D01*
X201535370Y-66727185D01*
X201211020Y-65942200D01*
X200610959Y-65341091D01*
X199826541Y-65015372D01*
X198977185Y-65014630D01*
X198192200Y-65338980D01*
X197591091Y-65939041D01*
X197265372Y-66723459D01*
X197264630Y-67572815D01*
X194553098Y-67572815D01*
X194520880Y-67410849D01*
X194209811Y-66945302D01*
X193744264Y-66634233D01*
X193195113Y-66525000D01*
X193138887Y-66525000D01*
X192589736Y-66634233D01*
X192124189Y-66945302D01*
X191813120Y-67410849D01*
X191703887Y-67960000D01*
X184442000Y-67960000D01*
X184442248Y-67675813D01*
X184224243Y-67148200D01*
X183820923Y-66744176D01*
X183293691Y-66525250D01*
X182722813Y-66524752D01*
X182195200Y-66742757D01*
X181791176Y-67146077D01*
X181572250Y-67673309D01*
X181571752Y-68244187D01*
X179324000Y-68244187D01*
X179324000Y-68182250D01*
X179165250Y-68023500D01*
X178341020Y-68023500D01*
X178087020Y-68023500D01*
X178074320Y-68023500D01*
X178074320Y-67769500D01*
X178087020Y-67769500D01*
X178087020Y-66670950D01*
X178341020Y-66670950D01*
X178341020Y-67769500D01*
X179165250Y-67769500D01*
X179324000Y-67610750D01*
X179324000Y-67020890D01*
X179227327Y-66787501D01*
X179048698Y-66608873D01*
X178815309Y-66512200D01*
X178499770Y-66512200D01*
X178341020Y-66670950D01*
X178087020Y-66670950D01*
X177928270Y-66512200D01*
X177612731Y-66512200D01*
X177421682Y-66591335D01*
X177389111Y-66569572D01*
X176964340Y-66485080D01*
X176539569Y-66569572D01*
X176339500Y-66703254D01*
X176139431Y-66569572D01*
X175714660Y-66485080D01*
X175289889Y-66569572D01*
X175089820Y-66703254D01*
X174889751Y-66569572D01*
X174464980Y-66485080D01*
X174040209Y-66569572D01*
X173680106Y-66810186D01*
X173439492Y-67170289D01*
X173355000Y-67595060D01*
X166547440Y-67595060D01*
X166547440Y-67150000D01*
X166498157Y-66902235D01*
X166357809Y-66692191D01*
X166147765Y-66551843D01*
X165900000Y-66502560D01*
X164400000Y-66502560D01*
X164152235Y-66551843D01*
X163942191Y-66692191D01*
X163895116Y-66762644D01*
X163873923Y-66687540D01*
X163354829Y-66502799D01*
X162804552Y-66530770D01*
X162426077Y-66687540D01*
X162358088Y-66928483D01*
X157535194Y-66928483D01*
X157535370Y-66727185D01*
X157211020Y-65942200D01*
X156610959Y-65341091D01*
X155826541Y-65015372D01*
X154977185Y-65014630D01*
X154192200Y-65338980D01*
X153591091Y-65939041D01*
X153265372Y-66723459D01*
X153264630Y-67572815D01*
X153110000Y-67572815D01*
X153110000Y-64860000D01*
X201690000Y-64860000D01*
X201690000Y-94440000D01*
X201690000Y-94440000D01*
G37*
X201690000Y-94440000D02*
X180900000Y-94440000D01*
X180839456Y-94452043D01*
X180760285Y-94452043D01*
X180274278Y-94548715D01*
X180146308Y-94601722D01*
X180018337Y-94654729D01*
X179606320Y-94930030D01*
X179513350Y-95023000D01*
X175273850Y-95023000D01*
X175180880Y-94930030D01*
X174768862Y-94654729D01*
X174662848Y-94610817D01*
X174512922Y-94548715D01*
X174026914Y-94452042D01*
X173956984Y-94452042D01*
X173888400Y-94438400D01*
X153110000Y-94438400D01*
X153110000Y-92572815D01*
X153264630Y-92572815D01*
X153588980Y-93357800D01*
X154189041Y-93958909D01*
X154973459Y-94284628D01*
X155822815Y-94285370D01*
X156607800Y-93961020D01*
X157208909Y-93360959D01*
X157534628Y-92576541D01*
X157535370Y-91727185D01*
X157471586Y-91572815D01*
X197264630Y-91572815D01*
X197588980Y-92357800D01*
X198189041Y-92958909D01*
X198973459Y-93284628D01*
X199822815Y-93285370D01*
X200607800Y-92961020D01*
X201208909Y-92360959D01*
X201534628Y-91576541D01*
X201535370Y-90727185D01*
X201211020Y-89942200D01*
X200610959Y-89341091D01*
X199826541Y-89015372D01*
X198977185Y-89014630D01*
X198192200Y-89338980D01*
X197591091Y-89939041D01*
X197265372Y-90723459D01*
X197264630Y-91572815D01*
X157471586Y-91572815D01*
X157211020Y-90942200D01*
X156610959Y-90341091D01*
X155826541Y-90015372D01*
X154977185Y-90014630D01*
X154192200Y-90338980D01*
X153591091Y-90939041D01*
X153265372Y-91723459D01*
X153264630Y-92572815D01*
X153110000Y-92572815D01*
X153110000Y-88185750D01*
X154115000Y-88185750D01*
X154115000Y-88926309D01*
X154211673Y-89159698D01*
X154390301Y-89338327D01*
X154623690Y-89435000D01*
X155364250Y-89435000D01*
X155523000Y-89276250D01*
X155523000Y-88027000D01*
X155777000Y-88027000D01*
X155777000Y-89276250D01*
X155935750Y-89435000D01*
X156676310Y-89435000D01*
X156909699Y-89338327D01*
X157088327Y-89159698D01*
X157185000Y-88926309D01*
X157185000Y-88185750D01*
X159115000Y-88185750D01*
X159115000Y-88926309D01*
X159211673Y-89159698D01*
X159390301Y-89338327D01*
X159623690Y-89435000D01*
X160364250Y-89435000D01*
X160523000Y-89276250D01*
X160523000Y-88027000D01*
X160777000Y-88027000D01*
X160777000Y-89276250D01*
X160935750Y-89435000D01*
X161676310Y-89435000D01*
X161909699Y-89338327D01*
X162088327Y-89159698D01*
X162185000Y-88926309D01*
X162185000Y-88185750D01*
X162026250Y-88027000D01*
X160777000Y-88027000D01*
X160523000Y-88027000D01*
X159273750Y-88027000D01*
X159115000Y-88185750D01*
X157185000Y-88185750D01*
X157026250Y-88027000D01*
X155777000Y-88027000D01*
X155523000Y-88027000D01*
X154273750Y-88027000D01*
X154115000Y-88185750D01*
X153110000Y-88185750D01*
X153110000Y-85663991D01*
X154114735Y-85663991D01*
X154347932Y-86228371D01*
X154525092Y-86405841D01*
X154390301Y-86461673D01*
X154211673Y-86640302D01*
X154115000Y-86873691D01*
X154115000Y-87614250D01*
X154273750Y-87773000D01*
X155523000Y-87773000D01*
X155523000Y-87753000D01*
X155777000Y-87753000D01*
X155777000Y-87773000D01*
X157026250Y-87773000D01*
X157185000Y-87614250D01*
X157185000Y-86873691D01*
X157088327Y-86640302D01*
X156909699Y-86461673D01*
X156775006Y-86405881D01*
X156950551Y-86230643D01*
X157184733Y-85666670D01*
X157184735Y-85663991D01*
X159114735Y-85663991D01*
X159347932Y-86228371D01*
X159525092Y-86405841D01*
X159390301Y-86461673D01*
X159211673Y-86640302D01*
X159115000Y-86873691D01*
X159115000Y-87614250D01*
X159273750Y-87773000D01*
X160523000Y-87773000D01*
X160523000Y-87753000D01*
X160777000Y-87753000D01*
X160777000Y-87773000D01*
X162026250Y-87773000D01*
X162185000Y-87614250D01*
X162185000Y-86873691D01*
X162147924Y-86784180D01*
X164579560Y-86784180D01*
X164579560Y-88983820D01*
X164628843Y-89231585D01*
X164769191Y-89441629D01*
X164979235Y-89581977D01*
X165227000Y-89631260D01*
X166751000Y-89631260D01*
X166998765Y-89581977D01*
X167208809Y-89441629D01*
X167349157Y-89231585D01*
X167391358Y-89019423D01*
X167541172Y-89243635D01*
X167994391Y-89546467D01*
X168529000Y-89652807D01*
X169063609Y-89546467D01*
X169516828Y-89243635D01*
X169799000Y-88821336D01*
X170081172Y-89243635D01*
X170534391Y-89546467D01*
X171069000Y-89652807D01*
X171603609Y-89546467D01*
X172056828Y-89243635D01*
X172339000Y-88821336D01*
X172621172Y-89243635D01*
X173074391Y-89546467D01*
X173609000Y-89652807D01*
X174143609Y-89546467D01*
X174596828Y-89243635D01*
X174879000Y-88821336D01*
X175161172Y-89243635D01*
X175614391Y-89546467D01*
X176149000Y-89652807D01*
X176683609Y-89546467D01*
X177136828Y-89243635D01*
X177419000Y-88821336D01*
X177701172Y-89243635D01*
X178154391Y-89546467D01*
X178689000Y-89652807D01*
X179223609Y-89546467D01*
X179676828Y-89243635D01*
X179967647Y-88808394D01*
X179986941Y-88873761D01*
X180330974Y-89299450D01*
X180811723Y-89561080D01*
X180885930Y-89576040D01*
X181102000Y-89453540D01*
X181102000Y-88011000D01*
X181356000Y-88011000D01*
X181356000Y-89453540D01*
X181572070Y-89576040D01*
X181646277Y-89561080D01*
X182127026Y-89299450D01*
X182471059Y-88873761D01*
X182626000Y-88348820D01*
X182626000Y-88011000D01*
X181356000Y-88011000D01*
X181102000Y-88011000D01*
X181082000Y-88011000D01*
X181082000Y-87757000D01*
X181102000Y-87757000D01*
X181102000Y-86314460D01*
X181356000Y-86314460D01*
X181356000Y-87757000D01*
X182626000Y-87757000D01*
X182626000Y-87419180D01*
X182471059Y-86894239D01*
X182127026Y-86468550D01*
X181646277Y-86206920D01*
X181572070Y-86191960D01*
X181356000Y-86314460D01*
X181102000Y-86314460D01*
X180885930Y-86191960D01*
X180811723Y-86206920D01*
X180330974Y-86468550D01*
X179986941Y-86894239D01*
X179967647Y-86959606D01*
X179676828Y-86524365D01*
X179223609Y-86221533D01*
X178689000Y-86115193D01*
X178154391Y-86221533D01*
X177701172Y-86524365D01*
X177419000Y-86946664D01*
X177136828Y-86524365D01*
X176683609Y-86221533D01*
X176149000Y-86115193D01*
X175614391Y-86221533D01*
X175161172Y-86524365D01*
X174879000Y-86946664D01*
X174596828Y-86524365D01*
X174143609Y-86221533D01*
X173609000Y-86115193D01*
X173074391Y-86221533D01*
X172621172Y-86524365D01*
X172339000Y-86946664D01*
X172056828Y-86524365D01*
X171603609Y-86221533D01*
X171069000Y-86115193D01*
X170534391Y-86221533D01*
X170081172Y-86524365D01*
X169799000Y-86946664D01*
X169516828Y-86524365D01*
X169063609Y-86221533D01*
X168529000Y-86115193D01*
X167994391Y-86221533D01*
X167541172Y-86524365D01*
X167391358Y-86748577D01*
X167349157Y-86536415D01*
X167208809Y-86326371D01*
X166998765Y-86186023D01*
X166751000Y-86136740D01*
X165227000Y-86136740D01*
X164979235Y-86186023D01*
X164769191Y-86326371D01*
X164628843Y-86536415D01*
X164579560Y-86784180D01*
X162147924Y-86784180D01*
X162088327Y-86640302D01*
X161909699Y-86461673D01*
X161775006Y-86405881D01*
X161950551Y-86230643D01*
X162184733Y-85666670D01*
X162185265Y-85056009D01*
X161952068Y-84491629D01*
X161520643Y-84059449D01*
X161259281Y-83950922D01*
X161461800Y-83867243D01*
X161865824Y-83463923D01*
X162084750Y-82936691D01*
X162085248Y-82365813D01*
X161867243Y-81838200D01*
X161463923Y-81434176D01*
X160936691Y-81215250D01*
X160365813Y-81214752D01*
X159838200Y-81432757D01*
X159434176Y-81836077D01*
X159215250Y-82363309D01*
X159214752Y-82934187D01*
X159432757Y-83461800D01*
X159836077Y-83865824D01*
X160040815Y-83950839D01*
X159781629Y-84057932D01*
X159349449Y-84489357D01*
X159115267Y-85053330D01*
X159114735Y-85663991D01*
X157184735Y-85663991D01*
X157185265Y-85056009D01*
X156952068Y-84491629D01*
X156520643Y-84059449D01*
X156259281Y-83950922D01*
X156461800Y-83867243D01*
X156865824Y-83463923D01*
X157084750Y-82936691D01*
X157085248Y-82365813D01*
X156867243Y-81838200D01*
X156463923Y-81434176D01*
X155936691Y-81215250D01*
X155365813Y-81214752D01*
X154838200Y-81432757D01*
X154434176Y-81836077D01*
X154215250Y-82363309D01*
X154214752Y-82934187D01*
X154432757Y-83461800D01*
X154836077Y-83865824D01*
X155040815Y-83950839D01*
X154781629Y-84057932D01*
X154349449Y-84489357D01*
X154115267Y-85053330D01*
X154114735Y-85663991D01*
X153110000Y-85663991D01*
X153110000Y-80576763D01*
X164584430Y-80576763D01*
X164584430Y-81343237D01*
X164689900Y-81873472D01*
X164990254Y-82322983D01*
X165439765Y-82623337D01*
X165970000Y-82728807D01*
X166500235Y-82623337D01*
X166949746Y-82322983D01*
X167240000Y-81888588D01*
X167530254Y-82322983D01*
X167979765Y-82623337D01*
X168510000Y-82728807D01*
X169040235Y-82623337D01*
X169489746Y-82322983D01*
X169780000Y-81888588D01*
X170070254Y-82322983D01*
X170519765Y-82623337D01*
X171050000Y-82728807D01*
X171580235Y-82623337D01*
X172029746Y-82322983D01*
X172320000Y-81888588D01*
X172610254Y-82322983D01*
X173059765Y-82623337D01*
X173590000Y-82728807D01*
X174120235Y-82623337D01*
X174569746Y-82322983D01*
X174860000Y-81888588D01*
X175150254Y-82322983D01*
X175599765Y-82623337D01*
X176130000Y-82728807D01*
X176660235Y-82623337D01*
X177109746Y-82322983D01*
X177400000Y-81888588D01*
X177690254Y-82322983D01*
X178139765Y-82623337D01*
X178670000Y-82728807D01*
X179200235Y-82623337D01*
X179649746Y-82322983D01*
X179940000Y-81888588D01*
X180230254Y-82322983D01*
X180679765Y-82623337D01*
X181210000Y-82728807D01*
X181740235Y-82623337D01*
X182189746Y-82322983D01*
X182480000Y-81888588D01*
X182770254Y-82322983D01*
X183219765Y-82623337D01*
X183750000Y-82728807D01*
X184280235Y-82623337D01*
X184729746Y-82322983D01*
X185020000Y-81888588D01*
X185310254Y-82322983D01*
X185759765Y-82623337D01*
X186290000Y-82728807D01*
X186820235Y-82623337D01*
X187269746Y-82322983D01*
X187560000Y-81888588D01*
X187850254Y-82322983D01*
X188299765Y-82623337D01*
X188830000Y-82728807D01*
X189360235Y-82623337D01*
X189809746Y-82322983D01*
X190110100Y-81873472D01*
X190215570Y-81343237D01*
X190215570Y-80576763D01*
X190110100Y-80046528D01*
X189809746Y-79597017D01*
X189360235Y-79296663D01*
X188830000Y-79191193D01*
X188299765Y-79296663D01*
X187850254Y-79597017D01*
X187560000Y-80031412D01*
X187269746Y-79597017D01*
X186820235Y-79296663D01*
X186290000Y-79191193D01*
X185759765Y-79296663D01*
X185310254Y-79597017D01*
X185020000Y-80031412D01*
X184729746Y-79597017D01*
X184280235Y-79296663D01*
X183750000Y-79191193D01*
X183219765Y-79296663D01*
X182770254Y-79597017D01*
X182480000Y-80031412D01*
X182189746Y-79597017D01*
X181740235Y-79296663D01*
X181210000Y-79191193D01*
X180679765Y-79296663D01*
X180230254Y-79597017D01*
X179940000Y-80031412D01*
X179649746Y-79597017D01*
X179200235Y-79296663D01*
X178670000Y-79191193D01*
X178139765Y-79296663D01*
X177690254Y-79597017D01*
X177400000Y-80031412D01*
X177109746Y-79597017D01*
X176660235Y-79296663D01*
X176130000Y-79191193D01*
X175599765Y-79296663D01*
X175150254Y-79597017D01*
X174860000Y-80031412D01*
X174569746Y-79597017D01*
X174120235Y-79296663D01*
X173590000Y-79191193D01*
X173059765Y-79296663D01*
X172610254Y-79597017D01*
X172320000Y-80031412D01*
X172029746Y-79597017D01*
X171580235Y-79296663D01*
X171050000Y-79191193D01*
X170519765Y-79296663D01*
X170070254Y-79597017D01*
X169780000Y-80031412D01*
X169489746Y-79597017D01*
X169040235Y-79296663D01*
X168510000Y-79191193D01*
X167979765Y-79296663D01*
X167530254Y-79597017D01*
X167240000Y-80031412D01*
X166949746Y-79597017D01*
X166500235Y-79296663D01*
X165970000Y-79191193D01*
X165439765Y-79296663D01*
X164990254Y-79597017D01*
X164689900Y-80046528D01*
X164584430Y-80576763D01*
X153110000Y-80576763D01*
X153110000Y-72461887D01*
X154215000Y-72461887D01*
X154215000Y-72518113D01*
X154324233Y-73067264D01*
X154635302Y-73532811D01*
X155100849Y-73843880D01*
X155650000Y-73953113D01*
X156199151Y-73843880D01*
X156664698Y-73532811D01*
X156975767Y-73067264D01*
X157085000Y-72518113D01*
X157085000Y-72461887D01*
X159215000Y-72461887D01*
X159215000Y-72518113D01*
X159324233Y-73067264D01*
X159635302Y-73532811D01*
X160100849Y-73843880D01*
X160650000Y-73953113D01*
X161199151Y-73843880D01*
X161664698Y-73532811D01*
X161708671Y-73467000D01*
X164584430Y-73467000D01*
X164584430Y-73816250D01*
X164738501Y-74336817D01*
X165080056Y-74758798D01*
X165557097Y-75017950D01*
X165628725Y-75032133D01*
X165843000Y-74909479D01*
X165843000Y-73467000D01*
X164584430Y-73467000D01*
X161708671Y-73467000D01*
X161975767Y-73067264D01*
X162016248Y-72863750D01*
X164584430Y-72863750D01*
X164584430Y-73213000D01*
X165843000Y-73213000D01*
X165843000Y-71770521D01*
X166097000Y-71770521D01*
X166097000Y-73213000D01*
X166117000Y-73213000D01*
X166117000Y-73467000D01*
X166097000Y-73467000D01*
X166097000Y-74909479D01*
X166311275Y-75032133D01*
X166382903Y-75017950D01*
X166859944Y-74758798D01*
X167201499Y-74336817D01*
X167228399Y-74245928D01*
X167229900Y-74253472D01*
X167530254Y-74702983D01*
X167979765Y-75003337D01*
X168510000Y-75108807D01*
X169040235Y-75003337D01*
X169489746Y-74702983D01*
X169780000Y-74268588D01*
X170070254Y-74702983D01*
X170519765Y-75003337D01*
X171050000Y-75108807D01*
X171580235Y-75003337D01*
X172029746Y-74702983D01*
X172320000Y-74268588D01*
X172610254Y-74702983D01*
X173059765Y-75003337D01*
X173590000Y-75108807D01*
X174120235Y-75003337D01*
X174569746Y-74702983D01*
X174860000Y-74268588D01*
X175150254Y-74702983D01*
X175599765Y-75003337D01*
X176130000Y-75108807D01*
X176660235Y-75003337D01*
X177109746Y-74702983D01*
X177400000Y-74268588D01*
X177690254Y-74702983D01*
X178139765Y-75003337D01*
X178670000Y-75108807D01*
X179200235Y-75003337D01*
X179649746Y-74702983D01*
X179940000Y-74268588D01*
X180230254Y-74702983D01*
X180679765Y-75003337D01*
X181210000Y-75108807D01*
X181740235Y-75003337D01*
X182189746Y-74702983D01*
X182480000Y-74268588D01*
X182770254Y-74702983D01*
X183219765Y-75003337D01*
X183750000Y-75108807D01*
X184280235Y-75003337D01*
X184729746Y-74702983D01*
X185020000Y-74268588D01*
X185310254Y-74702983D01*
X185759765Y-75003337D01*
X186290000Y-75108807D01*
X186820235Y-75003337D01*
X187269746Y-74702983D01*
X187560000Y-74268588D01*
X187850254Y-74702983D01*
X188299765Y-75003337D01*
X188830000Y-75108807D01*
X189360235Y-75003337D01*
X189809746Y-74702983D01*
X190082351Y-74295000D01*
X193410568Y-74295000D01*
X193516908Y-74829609D01*
X193819740Y-75282828D01*
X194242039Y-75565000D01*
X193819740Y-75847172D01*
X193516908Y-76300391D01*
X193410568Y-76835000D01*
X193516908Y-77369609D01*
X193819740Y-77822828D01*
X194242039Y-78105000D01*
X193819740Y-78387172D01*
X193516908Y-78840391D01*
X193410568Y-79375000D01*
X193516908Y-79909609D01*
X193819740Y-80362828D01*
X194242039Y-80645000D01*
X193819740Y-80927172D01*
X193516908Y-81380391D01*
X193410568Y-81915000D01*
X193516908Y-82449609D01*
X193819740Y-82902828D01*
X194272959Y-83205660D01*
X194807568Y-83312000D01*
X195346592Y-83312000D01*
X195881201Y-83205660D01*
X196334420Y-82902828D01*
X196614762Y-82483267D01*
X196808130Y-82828465D01*
X197239093Y-83168135D01*
X197767238Y-83317027D01*
X197987920Y-83158254D01*
X197987920Y-82042000D01*
X198241920Y-82042000D01*
X198241920Y-83158254D01*
X198462602Y-83317027D01*
X198990747Y-83168135D01*
X199421710Y-82828465D01*
X199689882Y-82349728D01*
X199706630Y-82258070D01*
X199584130Y-82042000D01*
X198241920Y-82042000D01*
X197987920Y-82042000D01*
X197967920Y-82042000D01*
X197967920Y-81788000D01*
X197987920Y-81788000D01*
X197987920Y-80671746D01*
X197950745Y-80645000D01*
X197987920Y-80618254D01*
X197987920Y-79502000D01*
X198241920Y-79502000D01*
X198241920Y-80618254D01*
X198279095Y-80645000D01*
X198241920Y-80671746D01*
X198241920Y-81788000D01*
X199584130Y-81788000D01*
X199706630Y-81571930D01*
X199689882Y-81480272D01*
X199421710Y-81001535D01*
X198990747Y-80661865D01*
X198930924Y-80645000D01*
X198990747Y-80628135D01*
X199421710Y-80288465D01*
X199689882Y-79809728D01*
X199706630Y-79718070D01*
X199584130Y-79502000D01*
X198241920Y-79502000D01*
X197987920Y-79502000D01*
X197967920Y-79502000D01*
X197967920Y-79248000D01*
X197987920Y-79248000D01*
X197987920Y-78131746D01*
X197950745Y-78105000D01*
X197987920Y-78078254D01*
X197987920Y-76962000D01*
X198241920Y-76962000D01*
X198241920Y-78078254D01*
X198279095Y-78105000D01*
X198241920Y-78131746D01*
X198241920Y-79248000D01*
X199584130Y-79248000D01*
X199706630Y-79031930D01*
X199689882Y-78940272D01*
X199421710Y-78461535D01*
X198990747Y-78121865D01*
X198930924Y-78105000D01*
X198990747Y-78088135D01*
X199421710Y-77748465D01*
X199689882Y-77269728D01*
X199706630Y-77178070D01*
X199584130Y-76962000D01*
X198241920Y-76962000D01*
X197987920Y-76962000D01*
X197967920Y-76962000D01*
X197967920Y-76708000D01*
X197987920Y-76708000D01*
X197987920Y-75591746D01*
X197950745Y-75565000D01*
X197987920Y-75538254D01*
X197987920Y-74422000D01*
X198241920Y-74422000D01*
X198241920Y-75538254D01*
X198279095Y-75565000D01*
X198241920Y-75591746D01*
X198241920Y-76708000D01*
X199584130Y-76708000D01*
X199706630Y-76491930D01*
X199689882Y-76400272D01*
X199421710Y-75921535D01*
X198990747Y-75581865D01*
X198930924Y-75565000D01*
X198990747Y-75548135D01*
X199421710Y-75208465D01*
X199689882Y-74729728D01*
X199706630Y-74638070D01*
X199584130Y-74422000D01*
X198241920Y-74422000D01*
X197987920Y-74422000D01*
X197967920Y-74422000D01*
X197967920Y-74168000D01*
X197987920Y-74168000D01*
X197987920Y-74148000D01*
X198241920Y-74148000D01*
X198241920Y-74168000D01*
X199584130Y-74168000D01*
X199706630Y-73951930D01*
X199689882Y-73860272D01*
X199421710Y-73381535D01*
X198990747Y-73041865D01*
X198944312Y-73028774D01*
X199372260Y-72742828D01*
X199675092Y-72289609D01*
X199781432Y-71755000D01*
X199675092Y-71220391D01*
X199372260Y-70767172D01*
X198919041Y-70464340D01*
X198384432Y-70358000D01*
X197845408Y-70358000D01*
X197310799Y-70464340D01*
X196857580Y-70767172D01*
X196720036Y-70973021D01*
X196674727Y-70745235D01*
X196534379Y-70535191D01*
X196324335Y-70394843D01*
X196076570Y-70345560D01*
X194077590Y-70345560D01*
X193829825Y-70394843D01*
X193619781Y-70535191D01*
X193479433Y-70745235D01*
X193430150Y-70993000D01*
X193430150Y-72517000D01*
X193479433Y-72764765D01*
X193619781Y-72974809D01*
X193829825Y-73115157D01*
X194043501Y-73157659D01*
X193819740Y-73307172D01*
X193516908Y-73760391D01*
X193410568Y-74295000D01*
X190082351Y-74295000D01*
X190110100Y-74253472D01*
X190215570Y-73723237D01*
X190215570Y-72956763D01*
X190110100Y-72426528D01*
X189809746Y-71977017D01*
X189360235Y-71676663D01*
X188830000Y-71571193D01*
X188299765Y-71676663D01*
X187850254Y-71977017D01*
X187560000Y-72411412D01*
X187269746Y-71977017D01*
X186820235Y-71676663D01*
X186290000Y-71571193D01*
X185759765Y-71676663D01*
X185310254Y-71977017D01*
X185020000Y-72411412D01*
X184729746Y-71977017D01*
X184280235Y-71676663D01*
X183750000Y-71571193D01*
X183219765Y-71676663D01*
X182770254Y-71977017D01*
X182480000Y-72411412D01*
X182189746Y-71977017D01*
X181740235Y-71676663D01*
X181210000Y-71571193D01*
X180679765Y-71676663D01*
X180230254Y-71977017D01*
X179940000Y-72411412D01*
X179649746Y-71977017D01*
X179200235Y-71676663D01*
X178670000Y-71571193D01*
X178139765Y-71676663D01*
X177690254Y-71977017D01*
X177400000Y-72411412D01*
X177109746Y-71977017D01*
X176660235Y-71676663D01*
X176130000Y-71571193D01*
X175599765Y-71676663D01*
X175150254Y-71977017D01*
X174860000Y-72411412D01*
X174569746Y-71977017D01*
X174120235Y-71676663D01*
X173590000Y-71571193D01*
X173059765Y-71676663D01*
X172610254Y-71977017D01*
X172320000Y-72411412D01*
X172029746Y-71977017D01*
X171580235Y-71676663D01*
X171050000Y-71571193D01*
X170519765Y-71676663D01*
X170070254Y-71977017D01*
X169780000Y-72411412D01*
X169489746Y-71977017D01*
X169040235Y-71676663D01*
X168510000Y-71571193D01*
X167979765Y-71676663D01*
X167530254Y-71977017D01*
X167229900Y-72426528D01*
X167228399Y-72434072D01*
X167201499Y-72343183D01*
X166859944Y-71921202D01*
X166382903Y-71662050D01*
X166311275Y-71647867D01*
X166097000Y-71770521D01*
X165843000Y-71770521D01*
X165628725Y-71647867D01*
X165557097Y-71662050D01*
X165080056Y-71921202D01*
X164738501Y-72343183D01*
X164584430Y-72863750D01*
X162016248Y-72863750D01*
X162085000Y-72518113D01*
X162085000Y-72461887D01*
X161975767Y-71912736D01*
X161664698Y-71447189D01*
X161199151Y-71136120D01*
X160650000Y-71026887D01*
X160100849Y-71136120D01*
X159635302Y-71447189D01*
X159324233Y-71912736D01*
X159215000Y-72461887D01*
X157085000Y-72461887D01*
X156975767Y-71912736D01*
X156664698Y-71447189D01*
X156199151Y-71136120D01*
X155650000Y-71026887D01*
X155100849Y-71136120D01*
X154635302Y-71447189D01*
X154324233Y-71912736D01*
X154215000Y-72461887D01*
X153110000Y-72461887D01*
X153110000Y-67572815D01*
X153264630Y-67572815D01*
X153588980Y-68357800D01*
X154189041Y-68958909D01*
X154973459Y-69284628D01*
X155822815Y-69285370D01*
X156607800Y-68961020D01*
X157208909Y-68360959D01*
X157485368Y-67695171D01*
X161752799Y-67695171D01*
X161780770Y-68245448D01*
X161937540Y-68623923D01*
X162178483Y-68691912D01*
X162970395Y-67900000D01*
X162178483Y-67108088D01*
X161937540Y-67176077D01*
X161752799Y-67695171D01*
X157485368Y-67695171D01*
X157534628Y-67576541D01*
X157535194Y-66928483D01*
X162358088Y-66928483D01*
X163150000Y-67720395D01*
X163164143Y-67706253D01*
X163343748Y-67885858D01*
X163329605Y-67900000D01*
X163343748Y-67914143D01*
X163164143Y-68093748D01*
X163150000Y-68079605D01*
X162358088Y-68871517D01*
X162426077Y-69112460D01*
X162945171Y-69297201D01*
X163495448Y-69269230D01*
X163873923Y-69112460D01*
X163895116Y-69037356D01*
X163942191Y-69107809D01*
X164152235Y-69248157D01*
X164400000Y-69297440D01*
X165900000Y-69297440D01*
X166147765Y-69248157D01*
X166357809Y-69107809D01*
X166498157Y-68897765D01*
X166547440Y-68650000D01*
X166547440Y-67595060D01*
X173355000Y-67595060D01*
X173355000Y-68197940D01*
X173439492Y-68622711D01*
X173680106Y-68982814D01*
X174040209Y-69223428D01*
X174464980Y-69307920D01*
X174889751Y-69223428D01*
X175089820Y-69089746D01*
X175289889Y-69223428D01*
X175714660Y-69307920D01*
X176139431Y-69223428D01*
X176339500Y-69089746D01*
X176539569Y-69223428D01*
X176964340Y-69307920D01*
X177389111Y-69223428D01*
X177421682Y-69201665D01*
X177612731Y-69280800D01*
X177928270Y-69280800D01*
X178087020Y-69122050D01*
X178087020Y-68023500D01*
X178341020Y-68023500D01*
X178341020Y-69122050D01*
X178499770Y-69280800D01*
X178815309Y-69280800D01*
X179048698Y-69184127D01*
X179227327Y-69005499D01*
X179324000Y-68772110D01*
X179324000Y-68244187D01*
X181571752Y-68244187D01*
X181789757Y-68771800D01*
X182193077Y-69175824D01*
X182720309Y-69394750D01*
X183291187Y-69395248D01*
X183818800Y-69177243D01*
X184222824Y-68773923D01*
X184441750Y-68246691D01*
X184442000Y-67960000D01*
X191703887Y-67960000D01*
X191813120Y-68509151D01*
X192124189Y-68974698D01*
X192589736Y-69285767D01*
X193138887Y-69395000D01*
X193195113Y-69395000D01*
X193744264Y-69285767D01*
X194209811Y-68974698D01*
X194520880Y-68509151D01*
X194630113Y-67960000D01*
X194553098Y-67572815D01*
X197264630Y-67572815D01*
X197588980Y-68357800D01*
X198189041Y-68958909D01*
X198973459Y-69284628D01*
X199822815Y-69285370D01*
X200607800Y-68961020D01*
X201208909Y-68360959D01*
X201534628Y-67576541D01*
X201535370Y-66727185D01*
X201211020Y-65942200D01*
X200610959Y-65341091D01*
X199826541Y-65015372D01*
X198977185Y-65014630D01*
X198192200Y-65338980D01*
X197591091Y-65939041D01*
X197265372Y-66723459D01*
X197264630Y-67572815D01*
X194553098Y-67572815D01*
X194520880Y-67410849D01*
X194209811Y-66945302D01*
X193744264Y-66634233D01*
X193195113Y-66525000D01*
X193138887Y-66525000D01*
X192589736Y-66634233D01*
X192124189Y-66945302D01*
X191813120Y-67410849D01*
X191703887Y-67960000D01*
X184442000Y-67960000D01*
X184442248Y-67675813D01*
X184224243Y-67148200D01*
X183820923Y-66744176D01*
X183293691Y-66525250D01*
X182722813Y-66524752D01*
X182195200Y-66742757D01*
X181791176Y-67146077D01*
X181572250Y-67673309D01*
X181571752Y-68244187D01*
X179324000Y-68244187D01*
X179324000Y-68182250D01*
X179165250Y-68023500D01*
X178341020Y-68023500D01*
X178087020Y-68023500D01*
X178074320Y-68023500D01*
X178074320Y-67769500D01*
X178087020Y-67769500D01*
X178087020Y-66670950D01*
X178341020Y-66670950D01*
X178341020Y-67769500D01*
X179165250Y-67769500D01*
X179324000Y-67610750D01*
X179324000Y-67020890D01*
X179227327Y-66787501D01*
X179048698Y-66608873D01*
X178815309Y-66512200D01*
X178499770Y-66512200D01*
X178341020Y-66670950D01*
X178087020Y-66670950D01*
X177928270Y-66512200D01*
X177612731Y-66512200D01*
X177421682Y-66591335D01*
X177389111Y-66569572D01*
X176964340Y-66485080D01*
X176539569Y-66569572D01*
X176339500Y-66703254D01*
X176139431Y-66569572D01*
X175714660Y-66485080D01*
X175289889Y-66569572D01*
X175089820Y-66703254D01*
X174889751Y-66569572D01*
X174464980Y-66485080D01*
X174040209Y-66569572D01*
X173680106Y-66810186D01*
X173439492Y-67170289D01*
X173355000Y-67595060D01*
X166547440Y-67595060D01*
X166547440Y-67150000D01*
X166498157Y-66902235D01*
X166357809Y-66692191D01*
X166147765Y-66551843D01*
X165900000Y-66502560D01*
X164400000Y-66502560D01*
X164152235Y-66551843D01*
X163942191Y-66692191D01*
X163895116Y-66762644D01*
X163873923Y-66687540D01*
X163354829Y-66502799D01*
X162804552Y-66530770D01*
X162426077Y-66687540D01*
X162358088Y-66928483D01*
X157535194Y-66928483D01*
X157535370Y-66727185D01*
X157211020Y-65942200D01*
X156610959Y-65341091D01*
X155826541Y-65015372D01*
X154977185Y-65014630D01*
X154192200Y-65338980D01*
X153591091Y-65939041D01*
X153265372Y-66723459D01*
X153264630Y-67572815D01*
X153110000Y-67572815D01*
X153110000Y-64860000D01*
X201690000Y-64860000D01*
X201690000Y-94440000D01*
%TD*%
M02*
