%TF.GenerationSoftware,KiCad,Pcbnew,(2017-11-10 revision 0b34d09bc)-master*%
%TF.CreationDate,2017-11-10T16:36:00+02:00*%
%TF.ProjectId,dps5005control,64707335303035636F6E74726F6C2E6B,rev?*%
%TF.SameCoordinates,Original*%
%TF.FileFunction,Soldermask,Bot*%
%TF.FilePolarity,Negative*%
%FSLAX46Y46*%
G04 Gerber Fmt 4.6, Leading zero omitted, Abs format (unit mm)*
G04 Created by KiCad (PCBNEW (2017-11-10 revision 0b34d09bc)-master) date Fri Nov 10 16:36:00 2017*
%MOMM*%
%LPD*%
G01*
G04 APERTURE LIST*
%ADD10O,1.901140X2.599640*%
%ADD11R,1.349960X1.898600*%
%ADD12O,1.349960X1.898600*%
%ADD13O,2.398980X1.924000*%
%ADD14R,2.398980X1.924000*%
%ADD15C,1.900000*%
%ADD16R,1.900000X1.900000*%
%ADD17O,2.000000X2.000000*%
%ADD18C,2.000000*%
%ADD19C,2.200000*%
%ADD20R,2.200000X2.200000*%
%ADD21C,3.400000*%
%ADD22C,1.200000*%
%ADD23O,1.901140X2.398980*%
%ADD24C,3.900120*%
%ADD25R,1.924000X2.599640*%
%ADD26O,1.924000X2.599640*%
%ADD27R,2.599640X1.924000*%
%ADD28O,2.599640X1.924000*%
G04 APERTURE END LIST*
D10*
%TO.C,U2*%
X188830000Y-73340000D03*
X186290000Y-73340000D03*
X183750000Y-73340000D03*
X181210000Y-73340000D03*
X178670000Y-73340000D03*
X176130000Y-73340000D03*
X173590000Y-73340000D03*
X171050000Y-73340000D03*
X168510000Y-73340000D03*
X165970000Y-73340000D03*
X165970000Y-80960000D03*
X168510000Y-80960000D03*
X171050000Y-80960000D03*
X173590000Y-80960000D03*
X176130000Y-80960000D03*
X178670000Y-80960000D03*
X181210000Y-80960000D03*
X183750000Y-80960000D03*
X186290000Y-80960000D03*
X188830000Y-80960000D03*
%TD*%
D11*
%TO.C,P2*%
X178214020Y-67896500D03*
D12*
X176964340Y-67896500D03*
X175714660Y-67896500D03*
X174464980Y-67896500D03*
%TD*%
D13*
%TO.C,P3*%
X198114920Y-81915000D03*
X195077080Y-81915000D03*
X198114920Y-79375000D03*
X195077080Y-79375000D03*
X198114920Y-76835000D03*
X195077080Y-76835000D03*
X198114920Y-74295000D03*
X195077080Y-74295000D03*
X198114920Y-71755000D03*
D14*
X195077080Y-71755000D03*
%TD*%
D15*
%TO.C,C1*%
X163150000Y-67900000D03*
D16*
X165150000Y-67900000D03*
%TD*%
D17*
%TO.C,R1*%
X193167000Y-67960000D03*
D18*
X183007000Y-67960000D03*
%TD*%
D19*
%TO.C,D1*%
X160650000Y-85360000D03*
D20*
X160650000Y-87900000D03*
%TD*%
D21*
%TO.C,REF\002A\002A*%
X155400000Y-92150000D03*
%TD*%
%TO.C,REF\002A\002A*%
X199400000Y-91150000D03*
%TD*%
%TO.C,REF\002A\002A*%
X199400000Y-67150000D03*
%TD*%
D22*
%TO.C,REF\002A\002A*%
X176000000Y-96450000D03*
%TD*%
%TO.C,REF\002A\002A*%
X177400000Y-96450000D03*
%TD*%
%TO.C,REF\002A\002A*%
X178800000Y-96450000D03*
%TD*%
D23*
%TO.C,ENC1*%
X164899360Y-100692560D03*
X159900640Y-100692560D03*
D24*
X168600140Y-107692800D03*
X156199860Y-107692800D03*
D23*
X164899360Y-115193420D03*
X162400000Y-115193420D03*
X159900640Y-115193420D03*
%TD*%
D25*
%TO.C,P4*%
X165989000Y-87884000D03*
D26*
X168529000Y-87884000D03*
X171069000Y-87884000D03*
X173609000Y-87884000D03*
X176149000Y-87884000D03*
X178689000Y-87884000D03*
X181229000Y-87884000D03*
%TD*%
D17*
%TO.C,R3*%
X155650000Y-72490000D03*
D18*
X155650000Y-82650000D03*
%TD*%
D21*
%TO.C,REF\002A\002A*%
X155400000Y-67150000D03*
%TD*%
D18*
%TO.C,R2*%
X160650000Y-82650000D03*
D17*
X160650000Y-72490000D03*
%TD*%
D19*
%TO.C,D2*%
X155650000Y-85360000D03*
D20*
X155650000Y-87900000D03*
%TD*%
D23*
%TO.C,ENC2*%
X189900640Y-115193420D03*
X192400000Y-115193420D03*
X194899360Y-115193420D03*
D24*
X186199860Y-107692800D03*
X198600140Y-107692800D03*
D23*
X189900640Y-100692560D03*
X194899360Y-100692560D03*
%TD*%
D27*
%TO.C,P1*%
X177400000Y-115312800D03*
D28*
X177400000Y-112772800D03*
X177400000Y-110232800D03*
X177400000Y-107692800D03*
X177400000Y-105152800D03*
X177400000Y-102612800D03*
X177400000Y-100072800D03*
%TD*%
M02*
