%TF.GenerationSoftware,KiCad,Pcbnew,(2017-10-06 revision 4905bbe50)-master*%
%TF.CreationDate,2017-10-08T14:00:52+03:00*%
%TF.ProjectId,dps5005control,64707335303035636F6E74726F6C2E6B,rev?*%
%TF.SameCoordinates,Original*%
%TF.FileFunction,Soldermask,Top*%
%TF.FilePolarity,Negative*%
%FSLAX46Y46*%
G04 Gerber Fmt 4.6, Leading zero omitted, Abs format (unit mm)*
G04 Created by KiCad (PCBNEW (2017-10-06 revision 4905bbe50)-master) date Sun Oct  8 14:00:52 2017*
%MOMM*%
%LPD*%
G01*
G04 APERTURE LIST*
%ADD10O,2.000000X2.000000*%
%ADD11C,2.000000*%
%ADD12O,2.400000X1.900000*%
%ADD13R,2.400000X1.900000*%
%ADD14O,1.349960X1.898600*%
%ADD15R,1.349960X1.898600*%
%ADD16C,3.400000*%
%ADD17C,2.200000*%
%ADD18R,2.200000X2.200000*%
%ADD19C,1.200000*%
%ADD20R,2.000000X2.000000*%
%ADD21O,1.901140X2.599640*%
%ADD22O,1.901140X2.398980*%
%ADD23C,3.900120*%
%ADD24R,1.924000X2.599640*%
%ADD25O,1.924000X2.599640*%
%ADD26O,2.200000X2.200000*%
%ADD27R,2.599640X1.924000*%
%ADD28O,2.599640X1.924000*%
G04 APERTURE END LIST*
D10*
%TO.C,R1*%
X189484000Y-68650000D03*
D11*
X179324000Y-68650000D03*
%TD*%
D12*
%TO.C,P3*%
X195380000Y-79730000D03*
X198420000Y-79730000D03*
X198420000Y-77190000D03*
X195380000Y-77190000D03*
D13*
X195380000Y-69570000D03*
D12*
X198420000Y-69570000D03*
X195380000Y-72110000D03*
X198420000Y-72110000D03*
X195380000Y-74650000D03*
X198420000Y-74650000D03*
%TD*%
D14*
%TO.C,df13-4p-125dsa*%
X188117480Y-61214000D03*
X189367160Y-61214000D03*
X190616840Y-61214000D03*
D15*
X191866520Y-61214000D03*
%TD*%
D16*
%TO.C,P1*%
X156900000Y-74150000D03*
X156900000Y-79150000D03*
%TD*%
D17*
%TO.C,D1*%
X180860000Y-60650000D03*
D18*
X183400000Y-60650000D03*
%TD*%
D16*
%TO.C,REF\002A\002A*%
X155400000Y-92150000D03*
%TD*%
%TO.C,REF\002A\002A*%
X199400000Y-91150000D03*
%TD*%
%TO.C,REF\002A\002A*%
X199400000Y-60150000D03*
%TD*%
D19*
%TO.C,REF\002A\002A*%
X176000000Y-96450000D03*
%TD*%
%TO.C,REF\002A\002A*%
X177400000Y-96450000D03*
%TD*%
%TO.C,REF\002A\002A*%
X178800000Y-96450000D03*
%TD*%
D11*
%TO.C,C2*%
X157900000Y-68400000D03*
D20*
X157900000Y-65900000D03*
%TD*%
D21*
%TO.C,U2*%
X188830000Y-73340000D03*
X186290000Y-73340000D03*
X183750000Y-73340000D03*
X181210000Y-73340000D03*
X178670000Y-73340000D03*
X176130000Y-73340000D03*
X173590000Y-73340000D03*
X171050000Y-73340000D03*
X168510000Y-73340000D03*
X165970000Y-73340000D03*
X165970000Y-80960000D03*
X168510000Y-80960000D03*
X171050000Y-80960000D03*
X173590000Y-80960000D03*
X176130000Y-80960000D03*
X178670000Y-80960000D03*
X181210000Y-80960000D03*
X183750000Y-80960000D03*
X186290000Y-80960000D03*
X188830000Y-80960000D03*
%TD*%
D22*
%TO.C,ENC1*%
X159900640Y-115193420D03*
X162400000Y-115193420D03*
X164899360Y-115193420D03*
D23*
X156199860Y-107692800D03*
X168600140Y-107692800D03*
D22*
X159900640Y-100692560D03*
X164899360Y-100692560D03*
%TD*%
D24*
%TO.C,P4*%
X165989000Y-87884000D03*
D25*
X168529000Y-87884000D03*
X171069000Y-87884000D03*
X173609000Y-87884000D03*
X176149000Y-87884000D03*
X178689000Y-87884000D03*
X181229000Y-87884000D03*
%TD*%
D20*
%TO.C,C1*%
X157900000Y-84900000D03*
D11*
X157900000Y-87400000D03*
%TD*%
D10*
%TO.C,R3*%
X176784000Y-65150000D03*
D11*
X166624000Y-65150000D03*
%TD*%
D26*
%TO.C,U1*%
X167480000Y-61150000D03*
X164940000Y-61150000D03*
D18*
X162400000Y-61150000D03*
%TD*%
D16*
%TO.C,REF\002A\002A*%
X155400000Y-60150000D03*
%TD*%
D11*
%TO.C,R2*%
X166624000Y-68650000D03*
D10*
X176784000Y-68650000D03*
%TD*%
D17*
%TO.C,D2*%
X175190000Y-60650000D03*
D18*
X172650000Y-60650000D03*
%TD*%
D22*
%TO.C,ENC2*%
X194899360Y-100692560D03*
X189900640Y-100692560D03*
D23*
X198600140Y-107692800D03*
X186199860Y-107692800D03*
D22*
X194899360Y-115193420D03*
X192400000Y-115193420D03*
X189900640Y-115193420D03*
%TD*%
D27*
%TO.C,P1*%
X177400000Y-115312800D03*
D28*
X177400000Y-112772800D03*
X177400000Y-110232800D03*
X177400000Y-107692800D03*
X177400000Y-105152800D03*
X177400000Y-102612800D03*
X177400000Y-100072800D03*
%TD*%
M02*
